<svg xmlns="http://www.w3.org/2000/svg" xmlns:xlink="http://www.w3.org/1999/xlink" width="300" zoomAndPan="magnify" viewBox="0 0 224.87999 74.999997" height="100" preserveAspectRatio="xMidYMid meet" version="1.0"><defs><g/><clipPath id="d5bbf40f15"><path d="M 1 1 L 24.785156 1 L 24.785156 34.886719 L 1 34.886719 Z M 1 1 " clip-rule="nonzero"/></clipPath><clipPath id="2ebdec3310"><path d="M 14.261719 16.035156 L 38 16.035156 L 38 50 L 14.261719 50 Z M 14.261719 16.035156 " clip-rule="nonzero"/></clipPath><clipPath id="55a4c4e3fc"><rect x="0" width="52" y="0" height="51"/></clipPath><clipPath id="fa084b20a2"><path d="M 51 11 L 224.761719 11 L 224.761719 67 L 51 67 Z M 51 11 " clip-rule="nonzero"/></clipPath><clipPath id="a8e77f161e"><rect x="0" width="174" y="0" height="56"/></clipPath></defs><g transform="matrix(1, 0, 0, 1, 0, 9)"><g clip-path="url(#55a4c4e3fc)"><g clip-path="url(#d5bbf40f15)"><path fill="#ff5757" d="M 3.191406 18.101562 L 13.179688 34.441406 L 22.433594 18.214844 C 24.589844 14.777344 24.777344 10.304688 22.515625 6.601562 C 19.296875 1.335938 12.363281 -0.351562 7.023438 2.824219 C 1.6875 5.996094 -0.0273438 12.835938 3.191406 18.101562 Z M 3.191406 18.101562 " fill-opacity="1" fill-rule="nonzero"/></g><g clip-path="url(#2ebdec3310)"><path fill="#ffde59" d="M 35.859375 32.820312 L 25.871094 16.480469 L 16.613281 32.707031 C 14.457031 36.144531 14.269531 40.617188 16.535156 44.320312 C 19.753906 49.582031 26.6875 51.273438 32.023438 48.097656 C 37.359375 44.925781 39.078125 38.085938 35.859375 32.820312 Z M 35.859375 32.820312 " fill-opacity="1" fill-rule="nonzero"/></g><path fill="#5d7aff" d="M 29.847656 18.539062 L 39.835938 34.878906 L 49.089844 18.652344 C 51.246094 15.214844 51.433594 10.742188 49.171875 7.039062 C 45.953125 1.773438 39.019531 0.0859375 33.679688 3.261719 C 28.34375 6.433594 26.628906 13.273438 29.847656 18.539062 Z M 29.847656 18.539062 " fill-opacity="1" fill-rule="nonzero"/></g></g><g clip-path="url(#fa084b20a2)"><g transform="matrix(1, 0, 0, 1, 51, 11)"><g clip-path="url(#a8e77f161e)"><g fill="#000000" fill-opacity="1"><g transform="translate(0.53874, 44.760287)"><g><path d="M 41.8125 -1.390625 C 42 -0.972656 42.003906 -0.625 41.828125 -0.34375 C 41.660156 -0.0703125 41.34375 0.0625 40.875 0.0625 L 34.75 0.0625 C 34.4375 0.0625 34.148438 -0.046875 33.890625 -0.265625 C 33.628906 -0.484375 33.4375 -0.742188 33.3125 -1.046875 L 31.578125 -5.25 L 11.734375 -5.25 L 10 -1.078125 C 9.875 -0.773438 9.6875 -0.515625 9.4375 -0.296875 C 9.1875 -0.078125 8.882812 0.03125 8.53125 0.03125 L 2.4375 0.03125 C 1.96875 0.03125 1.640625 -0.0976562 1.453125 -0.359375 C 1.273438 -0.628906 1.285156 -0.984375 1.484375 -1.421875 L 19.859375 -42.625 C 20.015625 -42.96875 20.238281 -43.238281 20.53125 -43.4375 C 20.820312 -43.632812 21.117188 -43.734375 21.421875 -43.734375 L 21.796875 -43.734375 C 22.140625 -43.734375 22.445312 -43.628906 22.71875 -43.421875 C 23 -43.210938 23.210938 -42.9375 23.359375 -42.59375 Z M 14.546875 -12.140625 L 28.734375 -12.140625 L 21.65625 -29.328125 Z M 14.546875 -12.140625 "/></g></g></g><g fill="#000000" fill-opacity="1"><g transform="translate(42.316602, 44.760287)"><g><path d="M 12.390625 -42.234375 L 12.390625 -17.671875 C 12.390625 -16.160156 12.640625 -14.765625 13.140625 -13.484375 C 13.640625 -12.203125 14.34375 -11.085938 15.25 -10.140625 C 16.164062 -9.191406 17.242188 -8.457031 18.484375 -7.9375 C 19.722656 -7.414062 21.082031 -7.15625 22.5625 -7.15625 C 24.039062 -7.15625 25.394531 -7.414062 26.625 -7.9375 C 27.851562 -8.457031 28.925781 -9.191406 29.84375 -10.140625 C 30.769531 -11.085938 31.484375 -12.203125 31.984375 -13.484375 C 32.484375 -14.765625 32.734375 -16.160156 32.734375 -17.671875 L 32.734375 -42.234375 C 32.734375 -42.890625 33.078125 -43.21875 33.765625 -43.21875 L 39.703125 -43.21875 C 40.398438 -43.21875 40.75 -42.890625 40.75 -42.234375 L 40.75 -17.65625 C 40.75 -14.9375 40.304688 -12.457031 39.421875 -10.21875 C 38.546875 -7.988281 37.296875 -6.054688 35.671875 -4.421875 C 34.054688 -2.796875 32.132812 -1.535156 29.90625 -0.640625 C 27.6875 0.242188 25.238281 0.6875 22.5625 0.6875 C 19.875 0.6875 17.414062 0.238281 15.1875 -0.65625 C 12.957031 -1.5625 11.03125 -2.832031 9.40625 -4.46875 C 7.789062 -6.113281 6.546875 -8.0625 5.671875 -10.3125 C 4.804688 -12.570312 4.375 -15.054688 4.375 -17.765625 L 4.375 -42.234375 C 4.375 -42.890625 4.6875 -43.21875 5.3125 -43.21875 L 11.453125 -43.21875 C 12.078125 -43.21875 12.390625 -42.890625 12.390625 -42.234375 Z M 12.390625 -42.234375 "/></g></g></g><g fill="#000000" fill-opacity="1"><g transform="translate(87.476494, 44.760287)"><g><path d="M 32.25 -12.765625 L 38.046875 -1.453125 C 38.253906 -1.035156 38.28125 -0.679688 38.125 -0.390625 C 37.976562 -0.109375 37.679688 0.03125 37.234375 0.03125 L 30.984375 0.03125 C 30.710938 0.03125 30.4375 -0.0664062 30.15625 -0.265625 C 29.882812 -0.460938 29.675781 -0.710938 29.53125 -1.015625 L 25.0625 -10.171875 C 24.59375 -10.097656 24.109375 -10.046875 23.609375 -10.015625 C 23.117188 -9.984375 22.617188 -9.96875 22.109375 -9.96875 L 13.1875 -9.96875 L 13.1875 -1.21875 C 13.1875 -0.84375 13.0625 -0.539062 12.8125 -0.3125 C 12.570312 -0.0820312 12.257812 0.03125 11.875 0.03125 L 6.421875 0.03125 C 6.066406 0.03125 5.765625 -0.0820312 5.515625 -0.3125 C 5.265625 -0.539062 5.140625 -0.84375 5.140625 -1.21875 L 5.140625 -41.953125 C 5.140625 -42.304688 5.265625 -42.597656 5.515625 -42.828125 C 5.765625 -43.054688 6.066406 -43.171875 6.421875 -43.171875 L 7.84375 -43.171875 C 8.675781 -43.171875 9.492188 -43.171875 10.296875 -43.171875 C 11.109375 -43.171875 11.679688 -43.171875 12.015625 -43.171875 L 22.109375 -43.171875 C 24.648438 -43.171875 26.976562 -42.757812 29.09375 -41.9375 C 31.21875 -41.113281 33.0625 -39.953125 34.625 -38.453125 C 36.1875 -36.953125 37.398438 -35.175781 38.265625 -33.125 C 39.128906 -31.082031 39.5625 -28.851562 39.5625 -26.4375 C 39.5625 -23.5 38.90625 -20.847656 37.59375 -18.484375 C 36.289062 -16.128906 34.507812 -14.222656 32.25 -12.765625 Z M 21.59375 -16.6875 C 23.53125 -16.6875 25.242188 -17.101562 26.734375 -17.9375 C 28.234375 -18.769531 29.410156 -19.921875 30.265625 -21.390625 C 31.117188 -22.867188 31.546875 -24.566406 31.546875 -26.484375 C 31.546875 -27.890625 31.296875 -29.175781 30.796875 -30.34375 C 30.296875 -31.519531 29.597656 -32.546875 28.703125 -33.421875 C 27.816406 -34.296875 26.765625 -34.96875 25.546875 -35.4375 C 24.335938 -35.914062 23.019531 -36.15625 21.59375 -36.15625 L 13.1875 -36.15625 L 13.1875 -16.6875 Z M 21.59375 -16.6875 "/></g></g></g><g fill="#000000" fill-opacity="1"><g transform="translate(130.590123, 44.760287)"><g><path d="M 41.8125 -1.390625 C 42 -0.972656 42.003906 -0.625 41.828125 -0.34375 C 41.660156 -0.0703125 41.34375 0.0625 40.875 0.0625 L 34.75 0.0625 C 34.4375 0.0625 34.148438 -0.046875 33.890625 -0.265625 C 33.628906 -0.484375 33.4375 -0.742188 33.3125 -1.046875 L 31.578125 -5.25 L 11.734375 -5.25 L 10 -1.078125 C 9.875 -0.773438 9.6875 -0.515625 9.4375 -0.296875 C 9.1875 -0.078125 8.882812 0.03125 8.53125 0.03125 L 2.4375 0.03125 C 1.96875 0.03125 1.640625 -0.0976562 1.453125 -0.359375 C 1.273438 -0.628906 1.285156 -0.984375 1.484375 -1.421875 L 19.859375 -42.625 C 20.015625 -42.96875 20.238281 -43.238281 20.53125 -43.4375 C 20.820312 -43.632812 21.117188 -43.734375 21.421875 -43.734375 L 21.796875 -43.734375 C 22.140625 -43.734375 22.445312 -43.628906 22.71875 -43.421875 C 23 -43.210938 23.210938 -42.9375 23.359375 -42.59375 Z M 14.546875 -12.140625 L 28.734375 -12.140625 L 21.65625 -29.328125 Z M 14.546875 -12.140625 "/></g></g></g></g></g></g></svg>