<svg xmlns="http://www.w3.org/2000/svg" xmlns:xlink="http://www.w3.org/1999/xlink" width="300" zoomAndPan="magnify" viewBox="0 0 224.87999 112.499997" height="150" preserveAspectRatio="xMidYMid meet" version="1.0"><defs><g/><clipPath id="4e946f35e6"><path d="M 0.4375 4 L 224 4 L 224 105 L 0.4375 105 Z M 0.4375 4 " clip-rule="nonzero"/></clipPath><clipPath id="84ab11458d"><path d="M 76 0.0625 L 223.367188 0.0625 L 223.367188 100.414062 L 76 100.414062 Z M 76 0.0625 " clip-rule="nonzero"/></clipPath><clipPath id="4575d3ab84"><rect x="0" width="148" y="0" height="101"/></clipPath><clipPath id="15143fcfcd"><path d="M 2.488281 11.742188 L 73.386719 11.742188 L 73.386719 82.640625 L 2.488281 82.640625 Z M 2.488281 11.742188 " clip-rule="nonzero"/></clipPath><clipPath id="6c06d7a8db"><path d="M 73.367188 47.191406 C 73.367188 66.757812 57.503906 82.621094 37.9375 82.621094 L 37.9375 81.300781 L 37.9375 82.621094 C 18.371094 82.621094 2.507812 66.757812 2.507812 47.191406 L 3.828125 47.191406 L 2.507812 47.191406 C 2.507812 27.625 18.371094 11.761719 37.9375 11.761719 L 37.9375 13.082031 L 37.9375 11.761719 C 57.503906 11.761719 73.367188 27.625 73.367188 47.191406 L 72.046875 47.191406 L 73.367188 47.191406 M 70.726562 47.191406 C 70.726562 29.085938 56.046875 14.40625 37.941406 14.40625 C 19.835938 14.40625 5.15625 29.085938 5.15625 47.191406 C 5.15625 65.296875 19.835938 79.976562 37.941406 79.976562 C 56.046875 79.976562 70.726562 65.296875 70.726562 47.191406 Z M 70.726562 47.191406 " clip-rule="nonzero"/></clipPath><clipPath id="2d27e7c8dd"><path d="M 0.488281 0.742188 L 71.386719 0.742188 L 71.386719 71.640625 L 0.488281 71.640625 Z M 0.488281 0.742188 " clip-rule="nonzero"/></clipPath><clipPath id="fc7688f3e1"><path d="M 71.367188 36.191406 C 71.367188 55.757812 55.503906 71.621094 35.9375 71.621094 L 35.9375 70.300781 L 35.9375 71.621094 C 16.371094 71.621094 0.507812 55.757812 0.507812 36.191406 L 1.828125 36.191406 L 0.507812 36.191406 C 0.507812 16.625 16.371094 0.761719 35.9375 0.761719 L 35.9375 2.082031 L 35.9375 0.761719 C 55.503906 0.761719 71.367188 16.625 71.367188 36.191406 L 70.046875 36.191406 L 71.367188 36.191406 M 68.726562 36.191406 C 68.726562 18.085938 54.046875 3.40625 35.941406 3.40625 C 17.835938 3.40625 3.15625 18.085938 3.15625 36.191406 C 3.15625 54.296875 17.835938 68.976562 35.941406 68.976562 C 54.046875 68.976562 68.726562 54.296875 68.726562 36.191406 Z M 68.726562 36.191406 " clip-rule="nonzero"/></clipPath><clipPath id="b54aa1366a"><rect x="0" width="72" y="0" height="72"/></clipPath><clipPath id="09ea2062e7"><path d="M 17.136719 12.328125 L 58.445312 12.328125 L 58.445312 82.054688 L 17.136719 82.054688 Z M 17.136719 12.328125 " clip-rule="nonzero"/></clipPath><clipPath id="4c4e88cec2"><path d="M 58.421875 47.191406 C 58.421875 65.894531 49.609375 82.042969 37.8125 82.042969 L 37.8125 81.050781 L 37.8125 82.042969 C 26.015625 82.042969 17.207031 65.894531 17.207031 47.191406 L 18.195312 47.191406 L 17.207031 47.191406 C 17.207031 28.488281 26.015625 12.339844 37.8125 12.339844 L 37.8125 13.328125 L 37.8125 12.339844 C 49.609375 12.339844 58.421875 28.488281 58.421875 47.191406 L 57.429688 47.191406 L 58.421875 47.191406 M 56.4375 47.191406 C 56.4375 28.492188 47.683594 14.324219 37.8125 14.324219 C 27.945312 14.324219 19.191406 28.492188 19.191406 47.191406 C 19.191406 65.890625 27.945312 80.058594 37.8125 80.058594 C 47.683594 80.058594 56.4375 65.886719 56.4375 47.191406 Z M 56.4375 47.191406 " clip-rule="nonzero"/></clipPath><clipPath id="d171b89176"><path d="M 0.164062 0.328125 L 41.445312 0.328125 L 41.445312 70.054688 L 0.164062 70.054688 Z M 0.164062 0.328125 " clip-rule="nonzero"/></clipPath><clipPath id="0279e536f8"><path d="M 41.421875 35.191406 C 41.421875 53.894531 32.609375 70.042969 20.8125 70.042969 L 20.8125 69.050781 L 20.8125 70.042969 C 9.015625 70.042969 0.207031 53.894531 0.207031 35.191406 L 1.195312 35.191406 L 0.207031 35.191406 C 0.207031 16.488281 9.015625 0.339844 20.8125 0.339844 L 20.8125 1.328125 L 20.8125 0.339844 C 32.609375 0.339844 41.421875 16.488281 41.421875 35.191406 L 40.429688 35.191406 L 41.421875 35.191406 M 39.4375 35.191406 C 39.4375 16.492188 30.683594 2.324219 20.8125 2.324219 C 10.945312 2.324219 2.191406 16.492188 2.191406 35.191406 C 2.191406 53.890625 10.945312 68.058594 20.8125 68.058594 C 30.683594 68.058594 39.4375 53.886719 39.4375 35.191406 Z M 39.4375 35.191406 " clip-rule="nonzero"/></clipPath><clipPath id="aa376ca68c"><rect x="0" width="42" y="0" height="71"/></clipPath><clipPath id="153c65a24c"><path d="M 13.328125 12.035156 L 62.253906 12.035156 L 62.253906 39.574219 L 13.328125 39.574219 Z M 13.328125 12.035156 " clip-rule="nonzero"/></clipPath><clipPath id="e223180a92"><path d="M 62.214844 25.785156 C 62.214844 33.773438 50.714844 39.425781 37.894531 39.425781 L 37.894531 38.4375 L 37.894531 39.425781 C 25.070312 39.425781 13.578125 33.769531 13.578125 25.785156 L 14.566406 25.785156 L 13.578125 25.785156 C 13.578125 17.796875 25.078125 12.144531 37.894531 12.144531 L 37.894531 13.136719 L 37.894531 12.144531 C 50.71875 12.144531 62.214844 17.800781 62.214844 25.785156 L 61.226562 25.785156 L 62.214844 25.785156 M 60.234375 25.785156 C 60.234375 19.800781 50.839844 14.125 37.890625 14.125 C 24.945312 14.125 15.554688 19.800781 15.554688 25.785156 C 15.554688 31.773438 24.949219 37.445312 37.894531 37.445312 C 50.84375 37.445312 60.238281 31.773438 60.238281 25.785156 Z M 60.234375 25.785156 " clip-rule="nonzero"/></clipPath><clipPath id="3850f30a4a"><path d="M 0.339844 0.0351562 L 49.253906 0.0351562 L 49.253906 27.488281 L 0.339844 27.488281 Z M 0.339844 0.0351562 " clip-rule="nonzero"/></clipPath><clipPath id="a35a527655"><path d="M 49.214844 13.785156 C 49.214844 21.773438 37.714844 27.425781 24.894531 27.425781 L 24.894531 26.4375 L 24.894531 27.425781 C 12.070312 27.425781 0.578125 21.769531 0.578125 13.785156 L 1.566406 13.785156 L 0.578125 13.785156 C 0.578125 5.796875 12.078125 0.144531 24.894531 0.144531 L 24.894531 1.136719 L 24.894531 0.144531 C 37.71875 0.144531 49.214844 5.800781 49.214844 13.785156 L 48.226562 13.785156 L 49.214844 13.785156 M 47.234375 13.785156 C 47.234375 7.800781 37.839844 2.125 24.890625 2.125 C 11.945312 2.125 2.554688 7.800781 2.554688 13.785156 C 2.554688 19.773438 11.949219 25.445312 24.894531 25.445312 C 37.84375 25.445312 47.238281 19.773438 47.238281 13.785156 Z M 47.234375 13.785156 " clip-rule="nonzero"/></clipPath><clipPath id="ab21beedd0"><rect x="0" width="50" y="0" height="28"/></clipPath><clipPath id="795e57f8c5"><path d="M 3.367188 12.035156 L 73 12.035156 L 73 71.214844 L 3.367188 71.214844 Z M 3.367188 12.035156 " clip-rule="nonzero"/></clipPath><clipPath id="b376049e05"><path d="M 72.976562 44.769531 C 72.976562 61.371094 56.457031 71.082031 37.8125 71.082031 L 37.8125 70.066406 L 37.8125 71.082031 C 19.128906 71.082031 3.558594 61.339844 3.558594 44.769531 L 4.574219 44.769531 L 3.558594 44.769531 C 3.558594 28.46875 18.8125 12.070312 37.8125 12.070312 L 37.8125 13.082031 L 37.8125 12.066406 C 56.78125 12.066406 72.976562 28.429688 72.976562 44.765625 L 71.960938 44.765625 L 72.976562 44.765625 M 70.945312 44.765625 C 70.945312 29.632812 55.746094 14.089844 37.808594 14.089844 C 19.910156 14.089844 5.582031 29.597656 5.582031 44.765625 C 5.582031 59.664062 19.59375 69.046875 37.808594 69.046875 C 56.0625 69.046875 70.945312 59.632812 70.945312 44.765625 Z M 70.945312 44.765625 " clip-rule="nonzero"/></clipPath><clipPath id="e231fc3684"><path d="M 0.542969 0.0351562 L 70 0.0351562 L 70 59.214844 L 0.542969 59.214844 Z M 0.542969 0.0351562 " clip-rule="nonzero"/></clipPath><clipPath id="24fc5c0918"><path d="M 69.976562 32.769531 C 69.976562 49.371094 53.457031 59.082031 34.8125 59.082031 L 34.8125 58.066406 L 34.8125 59.082031 C 16.128906 59.082031 0.558594 49.339844 0.558594 32.769531 L 1.574219 32.769531 L 0.558594 32.769531 C 0.558594 16.46875 15.8125 0.0703125 34.8125 0.0703125 L 34.8125 1.082031 L 34.8125 0.0664062 C 53.78125 0.0664062 69.976562 16.429688 69.976562 32.765625 L 68.960938 32.765625 L 69.976562 32.765625 M 67.945312 32.765625 C 67.945312 17.632812 52.746094 2.089844 34.808594 2.089844 C 16.910156 2.089844 2.582031 17.597656 2.582031 32.765625 C 2.582031 47.664062 16.59375 57.046875 34.808594 57.046875 C 53.0625 57.046875 67.945312 47.632812 67.945312 32.765625 Z M 67.945312 32.765625 " clip-rule="nonzero"/></clipPath><clipPath id="3f1a172c7c"><rect x="0" width="70" y="0" height="60"/></clipPath><clipPath id="830e00c747"><path d="M 3.367188 27.5625 L 76.902344 27.5625 L 76.902344 63.597656 L 3.367188 63.597656 Z M 3.367188 27.5625 " clip-rule="nonzero"/></clipPath><clipPath id="026157e32e"><path d="M 9.039062 48.136719 C 9.71875 49.144531 10.488281 50.203125 11.339844 51.265625 L 9.925781 52.402344 C 9.035156 51.296875 8.238281 50.195312 7.53125 49.148438 Z M 13.90625 54.152344 C 14.796875 55.054688 15.75 55.929688 16.769531 56.742188 L 15.628906 58.164062 C 14.550781 57.304688 13.542969 56.382812 12.609375 55.429688 Z M 19.917969 58.914062 C 21.007812 59.546875 22.152344 60.097656 23.355469 60.542969 L 22.730469 62.246094 C 21.421875 61.765625 20.179688 61.171875 19.003906 60.488281 Z M 27.011719 61.488281 C 27.9375 61.632812 28.894531 61.707031 29.875 61.707031 L 29.875 62.613281 L 29.875 61.707031 C 30.171875 61.707031 30.46875 61.699219 30.777344 61.6875 L 30.863281 63.5 C 30.53125 63.519531 30.199219 63.527344 29.878906 63.527344 C 28.800781 63.527344 27.753906 63.441406 26.734375 63.285156 Z M 34.53125 61.148438 C 35.707031 60.871094 36.917969 60.484375 38.167969 59.96875 L 38.855469 61.652344 C 37.523438 62.195312 36.21875 62.613281 34.949219 62.917969 Z M 41.625 58.28125 C 42.46875 57.800781 43.332031 57.265625 44.203125 56.675781 L 44.714844 57.429688 L 44.203125 56.675781 C 44.4375 56.519531 44.664062 56.359375 44.886719 56.199219 L 45.941406 57.679688 C 45.703125 57.847656 45.46875 58.011719 45.222656 58.175781 C 44.308594 58.796875 43.410156 59.355469 42.519531 59.863281 Z M 47.90625 53.792969 C 48.933594 52.875 49.816406 51.953125 50.566406 51.046875 L 51.964844 52.203125 C 51.15625 53.179688 50.203125 54.171875 49.117188 55.144531 Z M 52.648438 47.929688 C 53.304688 46.621094 53.570312 45.480469 53.515625 44.582031 L 55.328125 44.484375 C 55.402344 45.800781 55.011719 47.257812 54.273438 48.738281 Z M 51.933594 42.234375 C 51.929688 42.230469 51.925781 42.230469 51.921875 42.226562 C 50.476562 41.546875 49.40625 41.398438 48.636719 41.519531 L 48.359375 39.722656 C 49.597656 39.53125 51.046875 39.804688 52.695312 40.585938 L 52.304688 41.402344 L 52.695312 40.585938 C 52.703125 40.589844 52.707031 40.59375 52.714844 40.59375 Z M 46.605469 43.410156 C 46.304688 44.394531 46.34375 45.621094 46.734375 46.757812 L 45.015625 47.34375 C 44.523438 45.902344 44.441406 44.273438 44.871094 42.878906 Z M 48.757812 49.351562 C 49.789062 50.027344 50.917969 50.574219 52.113281 51 L 51.503906 52.710938 C 50.1875 52.242188 48.929688 51.632812 47.761719 50.867188 Z M 55.785156 51.914062 C 57.039062 52.109375 58.316406 52.195312 59.597656 52.191406 L 59.601562 54.007812 C 58.234375 54.011719 56.859375 53.917969 55.507812 53.710938 Z M 63.421875 51.914062 C 64.730469 51.726562 65.988281 51.449219 67.167969 51.097656 L 67.683594 52.839844 C 66.417969 53.21875 65.074219 53.511719 63.679688 53.710938 Z M 70.679688 49.710938 C 71.929688 49.066406 72.933594 48.34375 73.632812 47.59375 L 74.964844 48.832031 C 74.085938 49.777344 72.894531 50.617188 71.519531 51.328125 Z M 74.886719 44.527344 C 75.03125 43.242188 74.988281 42.003906 74.789062 40.828125 L 76.582031 40.527344 C 76.808594 41.863281 76.859375 43.269531 76.691406 44.726562 Z M 73.679688 37.292969 C 73.144531 36.152344 72.472656 35.085938 71.703125 34.117188 L 73.125 32.988281 C 73.976562 34.0625 74.726562 35.246094 75.324219 36.527344 Z M 69.058594 31.441406 C 68.039062 30.605469 66.96875 29.917969 65.914062 29.394531 L 66.71875 27.769531 C 67.898438 28.351562 69.085938 29.117188 70.210938 30.03125 Z M 5.242188 41.382812 L 4.40625 41.738281 L 5.242188 41.382812 C 5.242188 41.382812 5.835938 42.773438 6.996094 44.824219 L 5.414062 45.71875 C 4.214844 43.59375 3.59375 42.140625 3.574219 42.09375 Z M 5.242188 41.382812 " clip-rule="nonzero"/></clipPath><clipPath id="c1bb683ae8"><path d="M 0.542969 0.5625 L 73.898438 0.5625 L 73.898438 36.597656 L 0.542969 36.597656 Z M 0.542969 0.5625 " clip-rule="nonzero"/></clipPath><clipPath id="166944b69b"><path d="M 6.039062 21.136719 C 6.71875 22.144531 7.488281 23.203125 8.339844 24.265625 L 6.925781 25.402344 C 6.035156 24.296875 5.238281 23.195312 4.53125 22.148438 Z M 10.90625 27.152344 C 11.796875 28.054688 12.75 28.929688 13.769531 29.742188 L 12.628906 31.164062 C 11.550781 30.304688 10.542969 29.382812 9.609375 28.429688 Z M 16.917969 31.914062 C 18.007812 32.546875 19.152344 33.097656 20.355469 33.542969 L 19.730469 35.246094 C 18.421875 34.765625 17.179688 34.171875 16.003906 33.488281 Z M 24.011719 34.488281 C 24.9375 34.632812 25.894531 34.707031 26.875 34.707031 L 26.875 35.613281 L 26.875 34.707031 C 27.171875 34.707031 27.46875 34.699219 27.777344 34.6875 L 27.863281 36.5 C 27.53125 36.519531 27.199219 36.527344 26.878906 36.527344 C 25.800781 36.527344 24.753906 36.441406 23.734375 36.285156 Z M 31.53125 34.148438 C 32.707031 33.871094 33.917969 33.484375 35.167969 32.96875 L 35.855469 34.652344 C 34.523438 35.195312 33.21875 35.613281 31.949219 35.917969 Z M 38.625 31.28125 C 39.46875 30.800781 40.332031 30.265625 41.203125 29.675781 L 41.714844 30.429688 L 41.203125 29.675781 C 41.4375 29.519531 41.664062 29.359375 41.886719 29.199219 L 42.941406 30.679688 C 42.703125 30.847656 42.46875 31.011719 42.222656 31.175781 C 41.308594 31.796875 40.410156 32.355469 39.519531 32.863281 Z M 44.90625 26.792969 C 45.933594 25.875 46.816406 24.953125 47.566406 24.046875 L 48.964844 25.203125 C 48.15625 26.179688 47.203125 27.171875 46.117188 28.144531 Z M 49.648438 20.929688 C 50.304688 19.621094 50.570312 18.480469 50.515625 17.582031 L 52.328125 17.484375 C 52.402344 18.800781 52.011719 20.257812 51.273438 21.738281 Z M 48.933594 15.234375 C 48.929688 15.230469 48.925781 15.230469 48.921875 15.226562 C 47.476562 14.546875 46.40625 14.398438 45.636719 14.519531 L 45.359375 12.722656 C 46.597656 12.53125 48.046875 12.804688 49.695312 13.585938 L 49.304688 14.402344 L 49.695312 13.585938 C 49.703125 13.589844 49.707031 13.59375 49.714844 13.59375 Z M 43.605469 16.410156 C 43.304688 17.394531 43.34375 18.621094 43.734375 19.757812 L 42.015625 20.34375 C 41.523438 18.902344 41.441406 17.273438 41.871094 15.878906 Z M 45.757812 22.351562 C 46.789062 23.027344 47.917969 23.574219 49.113281 24 L 48.503906 25.710938 C 47.1875 25.242188 45.929688 24.632812 44.761719 23.867188 Z M 52.785156 24.914062 C 54.039062 25.109375 55.316406 25.195312 56.597656 25.191406 L 56.601562 27.007812 C 55.234375 27.011719 53.859375 26.917969 52.507812 26.710938 Z M 60.421875 24.914062 C 61.730469 24.726562 62.988281 24.449219 64.167969 24.097656 L 64.683594 25.839844 C 63.417969 26.21875 62.074219 26.511719 60.679688 26.710938 Z M 67.679688 22.710938 C 68.929688 22.066406 69.933594 21.34375 70.632812 20.59375 L 71.964844 21.832031 C 71.085938 22.777344 69.894531 23.617188 68.519531 24.328125 Z M 71.886719 17.527344 C 72.03125 16.242188 71.988281 15.003906 71.789062 13.828125 L 73.582031 13.527344 C 73.808594 14.863281 73.859375 16.269531 73.691406 17.726562 Z M 70.679688 10.292969 C 70.144531 9.152344 69.472656 8.085938 68.703125 7.117188 L 70.125 5.988281 C 70.976562 7.0625 71.726562 8.246094 72.324219 9.527344 Z M 66.058594 4.441406 C 65.039062 3.605469 63.96875 2.917969 62.914062 2.394531 L 63.71875 0.769531 C 64.898438 1.351562 66.085938 2.117188 67.210938 3.03125 Z M 2.242188 14.382812 L 1.40625 14.738281 L 2.242188 14.382812 C 2.242188 14.382812 2.835938 15.773438 3.996094 17.824219 L 2.414062 18.71875 C 1.214844 16.59375 0.59375 15.140625 0.574219 15.09375 Z M 2.242188 14.382812 " clip-rule="nonzero"/></clipPath><clipPath id="434417d9c1"><rect x="0" width="74" y="0" height="37"/></clipPath><clipPath id="737213650d"><path d="M 31.199219 53.636719 L 36.179688 53.636719 L 36.179688 58.617188 L 31.199219 58.617188 Z M 31.199219 53.636719 " clip-rule="nonzero"/></clipPath><clipPath id="f10da79071"><path d="M 31.957031 53.898438 C 31.945312 53.871094 33.167969 56.417969 36.050781 57.707031 L 35.714844 58.460938 C 32.5625 57.050781 31.226562 54.28125 31.214844 54.257812 Z M 31.957031 53.898438 " clip-rule="nonzero"/></clipPath><clipPath id="d8c2a1605a"><path d="M 0.199219 0.824219 L 5.179688 0.824219 L 5.179688 5.601562 L 0.199219 5.601562 Z M 0.199219 0.824219 " clip-rule="nonzero"/></clipPath><clipPath id="76408a07ad"><path d="M 0.957031 0.898438 C 0.945312 0.871094 2.167969 3.417969 5.050781 4.707031 L 4.714844 5.460938 C 1.5625 4.050781 0.226562 1.28125 0.214844 1.257812 Z M 0.957031 0.898438 " clip-rule="nonzero"/></clipPath><clipPath id="b2a97fa965"><rect x="0" width="6" y="0" height="6"/></clipPath><clipPath id="4ba4a13634"><path d="M 30.027344 55.101562 L 34.421875 55.101562 L 34.421875 59.203125 L 30.027344 59.203125 Z M 30.027344 55.101562 " clip-rule="nonzero"/></clipPath><clipPath id="26d21c046b"><path d="M 31.023438 55.140625 C 31.015625 55.113281 31.855469 57.4375 34.351562 58.316406 L 34.078125 59.097656 C 31.210938 58.085938 30.257812 55.445312 30.25 55.421875 Z M 31.023438 55.140625 " clip-rule="nonzero"/></clipPath><clipPath id="9b1614e8fb"><path d="M 0.0664062 0.101562 L 4.367188 0.101562 L 4.367188 4.203125 L 0.0664062 4.203125 Z M 0.0664062 0.101562 " clip-rule="nonzero"/></clipPath><clipPath id="d676d82eb7"><path d="M 1.023438 0.140625 C 1.015625 0.113281 1.855469 2.4375 4.351562 3.316406 L 4.078125 4.097656 C 1.210938 3.085938 0.257812 0.445312 0.25 0.421875 Z M 1.023438 0.140625 " clip-rule="nonzero"/></clipPath><clipPath id="64d1f2f979"><rect x="0" width="5" y="0" height="5"/></clipPath><clipPath id="83a3c18505"><path d="M 30 50.707031 L 38.523438 50.707031 L 38.523438 59.496094 L 30 59.496094 Z M 30 50.707031 " clip-rule="nonzero"/></clipPath><clipPath id="78d8147566"><path d="M 35.484375 51.644531 C 34.476562 51.480469 33.3125 51.855469 32.46875 52.777344 C 31.074219 54.289062 30.304688 57.234375 31.332031 58.183594 L 31.050781 58.484375 L 31.332031 58.183594 C 32.363281 59.128906 35.273438 58.152344 36.664062 56.644531 C 37.492188 55.75 37.78125 54.597656 37.566406 53.621094 L 38.371094 53.441406 C 38.648438 54.699219 38.269531 56.128906 37.269531 57.207031 L 36.96875 56.925781 L 37.269531 57.207031 C 35.878906 58.714844 32.394531 60.289062 30.773438 58.792969 C 29.148438 57.300781 30.476562 53.722656 31.863281 52.222656 L 32.167969 52.503906 L 31.863281 52.222656 C 32.886719 51.117188 34.320312 50.621094 35.625 50.839844 Z M 35.484375 51.644531 " clip-rule="nonzero"/></clipPath><clipPath id="623c36f5d5"><path d="M 0 0.707031 L 8.523438 0.707031 L 8.523438 9.496094 L 0 9.496094 Z M 0 0.707031 " clip-rule="nonzero"/></clipPath><clipPath id="1dab45bf20"><path d="M 5.484375 1.644531 C 4.476562 1.480469 3.3125 1.855469 2.46875 2.777344 C 1.074219 4.289062 0.304688 7.234375 1.332031 8.183594 L 1.050781 8.484375 L 1.332031 8.183594 C 2.363281 9.128906 5.273438 8.152344 6.664062 6.644531 C 7.492188 5.75 7.78125 4.597656 7.566406 3.621094 L 8.371094 3.441406 C 8.648438 4.699219 8.269531 6.128906 7.269531 7.207031 L 6.96875 6.925781 L 7.269531 7.207031 C 5.878906 8.714844 2.394531 10.289062 0.773438 8.792969 C -0.851562 7.300781 0.476562 3.722656 1.863281 2.222656 L 2.167969 2.503906 L 1.863281 2.222656 C 2.886719 1.117188 4.320312 0.621094 5.625 0.839844 Z M 5.484375 1.644531 " clip-rule="nonzero"/></clipPath><clipPath id="d16e710b6c"><rect x="0" width="9" y="0" height="10"/></clipPath><clipPath id="31de21f477"><path d="M 35.007812 48.65625 L 40.574219 48.65625 L 40.574219 54 L 35.007812 54 Z M 35.007812 48.65625 " clip-rule="nonzero"/></clipPath><clipPath id="123428e7ad"><path d="M 37.921875 53.113281 C 38.335938 53.070312 38.734375 52.882812 39.035156 52.554688 L 39.335938 52.835938 L 39.035156 52.554688 C 39.695312 51.835938 39.65625 50.714844 38.933594 50.050781 L 39.21875 49.75 L 38.933594 50.050781 C 38.214844 49.390625 37.09375 49.429688 36.429688 50.152344 C 36.136719 50.464844 35.984375 50.859375 35.964844 51.261719 L 35.550781 51.238281 L 35.617188 50.835938 C 36.257812 50.941406 36.863281 51.21875 37.363281 51.679688 C 37.886719 52.164062 38.21875 52.78125 38.367188 53.441406 L 37.964844 53.53125 L 37.921875 53.125 M 38.007812 53.941406 L 37.640625 53.980469 L 37.5625 53.621094 C 37.445312 53.105469 37.191406 52.644531 36.804688 52.28125 L 37.085938 51.980469 L 36.804688 52.28125 C 36.429688 51.9375 35.976562 51.726562 35.484375 51.644531 L 35.117188 51.582031 L 35.140625 51.214844 C 35.167969 50.632812 35.394531 50.054688 35.828125 49.59375 L 36.128906 49.875 L 35.828125 49.59375 C 36.800781 48.535156 38.441406 48.46875 39.5 49.441406 C 40.554688 50.414062 40.621094 52.058594 39.648438 53.113281 C 39.203125 53.59375 38.617188 53.871094 38.011719 53.933594 Z M 38.007812 53.941406 " clip-rule="nonzero"/></clipPath><clipPath id="f010dc94f3"><path d="M 0.0820312 0.65625 L 5.574219 0.65625 L 5.574219 6 L 0.0820312 6 Z M 0.0820312 0.65625 " clip-rule="nonzero"/></clipPath><clipPath id="f8e9c5101b"><path d="M 2.921875 5.113281 C 3.335938 5.070312 3.734375 4.882812 4.035156 4.554688 L 4.335938 4.835938 L 4.035156 4.554688 C 4.695312 3.835938 4.65625 2.714844 3.933594 2.050781 L 4.21875 1.75 L 3.933594 2.050781 C 3.214844 1.390625 2.09375 1.429688 1.429688 2.152344 C 1.136719 2.464844 0.984375 2.859375 0.964844 3.261719 L 0.550781 3.238281 L 0.617188 2.835938 C 1.257812 2.941406 1.863281 3.21875 2.363281 3.679688 C 2.886719 4.164062 3.21875 4.78125 3.367188 5.441406 L 2.964844 5.53125 L 2.921875 5.125 M 3.007812 5.941406 L 2.640625 5.980469 L 2.5625 5.621094 C 2.445312 5.105469 2.191406 4.644531 1.804688 4.28125 L 2.085938 3.980469 L 1.804688 4.28125 C 1.429688 3.9375 0.976562 3.726562 0.484375 3.644531 L 0.117188 3.582031 L 0.140625 3.214844 C 0.167969 2.632812 0.394531 2.054688 0.828125 1.59375 L 1.128906 1.875 L 0.828125 1.59375 C 1.800781 0.535156 3.441406 0.46875 4.5 1.441406 C 5.554688 2.414062 5.621094 4.058594 4.648438 5.113281 C 4.203125 5.59375 3.617188 5.871094 3.011719 5.933594 Z M 3.007812 5.941406 " clip-rule="nonzero"/></clipPath><clipPath id="0332e717b4"><rect x="0" width="6" y="0" height="6"/></clipPath><clipPath id="e2db206cc0"><path d="M 35.300781 50.707031 L 38.523438 50.707031 L 38.523438 53.636719 L 35.300781 53.636719 Z M 35.300781 50.707031 " clip-rule="nonzero"/></clipPath><clipPath id="d14ccec91e"><path d="M 37.566406 53.617188 C 37.449219 53.101562 37.195312 52.640625 36.808594 52.277344 L 37.089844 51.976562 L 36.808594 52.277344 C 36.433594 51.933594 35.980469 51.722656 35.488281 51.640625 L 35.625 50.824219 C 36.265625 50.933594 36.871094 51.210938 37.371094 51.671875 C 37.894531 52.15625 38.226562 52.769531 38.375 53.433594 Z M 37.566406 53.617188 " clip-rule="nonzero"/></clipPath><clipPath id="aa1973a4d5"><path d="M 0.324219 0.71875 L 3.429688 0.71875 L 3.429688 3.636719 L 0.324219 3.636719 Z M 0.324219 0.71875 " clip-rule="nonzero"/></clipPath><clipPath id="7a1883d852"><path d="M 2.566406 3.617188 C 2.449219 3.101562 2.195312 2.640625 1.808594 2.277344 L 2.089844 1.976562 L 1.808594 2.277344 C 1.433594 1.933594 0.980469 1.722656 0.488281 1.640625 L 0.625 0.824219 C 1.265625 0.933594 1.871094 1.210938 2.371094 1.671875 C 2.894531 2.15625 3.226562 2.769531 3.375 3.433594 Z M 2.566406 3.617188 " clip-rule="nonzero"/></clipPath><clipPath id="d8e6ca6a9e"><rect x="0" width="4" y="0" height="4"/></clipPath><clipPath id="44a5871c3a"><path d="M 29.441406 45.140625 L 36.472656 45.140625 L 36.472656 54.808594 L 29.441406 54.808594 Z M 29.441406 45.140625 " clip-rule="nonzero"/></clipPath><clipPath id="ff85fd640e"><path d="M 31.617188 45.273438 C 33.597656 44.765625 35.597656 49.351562 36.089844 51.273438 C 36.730469 53.761719 35.40625 54.320312 33.839844 54.71875 C 33.839844 54.71875 33.835938 54.71875 33.835938 54.71875 L 33.730469 54.316406 L 33.835938 54.71875 C 32.25 55.121094 30.242188 53.90625 29.738281 51.929688 C 29.675781 51.683594 29.632812 51.425781 29.621094 51.152344 L 30.035156 51.132812 L 29.621094 51.152344 C 29.5 48.703125 29.734375 45.753906 31.617188 45.269531 L 31.71875 45.671875 L 31.617188 45.269531 M 31.820312 46.070312 C 30.710938 46.355469 30.308594 48.382812 30.441406 51.105469 C 30.453125 51.324219 30.484375 51.523438 30.53125 51.71875 C 30.941406 53.320312 32.546875 54.1875 33.628906 53.910156 C 33.628906 53.910156 33.632812 53.910156 33.632812 53.910156 C 35.0625 53.546875 35.746094 53.261719 35.289062 51.46875 L 35.691406 51.363281 L 35.289062 51.46875 C 34.683594 49.109375 32.828125 45.804688 31.820312 46.066406 Z M 31.820312 46.070312 " clip-rule="nonzero"/></clipPath><clipPath id="3344ec233f"><path d="M 0.441406 0.140625 L 7.472656 0.140625 L 7.472656 9.808594 L 0.441406 9.808594 Z M 0.441406 0.140625 " clip-rule="nonzero"/></clipPath><clipPath id="abc0c0e1e5"><path d="M 2.617188 0.273438 C 4.597656 -0.234375 6.597656 4.351562 7.089844 6.273438 C 7.730469 8.761719 6.40625 9.320312 4.839844 9.71875 C 4.839844 9.71875 4.835938 9.71875 4.835938 9.71875 L 4.730469 9.316406 L 4.835938 9.71875 C 3.25 10.121094 1.242188 8.90625 0.738281 6.929688 C 0.675781 6.683594 0.632812 6.425781 0.621094 6.152344 L 1.035156 6.132812 L 0.621094 6.152344 C 0.5 3.703125 0.734375 0.753906 2.617188 0.269531 L 2.71875 0.671875 L 2.617188 0.269531 M 2.820312 1.070312 C 1.710938 1.355469 1.308594 3.382812 1.441406 6.105469 C 1.453125 6.324219 1.484375 6.523438 1.53125 6.71875 C 1.941406 8.320312 3.546875 9.1875 4.628906 8.910156 C 4.628906 8.910156 4.632812 8.910156 4.632812 8.910156 C 6.0625 8.546875 6.746094 8.261719 6.289062 6.46875 L 6.691406 6.363281 L 6.289062 6.46875 C 5.683594 4.109375 3.828125 0.804688 2.820312 1.066406 Z M 2.820312 1.070312 " clip-rule="nonzero"/></clipPath><clipPath id="00c460bd71"><rect x="0" width="8" y="0" height="10"/></clipPath><clipPath id="d2ab5f6bf0"><path d="M 34.128906 52.464844 L 43.796875 52.464844 L 43.796875 59.203125 L 34.128906 59.203125 Z M 34.128906 52.464844 " clip-rule="nonzero"/></clipPath><clipPath id="028dcb5c71"><path d="M 42.960938 56.679688 C 43.183594 55.660156 39.816406 53.921875 37.4375 53.40625 C 35.628906 53.011719 35.371094 53.707031 35.058594 55.152344 C 34.820312 56.242188 35.738281 57.8125 37.359375 58.164062 C 37.554688 58.207031 37.761719 58.230469 37.976562 58.234375 L 37.972656 58.648438 L 37.976562 58.234375 C 40.703125 58.273438 42.71875 57.796875 42.964844 56.679688 L 43.363281 56.765625 L 42.964844 56.679688 M 43.769531 56.855469 C 43.355469 58.757812 40.417969 59.097656 37.960938 59.0625 C 37.695312 59.058594 37.433594 59.03125 37.179688 58.972656 C 35.183594 58.539062 33.902344 56.570312 34.25 54.972656 L 34.652344 55.058594 L 34.25 54.972656 C 34.59375 53.394531 35.101562 52.050781 37.613281 52.597656 L 37.527344 53 L 37.613281 52.597656 C 39.550781 53.019531 44.203125 54.859375 43.765625 56.855469 Z M 43.769531 56.855469 " clip-rule="nonzero"/></clipPath><clipPath id="9181f203f4"><path d="M 0.128906 0.464844 L 9.796875 0.464844 L 9.796875 7.203125 L 0.128906 7.203125 Z M 0.128906 0.464844 " clip-rule="nonzero"/></clipPath><clipPath id="26c159dcf4"><path d="M 8.960938 4.679688 C 9.183594 3.660156 5.816406 1.921875 3.4375 1.40625 C 1.628906 1.011719 1.371094 1.707031 1.058594 3.152344 C 0.820312 4.242188 1.738281 5.8125 3.359375 6.164062 C 3.554688 6.207031 3.761719 6.230469 3.976562 6.234375 L 3.972656 6.648438 L 3.976562 6.234375 C 6.703125 6.273438 8.71875 5.796875 8.964844 4.679688 L 9.363281 4.765625 L 8.964844 4.679688 M 9.769531 4.855469 C 9.355469 6.757812 6.417969 7.097656 3.960938 7.0625 C 3.695312 7.058594 3.433594 7.03125 3.179688 6.972656 C 1.183594 6.539062 -0.0976562 4.570312 0.25 2.972656 L 0.652344 3.058594 L 0.25 2.972656 C 0.59375 1.394531 1.101562 0.0507812 3.613281 0.597656 L 3.527344 1 L 3.613281 0.597656 C 5.550781 1.019531 10.203125 2.859375 9.765625 4.855469 Z M 9.769531 4.855469 " clip-rule="nonzero"/></clipPath><clipPath id="5708f55fef"><rect x="0" width="10" y="0" height="8"/></clipPath><clipPath id="b03fffe2ba"><path d="M 39.695312 50.121094 L 42 50.121094 L 42 51.292969 L 39.695312 51.292969 Z M 39.695312 50.121094 " clip-rule="nonzero"/></clipPath><clipPath id="6c8c5fe74b"><path d="M 39.949219 50.34375 L 41.765625 50.214844 L 41.824219 51.035156 L 40.007812 51.167969 Z M 39.949219 50.34375 " clip-rule="nonzero"/></clipPath><clipPath id="4bc1616232"><path d="M 0.863281 0.121094 L 3 0.121094 L 3 1.195312 L 0.863281 1.195312 Z M 0.863281 0.121094 " clip-rule="nonzero"/></clipPath><clipPath id="1116c0fb04"><path d="M 0.949219 0.34375 L 2.765625 0.214844 L 2.824219 1.035156 L 1.007812 1.167969 Z M 0.949219 0.34375 " clip-rule="nonzero"/></clipPath><clipPath id="0dbf0c7f99"><rect x="0" width="3" y="0" height="2"/></clipPath><clipPath id="262e7e935a"><path d="M 37.644531 47.191406 L 38.816406 47.191406 L 38.816406 49.535156 L 37.644531 49.535156 Z M 37.644531 47.191406 " clip-rule="nonzero"/></clipPath><clipPath id="86977f7aab"><path d="M 37.8125 49.230469 L 37.859375 47.425781 L 38.683594 47.449219 L 38.636719 49.253906 Z M 37.8125 49.230469 " clip-rule="nonzero"/></clipPath><clipPath id="d69f8226a4"><path d="M 0.710938 0.371094 L 1.816406 0.371094 L 1.816406 2.28125 L 0.710938 2.28125 Z M 0.710938 0.371094 " clip-rule="nonzero"/></clipPath><clipPath id="3a93487239"><path d="M 0.8125 2.230469 L 0.859375 0.425781 L 1.683594 0.449219 L 1.636719 2.253906 Z M 0.8125 2.230469 " clip-rule="nonzero"/></clipPath><clipPath id="bbe6ab7e92"><rect x="0" width="2" y="0" height="3"/></clipPath><clipPath id="068fa2ded3"><path d="M 0.046875 0.664062 L 3 0.664062 L 3 6 L 0.046875 6 Z M 0.046875 0.664062 " clip-rule="nonzero"/></clipPath><clipPath id="2ecbe043ab"><path d="M 8 0.664062 L 13 0.664062 L 13 6 L 8 6 Z M 8 0.664062 " clip-rule="nonzero"/></clipPath><clipPath id="3e13412417"><path d="M 12 0.664062 L 17 0.664062 L 17 6 L 12 6 Z M 12 0.664062 " clip-rule="nonzero"/></clipPath><clipPath id="b02f5e2d21"><path d="M 16 0.664062 L 20 0.664062 L 20 6 L 16 6 Z M 16 0.664062 " clip-rule="nonzero"/></clipPath><clipPath id="332e311acd"><path d="M 20 0.664062 L 23 0.664062 L 23 6 L 20 6 Z M 20 0.664062 " clip-rule="nonzero"/></clipPath><clipPath id="ef9b9d5f0c"><path d="M 24 0.664062 L 29 0.664062 L 29 6 L 24 6 Z M 24 0.664062 " clip-rule="nonzero"/></clipPath><clipPath id="34f221014f"><path d="M 29 0.664062 L 33 0.664062 L 33 6 L 29 6 Z M 29 0.664062 " clip-rule="nonzero"/></clipPath><clipPath id="59dcf3eff6"><path d="M 33 0.664062 L 36 0.664062 L 36 6 L 33 6 Z M 33 0.664062 " clip-rule="nonzero"/></clipPath><clipPath id="076e517bd3"><rect x="0" width="37" y="0" height="7"/></clipPath><clipPath id="491d862c74"><rect x="0" width="224" y="0" height="101"/></clipPath></defs><g clip-path="url(#4e946f35e6)"><g transform="matrix(1, 0, 0, 1, 0, 4)"><g clip-path="url(#491d862c74)"><g clip-path="url(#84ab11458d)"><g transform="matrix(1, 0, 0, 1, 76, 0)"><g clip-path="url(#4575d3ab84)"><g fill="#003a81" fill-opacity="1"><g transform="translate(1.134198, 48.566515)"><g><path d="M 4.46875 -32.546875 L 13.671875 -32.546875 C 17.984375 -32.546875 21.101562 -31.898438 23.03125 -30.609375 C 24.96875 -29.316406 25.9375 -27.273438 25.9375 -24.484375 C 25.9375 -22.554688 25.394531 -20.960938 24.3125 -19.703125 C 23.238281 -18.453125 21.671875 -17.644531 19.609375 -17.28125 L 19.609375 -17.046875 C 24.554688 -16.203125 27.03125 -13.609375 27.03125 -9.265625 C 27.03125 -6.347656 26.046875 -4.070312 24.078125 -2.4375 C 22.109375 -0.8125 19.359375 0 15.828125 0 L 4.46875 0 Z M 8.265625 -18.609375 L 14.5 -18.609375 C 17.164062 -18.609375 19.082031 -19.023438 20.25 -19.859375 C 21.425781 -20.703125 22.015625 -22.117188 22.015625 -24.109375 C 22.015625 -25.929688 21.359375 -27.25 20.046875 -28.0625 C 18.742188 -28.875 16.671875 -29.28125 13.828125 -29.28125 L 8.265625 -29.28125 Z M 8.265625 -15.40625 L 8.265625 -3.234375 L 15.046875 -3.234375 C 17.671875 -3.234375 19.644531 -3.738281 20.96875 -4.75 C 22.300781 -5.769531 22.96875 -7.363281 22.96875 -9.53125 C 22.96875 -11.550781 22.289062 -13.035156 20.9375 -13.984375 C 19.582031 -14.929688 17.515625 -15.40625 14.734375 -15.40625 Z M 8.265625 -15.40625 "/></g></g></g><g fill="#003a81" fill-opacity="1"><g transform="translate(30.270007, 48.566515)"><g><path d="M 14.21875 0.4375 C 10.613281 0.4375 7.769531 -0.65625 5.6875 -2.84375 C 3.601562 -5.039062 2.5625 -8.09375 2.5625 -12 C 2.5625 -15.9375 3.53125 -19.0625 5.46875 -21.375 C 7.40625 -23.6875 10.003906 -24.84375 13.265625 -24.84375 C 16.328125 -24.84375 18.75 -23.835938 20.53125 -21.828125 C 22.3125 -19.816406 23.203125 -17.164062 23.203125 -13.875 L 23.203125 -11.53125 L 6.390625 -11.53125 C 6.460938 -8.664062 7.1875 -6.488281 8.5625 -5 C 9.9375 -3.519531 11.867188 -2.78125 14.359375 -2.78125 C 16.984375 -2.78125 19.582031 -3.332031 22.15625 -4.4375 L 22.15625 -1.140625 C 20.84375 -0.578125 19.601562 -0.175781 18.4375 0.0625 C 17.28125 0.3125 15.875 0.4375 14.21875 0.4375 Z M 13.21875 -21.75 C 11.257812 -21.75 9.695312 -21.109375 8.53125 -19.828125 C 7.375 -18.554688 6.691406 -16.789062 6.484375 -14.53125 L 19.234375 -14.53125 C 19.234375 -16.863281 18.710938 -18.648438 17.671875 -19.890625 C 16.640625 -21.128906 15.15625 -21.75 13.21875 -21.75 Z M 13.21875 -21.75 "/></g></g></g><g fill="#003a81" fill-opacity="1"><g transform="translate(55.44257, 48.566515)"><g><path d="M 14.21875 0.4375 C 10.613281 0.4375 7.769531 -0.65625 5.6875 -2.84375 C 3.601562 -5.039062 2.5625 -8.09375 2.5625 -12 C 2.5625 -15.9375 3.53125 -19.0625 5.46875 -21.375 C 7.40625 -23.6875 10.003906 -24.84375 13.265625 -24.84375 C 16.328125 -24.84375 18.75 -23.835938 20.53125 -21.828125 C 22.3125 -19.816406 23.203125 -17.164062 23.203125 -13.875 L 23.203125 -11.53125 L 6.390625 -11.53125 C 6.460938 -8.664062 7.1875 -6.488281 8.5625 -5 C 9.9375 -3.519531 11.867188 -2.78125 14.359375 -2.78125 C 16.984375 -2.78125 19.582031 -3.332031 22.15625 -4.4375 L 22.15625 -1.140625 C 20.84375 -0.578125 19.601562 -0.175781 18.4375 0.0625 C 17.28125 0.3125 15.875 0.4375 14.21875 0.4375 Z M 13.21875 -21.75 C 11.257812 -21.75 9.695312 -21.109375 8.53125 -19.828125 C 7.375 -18.554688 6.691406 -16.789062 6.484375 -14.53125 L 19.234375 -14.53125 C 19.234375 -16.863281 18.710938 -18.648438 17.671875 -19.890625 C 16.640625 -21.128906 15.15625 -21.75 13.21875 -21.75 Z M 13.21875 -21.75 "/></g></g></g><g fill="#003a81" fill-opacity="1"><g transform="translate(1.134198, 86.753745)"><g><path d="M 18.40625 -29.625 C 14.832031 -29.625 12.007812 -28.429688 9.9375 -26.046875 C 7.863281 -23.671875 6.828125 -20.414062 6.828125 -16.28125 C 6.828125 -12.019531 7.828125 -8.726562 9.828125 -6.40625 C 11.828125 -4.082031 14.671875 -2.921875 18.359375 -2.921875 C 20.628906 -2.921875 23.222656 -3.328125 26.140625 -4.140625 L 26.140625 -0.828125 C 23.878906 0.015625 21.09375 0.4375 17.78125 0.4375 C 12.988281 0.4375 9.289062 -1.015625 6.6875 -3.921875 C 4.082031 -6.828125 2.78125 -10.957031 2.78125 -16.3125 C 2.78125 -19.664062 3.40625 -22.601562 4.65625 -25.125 C 5.914062 -27.65625 7.726562 -29.601562 10.09375 -30.96875 C 12.457031 -32.332031 15.242188 -33.015625 18.453125 -33.015625 C 21.867188 -33.015625 24.851562 -32.390625 27.40625 -31.140625 L 25.796875 -27.890625 C 23.335938 -29.046875 20.875 -29.625 18.40625 -29.625 Z M 18.40625 -29.625 "/></g></g></g><g fill="#003a81" fill-opacity="1"><g transform="translate(29.490717, 86.753745)"><g><path d="M 24.984375 -12.21875 C 24.984375 -8.238281 23.976562 -5.132812 21.96875 -2.90625 C 19.96875 -0.675781 17.203125 0.4375 13.671875 0.4375 C 11.484375 0.4375 9.546875 -0.0703125 7.859375 -1.09375 C 6.171875 -2.113281 4.863281 -3.582031 3.9375 -5.5 C 3.019531 -7.414062 2.5625 -9.65625 2.5625 -12.21875 C 2.5625 -16.195312 3.554688 -19.296875 5.546875 -21.515625 C 7.535156 -23.734375 10.296875 -24.84375 13.828125 -24.84375 C 17.242188 -24.84375 19.957031 -23.707031 21.96875 -21.4375 C 23.976562 -19.164062 24.984375 -16.09375 24.984375 -12.21875 Z M 6.390625 -12.21875 C 6.390625 -9.101562 7.007812 -6.726562 8.25 -5.09375 C 9.5 -3.46875 11.335938 -2.65625 13.765625 -2.65625 C 16.179688 -2.65625 18.015625 -3.46875 19.265625 -5.09375 C 20.523438 -6.71875 21.15625 -9.09375 21.15625 -12.21875 C 21.15625 -15.320312 20.523438 -17.675781 19.265625 -19.28125 C 18.015625 -20.894531 16.164062 -21.703125 13.71875 -21.703125 C 11.289062 -21.703125 9.460938 -20.90625 8.234375 -19.3125 C 7.003906 -17.726562 6.390625 -15.363281 6.390625 -12.21875 Z M 6.390625 -12.21875 "/></g></g></g><g fill="#003a81" fill-opacity="1"><g transform="translate(56.622637, 86.753745)"><g><path d="M 35.015625 0 L 35.015625 -15.875 C 35.015625 -17.820312 34.597656 -19.28125 33.765625 -20.25 C 32.941406 -21.21875 31.65625 -21.703125 29.90625 -21.703125 C 27.601562 -21.703125 25.898438 -21.039062 24.796875 -19.71875 C 23.703125 -18.40625 23.15625 -16.375 23.15625 -13.625 L 23.15625 0 L 19.453125 0 L 19.453125 -15.875 C 19.453125 -17.820312 19.035156 -19.28125 18.203125 -20.25 C 17.378906 -21.21875 16.082031 -21.703125 14.3125 -21.703125 C 12 -21.703125 10.300781 -21.007812 9.21875 -19.625 C 8.144531 -18.238281 7.609375 -15.960938 7.609375 -12.796875 L 7.609375 0 L 3.921875 0 L 3.921875 -24.40625 L 6.921875 -24.40625 L 7.53125 -21.0625 L 7.703125 -21.0625 C 8.398438 -22.25 9.382812 -23.175781 10.65625 -23.84375 C 11.925781 -24.507812 13.347656 -24.84375 14.921875 -24.84375 C 18.734375 -24.84375 21.222656 -23.460938 22.390625 -20.703125 L 22.578125 -20.703125 C 23.304688 -21.984375 24.359375 -22.992188 25.734375 -23.734375 C 27.117188 -24.472656 28.691406 -24.84375 30.453125 -24.84375 C 33.210938 -24.84375 35.28125 -24.132812 36.65625 -22.71875 C 38.03125 -21.300781 38.71875 -19.035156 38.71875 -15.921875 L 38.71875 0 Z M 35.015625 0 "/></g></g></g><g fill="#ffd016" fill-opacity="1"><g transform="translate(98.629998, 86.753745)"><g><path d="M 14.21875 0.4375 C 10.613281 0.4375 7.769531 -0.65625 5.6875 -2.84375 C 3.601562 -5.039062 2.5625 -8.09375 2.5625 -12 C 2.5625 -15.9375 3.53125 -19.0625 5.46875 -21.375 C 7.40625 -23.6875 10.003906 -24.84375 13.265625 -24.84375 C 16.328125 -24.84375 18.75 -23.835938 20.53125 -21.828125 C 22.3125 -19.816406 23.203125 -17.164062 23.203125 -13.875 L 23.203125 -11.53125 L 6.390625 -11.53125 C 6.460938 -8.664062 7.1875 -6.488281 8.5625 -5 C 9.9375 -3.519531 11.867188 -2.78125 14.359375 -2.78125 C 16.984375 -2.78125 19.582031 -3.332031 22.15625 -4.4375 L 22.15625 -1.140625 C 20.84375 -0.578125 19.601562 -0.175781 18.4375 0.0625 C 17.28125 0.3125 15.875 0.4375 14.21875 0.4375 Z M 13.21875 -21.75 C 11.257812 -21.75 9.695312 -21.109375 8.53125 -19.828125 C 7.375 -18.554688 6.691406 -16.789062 6.484375 -14.53125 L 19.234375 -14.53125 C 19.234375 -16.863281 18.710938 -18.648438 17.671875 -19.890625 C 16.640625 -21.128906 15.15625 -21.75 13.21875 -21.75 Z M 13.21875 -21.75 "/></g></g></g><g fill="#ffd016" fill-opacity="1"><g transform="translate(123.802562, 86.753745)"><g><path d="M 9.796875 -12.484375 L 1.3125 -24.40625 L 5.515625 -24.40625 L 11.953125 -15.046875 L 18.359375 -24.40625 L 22.53125 -24.40625 L 14.046875 -12.484375 L 22.96875 0 L 18.796875 0 L 11.953125 -9.890625 L 5.046875 0 L 0.875 0 Z M 9.796875 -12.484375 "/></g></g></g></g></g></g><g clip-path="url(#15143fcfcd)"><g clip-path="url(#6c06d7a8db)"><g transform="matrix(1, 0, 0, 1, 2, 11)"><g clip-path="url(#b54aa1366a)"><g clip-path="url(#2d27e7c8dd)"><g clip-path="url(#fc7688f3e1)"><rect x="-83.856316" width="388.592623" fill="#003a81" y="-55.949999" height="194.399994" fill-opacity="1"/></g></g></g></g></g></g><g clip-path="url(#09ea2062e7)"><g clip-path="url(#4c4e88cec2)"><g transform="matrix(1, 0, 0, 1, 17, 12)"><g clip-path="url(#aa376ca68c)"><g clip-path="url(#d171b89176)"><g clip-path="url(#0279e536f8)"><rect x="-98.856316" width="388.592623" fill="#003a81" y="-56.949999" height="194.399994" fill-opacity="1"/></g></g></g></g></g></g><g clip-path="url(#153c65a24c)"><g clip-path="url(#e223180a92)"><g transform="matrix(1, 0, 0, 1, 13, 12)"><g clip-path="url(#ab21beedd0)"><g clip-path="url(#3850f30a4a)"><g clip-path="url(#a35a527655)"><rect x="-94.856316" width="388.592623" fill="#003a81" y="-56.949999" height="194.399994" fill-opacity="1"/></g></g></g></g></g></g><g clip-path="url(#795e57f8c5)"><g clip-path="url(#b376049e05)"><g transform="matrix(1, 0, 0, 1, 3, 12)"><g clip-path="url(#3f1a172c7c)"><g clip-path="url(#e231fc3684)"><g clip-path="url(#24fc5c0918)"><rect x="-84.856316" width="388.592623" fill="#003a81" y="-56.949999" height="194.399994" fill-opacity="1"/></g></g></g></g></g></g><g clip-path="url(#830e00c747)"><g clip-path="url(#026157e32e)"><g transform="matrix(1, 0, 0, 1, 3, 27)"><g clip-path="url(#434417d9c1)"><g clip-path="url(#c1bb683ae8)"><g clip-path="url(#166944b69b)"><rect x="-84.856316" width="388.592623" fill="#003a81" y="-71.949999" height="194.399994" fill-opacity="1"/></g></g></g></g></g></g><g clip-path="url(#737213650d)"><g clip-path="url(#f10da79071)"><g transform="matrix(1, 0, 0, 1, 31, 53)"><g clip-path="url(#b2a97fa965)"><g clip-path="url(#d8c2a1605a)"><g clip-path="url(#76408a07ad)"><rect x="-112.856316" width="388.592623" fill="#003a81" y="-97.949999" height="194.399994" fill-opacity="1"/></g></g></g></g></g></g><g clip-path="url(#4ba4a13634)"><g clip-path="url(#26d21c046b)"><g transform="matrix(1, 0, 0, 1, 30, 55)"><g clip-path="url(#64d1f2f979)"><g clip-path="url(#9b1614e8fb)"><g clip-path="url(#d676d82eb7)"><rect x="-111.856316" width="388.592623" fill="#003a81" y="-99.949999" height="194.399994" fill-opacity="1"/></g></g></g></g></g></g><g clip-path="url(#83a3c18505)"><g clip-path="url(#78d8147566)"><g transform="matrix(1, 0, 0, 1, 30, 50)"><g clip-path="url(#d16e710b6c)"><g clip-path="url(#623c36f5d5)"><g clip-path="url(#1dab45bf20)"><rect x="-111.856316" width="388.592623" fill="#ffd016" y="-94.949999" height="194.399994" fill-opacity="1"/></g></g></g></g></g></g><g clip-path="url(#31de21f477)"><g clip-path="url(#123428e7ad)"><g transform="matrix(1, 0, 0, 1, 35, 48)"><g clip-path="url(#0332e717b4)"><g clip-path="url(#f010dc94f3)"><g clip-path="url(#f8e9c5101b)"><rect x="-116.856316" width="388.592623" fill="#ffd016" y="-92.949999" height="194.399994" fill-opacity="1"/></g></g></g></g></g></g><g clip-path="url(#e2db206cc0)"><g clip-path="url(#d14ccec91e)"><g transform="matrix(1, 0, 0, 1, 35, 50)"><g clip-path="url(#d8e6ca6a9e)"><g clip-path="url(#aa1973a4d5)"><g clip-path="url(#7a1883d852)"><rect x="-116.856316" width="388.592623" fill="#ffd016" y="-94.949999" height="194.399994" fill-opacity="1"/></g></g></g></g></g></g><g clip-path="url(#44a5871c3a)"><g clip-path="url(#ff85fd640e)"><g transform="matrix(1, 0, 0, 1, 29, 45)"><g clip-path="url(#00c460bd71)"><g clip-path="url(#3344ec233f)"><g clip-path="url(#abc0c0e1e5)"><rect x="-110.856316" width="388.592623" fill="#ffd016" y="-89.949999" height="194.399994" fill-opacity="1"/></g></g></g></g></g></g><g clip-path="url(#d2ab5f6bf0)"><g clip-path="url(#028dcb5c71)"><g transform="matrix(1, 0, 0, 1, 34, 52)"><g clip-path="url(#5708f55fef)"><g clip-path="url(#9181f203f4)"><g clip-path="url(#26c159dcf4)"><rect x="-115.856316" width="388.592623" fill="#ffd016" y="-96.949999" height="194.399994" fill-opacity="1"/></g></g></g></g></g></g><g clip-path="url(#b03fffe2ba)"><g clip-path="url(#6c8c5fe74b)"><g transform="matrix(1, 0, 0, 1, 39, 50)"><g clip-path="url(#0dbf0c7f99)"><g clip-path="url(#4bc1616232)"><g clip-path="url(#1116c0fb04)"><rect x="-120.856316" width="388.592623" fill="#ffd016" y="-94.949999" height="194.399994" fill-opacity="1"/></g></g></g></g></g></g><g clip-path="url(#262e7e935a)"><g clip-path="url(#86977f7aab)"><g transform="matrix(1, 0, 0, 1, 37, 47)"><g clip-path="url(#bbe6ab7e92)"><g clip-path="url(#d69f8226a4)"><g clip-path="url(#3a93487239)"><rect x="-118.856316" width="388.592623" fill="#ffd016" y="-91.949999" height="194.399994" fill-opacity="1"/></g></g></g></g></g></g><g transform="matrix(1, 0, 0, 1, 79, 89)"><g clip-path="url(#076e517bd3)"><g clip-path="url(#068fa2ded3)"><g fill="#003a81" fill-opacity="1"><g transform="translate(0.0828171, 5.177862)"><g><path d="M 2.859375 -4.21875 L 2.859375 0 L 2.375 0 L 2.375 -0.390625 C 2.320312 -0.285156 2.222656 -0.179688 2.078125 -0.078125 C 1.941406 0.015625 1.757812 0.0625 1.53125 0.0625 C 1.28125 0.0625 1.054688 0 0.859375 -0.125 C 0.660156 -0.257812 0.503906 -0.445312 0.390625 -0.6875 C 0.273438 -0.9375 0.21875 -1.222656 0.21875 -1.546875 C 0.21875 -1.867188 0.269531 -2.144531 0.375 -2.375 C 0.476562 -2.613281 0.628906 -2.796875 0.828125 -2.921875 C 1.023438 -3.054688 1.257812 -3.125 1.53125 -3.125 C 1.71875 -3.125 1.882812 -3.078125 2.03125 -2.984375 C 2.175781 -2.890625 2.28125 -2.796875 2.34375 -2.703125 L 2.34375 -4.21875 Z M 0.75 -1.53125 C 0.75 -1.28125 0.785156 -1.066406 0.859375 -0.890625 C 0.929688 -0.710938 1.03125 -0.578125 1.15625 -0.484375 C 1.28125 -0.398438 1.421875 -0.359375 1.578125 -0.359375 C 1.816406 -0.359375 2.007812 -0.453125 2.15625 -0.640625 C 2.3125 -0.835938 2.390625 -1.117188 2.390625 -1.484375 C 2.390625 -1.847656 2.316406 -2.140625 2.171875 -2.359375 C 2.023438 -2.585938 1.820312 -2.703125 1.5625 -2.703125 C 1.300781 -2.703125 1.097656 -2.597656 0.953125 -2.390625 C 0.816406 -2.179688 0.75 -1.894531 0.75 -1.53125 Z M 0.75 -1.53125 "/></g></g></g></g><g fill="#003a81" fill-opacity="1"><g transform="translate(3.36106, 5.177862)"><g><path d="M 1.65625 -3.125 C 1.945312 -3.125 2.195312 -3.050781 2.40625 -2.90625 C 2.625 -2.769531 2.785156 -2.582031 2.890625 -2.34375 C 2.992188 -2.113281 3.046875 -1.851562 3.046875 -1.5625 L 3.046875 -1.390625 L 0.765625 -1.390625 C 0.785156 -1.066406 0.878906 -0.8125 1.046875 -0.625 C 1.210938 -0.445312 1.425781 -0.359375 1.6875 -0.359375 C 1.882812 -0.359375 2.050781 -0.410156 2.1875 -0.515625 C 2.320312 -0.617188 2.421875 -0.773438 2.484375 -0.984375 L 3.03125 -0.921875 C 2.945312 -0.609375 2.789062 -0.363281 2.5625 -0.1875 C 2.332031 -0.0195312 2.050781 0.0625 1.71875 0.0625 C 1.25 0.0625 0.882812 -0.0703125 0.625 -0.34375 C 0.363281 -0.625 0.234375 -1.007812 0.234375 -1.5 C 0.234375 -1.832031 0.289062 -2.117188 0.40625 -2.359375 C 0.519531 -2.609375 0.679688 -2.796875 0.890625 -2.921875 C 1.109375 -3.054688 1.363281 -3.125 1.65625 -3.125 Z M 0.796875 -1.828125 L 2.5 -1.828125 C 2.488281 -2.117188 2.398438 -2.335938 2.234375 -2.484375 C 2.066406 -2.628906 1.875 -2.703125 1.65625 -2.703125 C 1.414062 -2.703125 1.21875 -2.617188 1.0625 -2.453125 C 0.90625 -2.285156 0.816406 -2.078125 0.796875 -1.828125 Z M 0.796875 -1.828125 "/></g></g></g><g fill="#003a81" fill-opacity="1"><g transform="translate(6.639302, 5.177862)"><g/></g></g><g clip-path="url(#2ecbe043ab)"><g fill="#003a81" fill-opacity="1"><g transform="translate(8.278422, 5.177862)"><g><path d="M 3.9375 0 L 3.296875 0 L 2.8125 -1.28125 L 1.046875 -1.28125 L 0.59375 0 L 0 0 L 1.609375 -4.21875 L 2.21875 -4.21875 Z M 1.671875 -2.96875 L 1.21875 -1.734375 L 2.640625 -1.734375 L 2.125 -3.125 C 2.0625 -3.289062 1.988281 -3.507812 1.90625 -3.78125 C 1.90625 -3.757812 1.878906 -3.65625 1.828125 -3.46875 C 1.785156 -3.289062 1.734375 -3.125 1.671875 -2.96875 Z M 1.671875 -2.96875 "/></g></g></g></g><g clip-path="url(#3e13412417)"><g fill="#003a81" fill-opacity="1"><g transform="translate(12.211133, 5.177862)"><g><path d="M 3.421875 -3.96875 C 3.566406 -3.851562 3.671875 -3.710938 3.734375 -3.546875 C 3.804688 -3.390625 3.84375 -3.226562 3.84375 -3.0625 C 3.84375 -2.757812 3.742188 -2.507812 3.546875 -2.3125 C 3.347656 -2.113281 3.050781 -1.984375 2.65625 -1.921875 C 2.8125 -1.847656 2.945312 -1.75 3.0625 -1.625 C 3.1875 -1.507812 3.316406 -1.347656 3.453125 -1.140625 L 4.1875 0 L 3.484375 0 L 2.9375 -0.84375 C 2.75 -1.144531 2.597656 -1.363281 2.484375 -1.5 C 2.378906 -1.632812 2.265625 -1.726562 2.140625 -1.78125 C 2.023438 -1.84375 1.878906 -1.875 1.703125 -1.875 L 1.03125 -1.875 L 1.03125 0 L 0.46875 0 L 0.46875 -4.21875 L 2.40625 -4.21875 C 2.65625 -4.21875 2.859375 -4.195312 3.015625 -4.15625 C 3.171875 -4.125 3.304688 -4.0625 3.421875 -3.96875 Z M 3.015625 -2.546875 C 3.109375 -2.609375 3.171875 -2.6875 3.203125 -2.78125 C 3.242188 -2.875 3.265625 -2.96875 3.265625 -3.0625 C 3.265625 -3.3125 3.175781 -3.488281 3 -3.59375 C 2.820312 -3.695312 2.617188 -3.75 2.390625 -3.75 L 1.03125 -3.75 L 1.03125 -2.359375 L 2.296875 -2.359375 C 2.492188 -2.359375 2.640625 -2.375 2.734375 -2.40625 C 2.835938 -2.4375 2.929688 -2.484375 3.015625 -2.546875 Z M 3.015625 -2.546875 "/></g></g></g></g><g clip-path="url(#b02f5e2d21)"><g fill="#003a81" fill-opacity="1"><g transform="translate(16.468132, 5.177862)"><g><path d="M 1 -0.5 L 3.078125 -0.5 L 3.078125 0 L 0.4375 0 L 0.4375 -4.21875 L 1 -4.21875 Z M 1 -0.5 "/></g></g></g></g><g clip-path="url(#332e311acd)"><g fill="#003a81" fill-opacity="1"><g transform="translate(19.746374, 5.177862)"><g><path d="M 1 -0.5 L 3.078125 -0.5 L 3.078125 0 L 0.4375 0 L 0.4375 -4.21875 L 1 -4.21875 Z M 1 -0.5 "/></g></g></g></g><g fill="#003a81" fill-opacity="1"><g transform="translate(23.024617, 5.177862)"><g/></g></g><g clip-path="url(#ef9b9d5f0c)"><g fill="#003a81" fill-opacity="1"><g transform="translate(24.663737, 5.177862)"><g><path d="M 1.90625 -4.28125 C 2.382812 -4.28125 2.765625 -4.164062 3.046875 -3.9375 C 3.328125 -3.71875 3.476562 -3.414062 3.5 -3.03125 L 2.953125 -3 C 2.921875 -3.269531 2.820312 -3.46875 2.65625 -3.59375 C 2.5 -3.71875 2.257812 -3.78125 1.9375 -3.78125 C 1.625 -3.78125 1.382812 -3.722656 1.21875 -3.609375 C 1.050781 -3.503906 0.96875 -3.351562 0.96875 -3.15625 C 0.96875 -3.03125 1.003906 -2.921875 1.078125 -2.828125 C 1.148438 -2.742188 1.253906 -2.6875 1.390625 -2.65625 C 1.421875 -2.644531 1.535156 -2.609375 1.734375 -2.546875 C 1.941406 -2.484375 2.203125 -2.421875 2.515625 -2.359375 C 2.878906 -2.273438 3.148438 -2.125 3.328125 -1.90625 C 3.515625 -1.695312 3.609375 -1.457031 3.609375 -1.1875 C 3.609375 -0.957031 3.546875 -0.742188 3.421875 -0.546875 C 3.304688 -0.359375 3.128906 -0.207031 2.890625 -0.09375 C 2.648438 0.0195312 2.375 0.078125 2.0625 0.078125 C 1.6875 0.078125 1.363281 0.0195312 1.09375 -0.09375 C 0.832031 -0.21875 0.628906 -0.382812 0.484375 -0.59375 C 0.347656 -0.8125 0.273438 -1.066406 0.265625 -1.359375 L 0.796875 -1.40625 C 0.816406 -1.070312 0.945312 -0.828125 1.1875 -0.671875 C 1.425781 -0.515625 1.707031 -0.4375 2.03125 -0.4375 C 2.363281 -0.4375 2.625 -0.5 2.8125 -0.625 C 3 -0.757812 3.09375 -0.941406 3.09375 -1.171875 C 3.09375 -1.484375 2.84375 -1.695312 2.34375 -1.8125 L 2.015625 -1.90625 C 1.804688 -1.945312 1.566406 -2.007812 1.296875 -2.09375 C 1.023438 -2.164062 0.8125 -2.296875 0.65625 -2.484375 C 0.507812 -2.671875 0.4375 -2.882812 0.4375 -3.125 C 0.4375 -3.34375 0.492188 -3.539062 0.609375 -3.71875 C 0.734375 -3.894531 0.90625 -4.03125 1.125 -4.125 C 1.34375 -4.226562 1.601562 -4.28125 1.90625 -4.28125 Z M 1.90625 -4.28125 "/></g></g></g></g><g clip-path="url(#34f221014f)"><g fill="#003a81" fill-opacity="1"><g transform="translate(28.596448, 5.177862)"><g><path d="M 3.421875 -3.96875 C 3.566406 -3.851562 3.671875 -3.710938 3.734375 -3.546875 C 3.804688 -3.390625 3.84375 -3.226562 3.84375 -3.0625 C 3.84375 -2.757812 3.742188 -2.507812 3.546875 -2.3125 C 3.347656 -2.113281 3.050781 -1.984375 2.65625 -1.921875 C 2.8125 -1.847656 2.945312 -1.75 3.0625 -1.625 C 3.1875 -1.507812 3.316406 -1.347656 3.453125 -1.140625 L 4.1875 0 L 3.484375 0 L 2.9375 -0.84375 C 2.75 -1.144531 2.597656 -1.363281 2.484375 -1.5 C 2.378906 -1.632812 2.265625 -1.726562 2.140625 -1.78125 C 2.023438 -1.84375 1.878906 -1.875 1.703125 -1.875 L 1.03125 -1.875 L 1.03125 0 L 0.46875 0 L 0.46875 -4.21875 L 2.40625 -4.21875 C 2.65625 -4.21875 2.859375 -4.195312 3.015625 -4.15625 C 3.171875 -4.125 3.304688 -4.0625 3.421875 -3.96875 Z M 3.015625 -2.546875 C 3.109375 -2.609375 3.171875 -2.6875 3.203125 -2.78125 C 3.242188 -2.875 3.265625 -2.96875 3.265625 -3.0625 C 3.265625 -3.3125 3.175781 -3.488281 3 -3.59375 C 2.820312 -3.695312 2.617188 -3.75 2.390625 -3.75 L 1.03125 -3.75 L 1.03125 -2.359375 L 2.296875 -2.359375 C 2.492188 -2.359375 2.640625 -2.375 2.734375 -2.40625 C 2.835938 -2.4375 2.929688 -2.484375 3.015625 -2.546875 Z M 3.015625 -2.546875 "/></g></g></g></g><g clip-path="url(#59dcf3eff6)"><g fill="#003a81" fill-opacity="1"><g transform="translate(32.853446, 5.177862)"><g><path d="M 1 -0.5 L 3.078125 -0.5 L 3.078125 0 L 0.4375 0 L 0.4375 -4.21875 L 1 -4.21875 Z M 1 -0.5 "/></g></g></g></g></g></g></g></g></g></svg>