<svg xmlns="http://www.w3.org/2000/svg" xmlns:xlink="http://www.w3.org/1999/xlink" width="300" zoomAndPan="magnify" viewBox="0 0 224.87999 112.499997" height="150" preserveAspectRatio="xMidYMid meet" version="1.0"><path fill="#8f5e36" d="M 7.882812 14.378906 C 42.039062 21.628906 40.21875 71.921875 7.882812 80.496094 C 6.558594 80.832031 5.085938 80.003906 4.75 78.675781 C 4.414062 77.191406 5.40625 75.707031 6.894531 75.546875 C 10.183594 75.210938 13.332031 74.0625 16.132812 72.578125 C 30.980469 64 34.785156 41.257812 24.058594 28.226562 C 19.933594 22.957031 13.492188 19.984375 6.894531 19.332031 C 3.425781 18.835938 4.253906 13.722656 7.722656 14.554688 L 7.882812 14.554688 Z M 7.882812 14.378906 " fill-opacity="1" fill-rule="nonzero"/><path fill="#8f5e36" d="M 56.730469 19.3125 C 42.535156 20.464844 32.800781 33.160156 33.457031 47.183594 C 33.457031 60.535156 42.855469 74.382812 56.886719 75.707031 C 58.214844 75.707031 59.207031 77.03125 59.03125 78.5 C 59.03125 79.988281 57.382812 80.976562 55.898438 80.640625 C 33.121094 75.035156 23.722656 44.867188 37.246094 26.40625 C 41.703125 20.304688 48.625 16.183594 56.058594 14.539062 C 59.527344 13.882812 60.339844 18.996094 56.886719 19.488281 L 56.730469 19.332031 Z M 56.730469 19.3125 " fill-opacity="1" fill-rule="nonzero"/><path fill="#8f5e36" d="M 17.617188 26.40625 C 38.234375 31.515625 37.246094 63.503906 17.617188 69.269531 C 16.464844 69.605469 15.300781 69.269531 14.980469 67.945312 C 14.660156 66.621094 15.476562 65.308594 16.800781 65.308594 C 30.164062 64.320312 35.117188 45.363281 27.367188 35.796875 C 24.890625 32.507812 20.925781 30.683594 16.976562 30.527344 C 13.84375 30.191406 14.660156 25.75 17.632812 26.40625 Z M 17.617188 26.40625 " fill-opacity="1" fill-rule="nonzero"/><path fill="#8f5e36" d="M 47.3125 30.367188 C 33.296875 30.859375 29.332031 49.660156 37.085938 59.382812 C 39.5625 62.675781 43.351562 64.992188 47.3125 65.148438 C 48.464844 65.148438 49.296875 66.140625 49.296875 67.289062 C 49.296875 68.441406 47.808594 69.605469 46.5 69.109375 C 32.304688 64.832031 27.351562 46.191406 34.941406 34.328125 C 37.582031 30.367188 41.878906 27.570312 46.660156 26.246094 C 49.632812 25.589844 50.289062 30.03125 47.3125 30.367188 Z M 47.3125 30.367188 " fill-opacity="1" fill-rule="nonzero"/><path fill="#8f5e36" d="M 60.355469 67.960938 L 60.355469 28.402344 L 72.3125 28.402344 C 77.347656 28.402344 81.261719 30.300781 84.058594 34.101562 C 86.855469 37.902344 88.261719 42.566406 88.261719 48.078125 C 88.261719 53.585938 86.90625 58.378906 84.171875 62.210938 C 81.4375 66.042969 77.96875 67.960938 73.78125 67.960938 Z M 64.832031 63.761719 L 72.054688 63.761719 C 75.890625 63.761719 78.785156 62.292969 80.765625 59.351562 C 82.75 56.414062 83.742188 52.550781 83.742188 47.726562 C 83.742188 42.902344 82.796875 40.316406 80.910156 37.203125 C 79.023438 34.085938 76.066406 32.539062 72.054688 32.539062 L 64.832031 32.539062 Z M 64.832031 63.761719 " fill-opacity="1" fill-rule="nonzero"/><path fill="#8f5e36" d="M 116.410156 28.402344 L 104.488281 51.320312 L 104.488281 67.960938 L 100.027344 67.960938 L 100.027344 51.320312 L 88.105469 28.402344 L 93.378906 28.402344 L 102.839844 46.574219 L 112.367188 28.402344 L 116.441406 28.402344 Z M 116.410156 28.402344 " fill-opacity="1" fill-rule="nonzero"/><path fill="#8f5e36" d="M 154.753906 67.960938 L 150.421875 67.960938 L 150.421875 33.417969 L 138.851562 67.960938 L 135.828125 67.960938 L 124.128906 33.417969 L 124.128906 67.960938 L 120.34375 67.960938 L 120.34375 28.402344 L 126.941406 28.402344 L 137.699219 60.039062 L 148.199219 28.402344 L 154.722656 28.402344 L 154.722656 67.960938 Z M 154.753906 67.960938 " fill-opacity="1" fill-rule="nonzero"/><path fill="#8f5e36" d="M 186.703125 63.617188 L 186.703125 67.960938 L 163.65625 67.960938 L 163.65625 28.402344 L 186.210938 28.402344 L 186.210938 32.746094 L 168.117188 32.746094 L 168.117188 45.332031 L 182.46875 45.332031 L 182.46875 49.355469 L 168.117188 49.355469 L 168.117188 63.617188 Z M 186.703125 63.617188 " fill-opacity="1" fill-rule="nonzero"/><path fill="#8f5e36" d="M 214.292969 54.65625 L 218.367188 55.679688 C 216.417969 64.414062 212.023438 68.773438 205.164062 68.773438 C 198.308594 68.773438 197.125 66.761719 194.550781 62.707031 C 191.980469 58.664062 190.699219 53.699219 190.699219 47.804688 C 190.699219 41.914062 192.042969 36.816406 194.726562 33.128906 C 197.414062 29.441406 201.011719 27.585938 205.515625 27.585938 C 212.199219 27.585938 216.480469 31.835938 218.382812 40.316406 L 214.179688 41.242188 C 212.644531 34.949219 209.753906 31.789062 205.484375 31.789062 C 201.21875 31.789062 199.890625 33.257812 198.164062 36.179688 C 196.4375 39.101562 195.558594 43.222656 195.558594 48.507812 C 195.558594 53.792969 196.453125 57.246094 198.230469 60.167969 C 200.003906 63.089844 202.351562 64.558594 205.277344 64.558594 C 209.816406 64.558594 212.835938 61.253906 214.308594 54.640625 Z M 214.292969 54.65625 " fill-opacity="1" fill-rule="nonzero"/><path fill="#8f5e36" d="M 8.96875 97.632812 L 8.96875 87.972656 L 11.894531 87.972656 C 13.125 87.972656 14.085938 88.433594 14.773438 89.363281 C 15.460938 90.289062 15.796875 91.4375 15.796875 92.78125 C 15.796875 94.121094 15.460938 95.300781 14.789062 96.230469 C 14.117188 97.171875 13.269531 97.632812 12.246094 97.632812 Z M 10.074219 96.613281 L 11.847656 96.613281 C 12.789062 96.613281 13.492188 96.261719 13.972656 95.542969 C 14.453125 94.824219 14.707031 93.882812 14.707031 92.699219 C 14.707031 91.519531 14.484375 90.894531 14.019531 90.128906 C 13.558594 89.363281 12.839844 88.996094 11.847656 88.996094 L 10.074219 88.996094 L 10.074219 96.628906 Z M 10.074219 96.613281 " fill-opacity="1" fill-rule="nonzero"/><path fill="#8f5e36" d="M 23.066406 96.5625 L 23.066406 97.632812 L 17.425781 97.632812 L 17.425781 87.972656 L 22.941406 87.972656 L 22.941406 89.042969 L 18.511719 89.042969 L 18.511719 92.125 L 22.027344 92.125 L 22.027344 93.113281 L 18.511719 93.113281 L 18.511719 96.597656 L 23.050781 96.597656 Z M 23.066406 96.5625 " fill-opacity="1" fill-rule="nonzero"/><path fill="#8f5e36" d="M 30.851562 97.632812 L 29.699219 97.632812 L 28.101562 93.449219 L 25.609375 93.449219 L 25.609375 97.632812 L 24.585938 97.632812 L 24.585938 87.972656 L 28.023438 87.972656 C 28.949219 87.972656 29.636719 88.257812 30.101562 88.820312 C 30.546875 89.378906 30.773438 90 30.773438 90.671875 C 30.773438 91.34375 30.644531 91.675781 30.386719 92.15625 C 30.132812 92.636719 29.714844 92.972656 29.140625 93.164062 Z M 25.609375 92.460938 L 27.894531 92.460938 C 28.503906 92.460938 28.949219 92.285156 29.238281 91.933594 C 29.523438 91.582031 29.683594 91.148438 29.683594 90.640625 C 29.683594 90.128906 29.523438 89.730469 29.222656 89.441406 C 28.917969 89.152344 28.519531 89.011719 28.039062 89.011719 L 25.625 89.011719 L 25.625 92.445312 Z M 25.609375 92.460938 " fill-opacity="1" fill-rule="nonzero"/><path fill="#8f5e36" d="M 41 97.632812 L 39.945312 97.632812 L 39.945312 89.1875 L 37.117188 97.632812 L 36.382812 97.632812 L 33.519531 89.1875 L 33.519531 97.632812 L 32.59375 97.632812 L 32.59375 87.972656 L 34.207031 87.972656 L 36.84375 95.703125 L 39.417969 87.972656 L 41.015625 87.972656 L 41.015625 97.632812 Z M 41 97.632812 " fill-opacity="1" fill-rule="nonzero"/><path fill="#8f5e36" d="M 49.039062 97.632812 L 47.921875 97.632812 L 47.042969 94.808594 L 43.8125 94.808594 L 43.03125 97.632812 L 42.121094 97.632812 L 44.949219 87.972656 L 46.179688 87.972656 L 49.023438 97.632812 Z M 46.820312 93.898438 L 45.476562 89.25 L 44.132812 93.898438 L 46.835938 93.898438 Z M 46.820312 93.898438 " fill-opacity="1" fill-rule="nonzero"/><path fill="#8f5e36" d="M 51.917969 97.632812 L 50.832031 97.632812 L 50.832031 89.027344 L 48.335938 89.027344 L 48.335938 87.957031 L 54.425781 87.957031 L 54.425781 89.027344 L 51.933594 89.027344 L 51.933594 97.632812 Z M 51.917969 97.632812 " fill-opacity="1" fill-rule="nonzero"/><path fill="#8f5e36" d="M 58.246094 97.824219 C 57.128906 97.824219 56.25 97.347656 55.625 96.371094 C 55.003906 95.398438 54.683594 94.214844 54.683594 92.8125 C 54.683594 91.40625 55.003906 90.144531 55.65625 89.1875 C 56.3125 88.226562 57.175781 87.75 58.261719 87.75 C 59.351562 87.75 60.195312 88.210938 60.851562 89.152344 C 61.507812 90.097656 61.828125 91.277344 61.828125 92.699219 C 61.828125 94.121094 61.507812 95.269531 60.882812 96.277344 C 60.246094 97.300781 59.367188 97.808594 58.230469 97.808594 Z M 58.277344 96.851562 C 59.046875 96.851562 59.636719 96.46875 60.070312 95.703125 C 60.5 94.933594 60.707031 93.945312 60.707031 92.730469 C 60.707031 91.519531 60.484375 90.511719 60.035156 89.824219 C 59.589844 89.121094 59 88.785156 58.261719 88.785156 C 57.527344 88.785156 56.921875 89.171875 56.488281 89.921875 C 56.058594 90.671875 55.832031 91.660156 55.832031 92.875 C 55.832031 94.089844 56.058594 95.03125 56.503906 95.765625 C 56.953125 96.515625 57.542969 96.882812 58.277344 96.882812 Z M 58.277344 96.851562 " fill-opacity="1" fill-rule="nonzero"/><path fill="#8f5e36" d="M 68.636719 96.5625 L 68.636719 97.632812 L 63.488281 97.632812 L 63.488281 87.972656 L 64.609375 87.972656 L 64.609375 96.582031 L 68.636719 96.582031 Z M 68.636719 96.5625 " fill-opacity="1" fill-rule="nonzero"/><path fill="#8f5e36" d="M 72.601562 97.824219 C 71.480469 97.824219 70.601562 97.347656 69.980469 96.371094 C 69.355469 95.398438 69.035156 94.214844 69.035156 92.8125 C 69.035156 91.40625 69.355469 90.144531 70.011719 89.1875 C 70.664062 88.226562 71.527344 87.75 72.617188 87.75 C 73.703125 87.75 74.550781 88.210938 75.207031 89.152344 C 75.859375 90.097656 76.179688 91.277344 76.179688 92.699219 C 76.179688 94.121094 75.859375 95.269531 75.238281 96.277344 C 74.597656 97.300781 73.71875 97.808594 72.585938 97.808594 Z M 72.632812 96.851562 C 73.398438 96.851562 73.992188 96.46875 74.421875 95.703125 C 74.855469 94.933594 75.0625 93.945312 75.0625 92.730469 C 75.0625 91.519531 74.835938 90.511719 74.390625 89.824219 C 73.941406 89.121094 73.351562 88.785156 72.617188 88.785156 C 71.878906 88.785156 71.273438 89.171875 70.84375 89.921875 C 70.410156 90.671875 70.1875 91.660156 70.1875 92.875 C 70.1875 94.089844 70.410156 95.03125 70.859375 95.765625 C 71.304688 96.515625 71.898438 96.882812 72.632812 96.882812 Z M 72.632812 96.851562 " fill-opacity="1" fill-rule="nonzero"/><path fill="#8f5e36" d="M 84.285156 92.761719 L 84.285156 97.777344 L 83.613281 97.777344 L 83.308594 96.5625 C 82.765625 97.410156 81.980469 97.84375 80.910156 97.84375 C 79.839844 97.84375 78.867188 97.363281 78.226562 96.40625 C 77.585938 95.445312 77.265625 94.28125 77.265625 92.90625 C 77.265625 91.535156 77.601562 90.222656 78.273438 89.25 C 78.945312 88.277344 79.871094 87.78125 81.023438 87.78125 C 82.175781 87.78125 83.675781 88.722656 84.15625 90.589844 L 83.117188 90.863281 C 82.972656 90.144531 82.683594 89.617188 82.285156 89.296875 C 81.871094 88.976562 81.4375 88.800781 80.941406 88.800781 C 80.082031 88.800781 79.457031 89.1875 79.042969 89.953125 C 78.625 90.71875 78.433594 91.691406 78.433594 92.859375 C 78.433594 94.023438 78.65625 95.09375 79.121094 95.796875 C 79.585938 96.5 80.207031 96.851562 80.992188 96.851562 C 81.773438 96.851562 82.109375 96.628906 82.527344 96.179688 C 82.941406 95.734375 83.148438 95.109375 83.148438 94.3125 C 83.148438 93.515625 83.148438 93.992188 83.148438 93.785156 L 80.992188 93.785156 L 80.992188 92.78125 L 84.269531 92.78125 Z M 84.285156 92.761719 " fill-opacity="1" fill-rule="nonzero"/><path fill="#8f5e36" d="M 88.902344 85.753906 L 86.265625 87.09375 L 85.992188 86.519531 L 88.519531 84.90625 Z M 87.511719 97.632812 L 86.425781 97.632812 L 86.425781 87.972656 L 87.511719 87.972656 Z M 87.511719 97.632812 " fill-opacity="1" fill-rule="nonzero"/><path fill="#8f5e36" d="M 95.425781 97.632812 L 94.304688 97.632812 L 93.425781 94.808594 L 90.199219 94.808594 L 89.414062 97.632812 L 88.503906 97.632812 L 91.332031 87.972656 L 92.5625 87.972656 L 95.40625 97.632812 Z M 93.203125 93.898438 L 91.859375 89.25 L 90.515625 93.898438 L 93.21875 93.898438 Z M 93.203125 93.898438 " fill-opacity="1" fill-rule="nonzero"/><path fill="#8f5e36" d="M 105.527344 87.972656 L 102.617188 93.578125 L 102.617188 97.648438 L 101.53125 97.648438 L 101.53125 93.578125 L 98.621094 87.972656 L 99.914062 87.972656 L 102.234375 92.410156 L 104.566406 87.972656 L 105.558594 87.972656 Z M 105.527344 87.972656 " fill-opacity="1" fill-rule="nonzero"/><path fill="#8f5e36" d="M 118.167969 97.632812 L 117.113281 97.632812 L 117.113281 89.1875 L 114.285156 97.632812 L 113.550781 97.632812 L 110.6875 89.1875 L 110.6875 97.632812 L 109.761719 97.632812 L 109.761719 87.972656 L 111.375 87.972656 L 114.011719 95.703125 L 116.585938 87.972656 L 118.183594 87.972656 L 118.183594 97.632812 Z M 118.167969 97.632812 " fill-opacity="1" fill-rule="nonzero"/><path fill="#8f5e36" d="M 125.984375 96.5625 L 125.984375 97.632812 L 120.34375 97.632812 L 120.34375 87.972656 L 125.855469 87.972656 L 125.855469 89.042969 L 121.429688 89.042969 L 121.429688 92.125 L 124.945312 92.125 L 124.945312 93.113281 L 121.429688 93.113281 L 121.429688 96.597656 L 125.96875 96.597656 Z M 125.984375 96.5625 " fill-opacity="1" fill-rule="nonzero"/><path fill="#8f5e36" d="M 127.503906 97.632812 L 127.503906 87.972656 L 130.425781 87.972656 C 131.660156 87.972656 132.617188 88.433594 133.304688 89.363281 C 133.992188 90.289062 134.328125 91.4375 134.328125 92.78125 C 134.328125 94.121094 133.992188 95.300781 133.320312 96.230469 C 132.648438 97.171875 131.800781 97.632812 130.777344 97.632812 Z M 128.605469 96.613281 L 130.378906 96.613281 C 131.324219 96.613281 132.027344 96.261719 132.503906 95.542969 C 132.984375 94.824219 133.242188 93.882812 133.242188 92.699219 C 133.242188 91.519531 133.015625 90.894531 132.554688 90.128906 C 132.089844 89.363281 131.371094 88.996094 130.378906 88.996094 L 128.605469 88.996094 L 128.605469 96.628906 Z M 128.605469 96.613281 " fill-opacity="1" fill-rule="nonzero"/><path fill="#8f5e36" d="M 135.972656 87.972656 L 137.0625 87.972656 L 137.0625 97.632812 L 135.972656 97.632812 Z M 135.972656 87.972656 " fill-opacity="1" fill-rule="nonzero"/><path fill="#8f5e36" d="M 144.445312 94.375 L 145.4375 94.632812 C 144.957031 96.773438 143.886719 97.824219 142.207031 97.824219 C 140.527344 97.824219 140.242188 97.332031 139.617188 96.339844 C 138.996094 95.351562 138.675781 94.136719 138.675781 92.699219 C 138.675781 91.261719 138.996094 90.015625 139.648438 89.105469 C 140.304688 88.195312 141.183594 87.75 142.289062 87.75 C 143.917969 87.75 144.972656 88.785156 145.4375 90.863281 L 144.414062 91.085938 C 144.046875 89.554688 143.324219 88.769531 142.289062 88.769531 C 141.25 88.769531 140.914062 89.121094 140.496094 89.839844 C 140.082031 90.558594 139.859375 91.566406 139.859375 92.859375 C 139.859375 94.152344 140.082031 95 140.511719 95.71875 C 140.945312 96.4375 141.519531 96.789062 142.238281 96.789062 C 143.34375 96.789062 144.09375 95.972656 144.445312 94.359375 Z M 144.445312 94.375 " fill-opacity="1" fill-rule="nonzero"/><path fill="#8f5e36" d="M 146.792969 87.972656 L 147.882812 87.972656 L 147.882812 97.632812 L 146.792969 97.632812 Z M 146.792969 87.972656 " fill-opacity="1" fill-rule="nonzero"/><path fill="#8f5e36" d="M 156.480469 97.632812 L 155.425781 97.632812 L 150.917969 89.203125 L 150.917969 89.839844 C 150.949219 90.082031 150.949219 90.289062 150.949219 90.449219 L 150.949219 97.632812 L 150.070312 97.632812 L 150.070312 87.972656 L 151.429688 87.972656 L 155.632812 95.84375 L 155.632812 95.175781 C 155.617188 94.902344 155.601562 94.679688 155.601562 94.472656 L 155.601562 87.972656 L 156.464844 87.972656 L 156.464844 97.632812 Z M 156.480469 97.632812 " fill-opacity="1" fill-rule="nonzero"/><path fill="#8f5e36" d="M 164.519531 97.632812 L 163.402344 97.632812 L 162.523438 94.808594 L 159.292969 94.808594 L 158.511719 97.632812 L 157.597656 97.632812 L 160.429688 87.972656 L 161.660156 87.972656 L 164.503906 97.632812 Z M 162.296875 93.898438 L 160.957031 89.25 L 159.613281 93.898438 L 162.3125 93.898438 Z M 162.296875 93.898438 " fill-opacity="1" fill-rule="nonzero"/><path fill="#8f5e36" d="M 174.558594 96.5625 L 174.558594 97.632812 L 168.914062 97.632812 L 168.914062 87.972656 L 174.429688 87.972656 L 174.429688 89.042969 L 170.003906 89.042969 L 170.003906 92.125 L 173.519531 92.125 L 173.519531 93.113281 L 170.003906 93.113281 L 170.003906 96.597656 L 174.542969 96.597656 Z M 174.558594 96.5625 " fill-opacity="1" fill-rule="nonzero"/><path fill="#8f5e36" d="M 175.117188 95.078125 L 176.09375 94.824219 C 176.492188 96.148438 177.339844 96.804688 178.664062 96.804688 C 179.992188 96.804688 179.878906 96.644531 180.214844 96.324219 C 180.566406 96.003906 180.742188 95.558594 180.742188 95.015625 C 180.742188 94.472656 180.613281 94.265625 180.34375 94.023438 C 180.070312 93.769531 179.769531 93.59375 179.417969 93.515625 L 177.675781 93.035156 C 177.226562 92.90625 176.859375 92.746094 176.570312 92.570312 C 176.285156 92.394531 176.042969 92.109375 175.835938 91.726562 C 175.628906 91.34375 175.53125 90.910156 175.53125 90.429688 C 175.53125 89.617188 175.804688 88.976562 176.363281 88.5 C 176.921875 88.019531 177.609375 87.78125 178.472656 87.78125 C 180.054688 87.78125 181.09375 88.578125 181.589844 90.160156 L 180.597656 90.480469 C 180.488281 89.921875 180.214844 89.488281 179.785156 89.1875 C 179.351562 88.898438 178.90625 88.753906 178.425781 88.753906 C 177.945312 88.753906 177.53125 88.898438 177.148438 89.171875 C 176.777344 89.457031 176.585938 89.839844 176.585938 90.351562 C 176.585938 90.863281 177.066406 91.550781 178.011719 91.804688 L 179.640625 92.234375 C 181.125 92.636719 181.878906 93.53125 181.878906 94.902344 C 181.878906 96.277344 181.589844 96.4375 181.046875 96.996094 C 180.503906 97.554688 179.703125 97.824219 178.679688 97.824219 C 176.875 97.824219 175.691406 96.898438 175.101562 95.0625 Z M 175.117188 95.078125 " fill-opacity="1" fill-rule="nonzero"/><path fill="#8f5e36" d="M 185.890625 97.632812 L 184.804688 97.632812 L 184.804688 89.027344 L 182.308594 89.027344 L 182.308594 87.957031 L 188.398438 87.957031 L 188.398438 89.027344 L 185.90625 89.027344 L 185.90625 97.632812 Z M 185.890625 97.632812 " fill-opacity="1" fill-rule="nonzero"/><path fill="#8f5e36" d="M 195.238281 96.5625 L 195.238281 97.632812 L 189.597656 97.632812 L 189.597656 87.972656 L 195.113281 87.972656 L 195.113281 89.042969 L 190.683594 89.042969 L 190.683594 92.125 L 194.199219 92.125 L 194.199219 93.113281 L 190.683594 93.113281 L 190.683594 96.597656 L 195.222656 96.597656 Z M 194.3125 85.753906 L 191.675781 87.09375 L 191.402344 86.519531 L 193.929688 84.90625 Z M 194.3125 85.753906 " fill-opacity="1" fill-rule="nonzero"/><path fill="#8f5e36" d="M 199.394531 97.632812 L 198.308594 97.632812 L 198.308594 89.027344 L 195.816406 89.027344 L 195.816406 87.957031 L 201.90625 87.957031 L 201.90625 89.027344 L 199.410156 89.027344 L 199.410156 97.632812 Z M 199.394531 97.632812 " fill-opacity="1" fill-rule="nonzero"/><path fill="#8f5e36" d="M 203.105469 87.972656 L 204.191406 87.972656 L 204.191406 97.632812 L 203.105469 97.632812 Z M 203.105469 87.972656 " fill-opacity="1" fill-rule="nonzero"/><path fill="#8f5e36" d="M 211.589844 94.375 L 212.582031 94.632812 C 212.101562 96.773438 211.03125 97.824219 209.351562 97.824219 C 207.675781 97.824219 207.386719 97.332031 206.765625 96.339844 C 206.140625 95.351562 205.820312 94.136719 205.820312 92.699219 C 205.820312 91.261719 206.140625 90.015625 206.796875 89.105469 C 207.449219 88.195312 208.332031 87.75 209.433594 87.75 C 211.0625 87.75 212.117188 88.785156 212.582031 90.863281 L 211.558594 91.085938 C 211.191406 89.554688 210.472656 88.769531 209.433594 88.769531 C 208.394531 88.769531 208.058594 89.121094 207.644531 89.839844 C 207.226562 90.558594 207.003906 91.566406 207.003906 92.859375 C 207.003906 94.152344 207.226562 95 207.660156 95.71875 C 208.089844 96.4375 208.664062 96.789062 209.386719 96.789062 C 210.488281 96.789062 211.238281 95.972656 211.589844 94.359375 Z M 211.589844 94.375 " fill-opacity="1" fill-rule="nonzero"/><path fill="#8f5e36" d="M 219.804688 97.632812 L 218.6875 97.632812 L 217.808594 94.808594 L 214.578125 94.808594 L 213.796875 97.632812 L 212.886719 97.632812 L 215.714844 87.972656 L 216.945312 87.972656 L 219.789062 97.632812 Z M 217.585938 93.898438 L 216.242188 89.25 L 214.898438 93.898438 L 217.601562 93.898438 Z M 217.585938 93.898438 " fill-opacity="1" fill-rule="nonzero"/></svg>