<svg xmlns="http://www.w3.org/2000/svg" xmlns:xlink="http://www.w3.org/1999/xlink" width="300" zoomAndPan="magnify" viewBox="0 0 224.87999 176.249993" height="235" preserveAspectRatio="xMidYMid meet" version="1.0"><path stroke-linecap="butt" transform="matrix(0.25793, 0, 0, 0.25793, -26.740761, -51.414157)" fill="none" stroke-linejoin="miter" d="M 493.481282 220.112016 L 586.514564 220.112016 C 589.437472 220.112016 592.36038 220.248318 595.268143 220.536065 C 598.175906 220.823813 601.068525 221.263006 603.945999 221.823357 C 606.808329 222.398851 609.640369 223.110648 612.44212 223.958745 C 615.243871 224.806843 618.000188 225.791242 620.695927 226.911943 C 623.406811 228.032643 626.041971 229.274501 628.631698 230.65266 C 631.20628 232.045963 633.705139 233.545279 636.14342 235.165751 C 638.581701 236.786224 640.929114 238.527853 643.185659 240.390639 C 645.442205 242.23828 647.607883 244.207079 649.682693 246.281889 C 651.757503 248.341555 653.711157 250.507233 655.573943 252.778924 C 657.421584 255.035469 659.163213 257.382883 660.79883 259.821164 C 662.419302 262.2443 663.918618 264.758304 665.296776 267.332887 C 666.674935 269.922613 667.931937 272.557774 669.052637 275.253514 C 670.173338 277.964397 671.157737 280.720715 672.005834 283.522466 C 672.853932 286.309073 673.565728 289.156258 674.126078 292.018588 C 674.701573 294.896063 675.125622 297.788682 675.41337 300.696445 C 675.701117 303.604209 675.852563 306.527117 675.852563 309.450026 L 675.852563 453.914387 C 675.852563 456.85244 675.701117 459.760204 675.41337 462.683112 C 675.125622 465.590876 674.701573 468.483495 674.126078 471.345824 C 673.565728 474.223299 672.853932 477.05534 672.005834 479.857091 C 671.157737 482.658842 670.173338 485.400015 669.052637 488.110899 C 667.931937 490.806638 666.674935 493.456944 665.296776 496.031526 C 663.918618 498.621253 662.419302 501.120113 660.79883 503.558394 C 659.163213 505.98153 657.421584 508.328943 655.573943 510.600634 C 653.711157 512.857179 651.757503 515.022858 649.682693 517.097668 C 647.607883 519.157334 645.442205 521.126132 643.185659 522.973774 C 640.929114 524.83656 638.581701 526.578189 636.14342 528.198662 C 633.705139 529.834279 631.20628 531.333594 628.631698 532.711753 C 626.041971 534.089912 623.406811 535.346914 620.695927 536.45247 C 618.000188 537.57317 615.243871 538.55757 612.44212 539.405667 C 609.640369 540.26891 606.808329 540.965561 603.945999 541.541056 C 601.068525 542.116551 598.175906 542.5406 595.268143 542.828347 C 592.36038 543.116095 589.437472 543.267541 586.514564 543.267541 L 493.481282 543.267541 C 490.558374 543.267541 487.635466 543.116095 484.727703 542.828347 C 481.804795 542.5406 478.927321 542.116551 476.049847 541.541056 C 473.187517 540.965561 470.340332 540.26891 467.538581 539.405667 C 464.751975 538.55757 461.995657 537.57317 459.284774 536.45247 C 456.589035 535.346914 453.93873 534.089912 451.364148 532.711753 C 448.789565 531.333594 446.275562 529.834279 443.852426 528.198662 C 441.414145 526.578189 439.066732 524.83656 436.810186 522.973774 C 434.538496 521.126132 432.372818 519.157334 430.313153 517.097668 C 428.238342 515.022858 426.269544 512.857179 424.421903 510.600634 C 422.559117 508.328943 420.817488 505.98153 419.197016 503.558394 C 417.576544 501.120113 416.062083 498.621253 414.683925 496.031526 C 413.305766 493.456944 412.063909 490.806638 410.943208 488.110899 C 409.822508 485.400015 408.838109 482.658842 407.990011 479.857091 C 407.141914 477.05534 406.430117 474.223299 405.854623 471.345824 C 405.279128 468.483495 404.855079 465.590876 404.567332 462.683112 C 404.279584 459.760204 404.143283 456.85244 404.143283 453.914387 L 404.143283 309.450026 C 404.143283 306.527117 404.279584 303.604209 404.567332 300.696445 C 404.855079 297.788682 405.279128 294.896063 405.854623 292.018588 C 406.430117 289.156258 407.141914 286.309073 407.990011 283.522466 C 408.838109 280.720715 409.822508 277.964397 410.943208 275.253514 C 412.063909 272.557774 413.305766 269.922613 414.683925 267.332887 C 416.062083 264.758304 417.576544 262.2443 419.197016 259.821164 C 420.817488 257.382883 422.559117 255.035469 424.421903 252.778924 C 426.269544 250.507233 428.238342 248.341555 430.313153 246.281889 C 432.372818 244.207079 434.538496 242.23828 436.810186 240.390639 C 439.066732 238.527853 441.414145 236.786224 443.852426 235.165751 C 446.275562 233.545279 448.789565 232.045963 451.364148 230.65266 C 453.93873 229.274501 456.589035 228.032643 459.284774 226.911943 C 461.995657 225.791242 464.751975 224.806843 467.538581 223.958745 C 470.340332 223.110648 473.187517 222.398851 476.049847 221.823357 C 478.927321 221.263006 481.804795 220.823813 484.727703 220.536065 C 487.635466 220.248318 490.558374 220.112016 493.481282 220.112016 Z M 493.481282 220.112016 " stroke="#9f7367" stroke-width="6.5" stroke-opacity="1" stroke-miterlimit="10"/><path fill="#9f7367" d="M 124.886719 58.777344 C 122.347656 59.175781 120.777344 57.933594 119.269531 55.125 C 121.558594 51.714844 122.160156 46.285156 126.441406 45.960938 L 126.441406 45.566406 L 118.691406 45.566406 L 118.691406 45.984375 C 123.984375 46.757812 120.300781 51.769531 118.953125 54.667969 C 117.199219 52.238281 114.070312 47.898438 112.285156 45.425781 C 116.542969 43.601562 120.382812 37.652344 114.644531 34.867188 C 106.070312 31.960938 103.691406 40.996094 108.972656 46.636719 C 94.578125 54.488281 108.222656 70.835938 117.515625 58.070312 C 120.195312 62.015625 122.863281 63.980469 125.285156 58.957031 Z M 109.074219 35.742188 C 115.269531 31.652344 116.691406 42.441406 111.910156 44.984375 C 110.148438 42.378906 106.582031 38.804688 109.074219 35.742188 Z M 116.328125 58.882812 C 108.707031 67.578125 101.425781 51.824219 109.414062 47.199219 C 111.167969 49.566406 115.464844 55.367188 117.15625 57.652344 C 116.839844 58.148438 116.566406 58.558594 116.328125 58.882812 Z M 116.328125 58.882812 " fill-opacity="1" fill-rule="nonzero"/><path fill="#27444e" d="M 106.679688 32.058594 C 107.578125 31.4375 108.027344 30.613281 108.027344 29.589844 C 108.027344 28.070312 107.46875 26.933594 106.355469 26.179688 C 105.238281 25.421875 103.421875 25.039062 100.90625 25.03125 L 91.371094 25.003906 L 91.371094 43.265625 L 103.695312 43.265625 C 104.167969 43.265625 104.613281 43.246094 105.039062 43.203125 C 104.675781 42.285156 104.445312 41.402344 104.351562 40.566406 C 104.140625 40.578125 103.921875 40.585938 103.695312 40.585938 L 94.582031 40.585938 L 94.582031 34.039062 L 103.695312 34.039062 C 104.878906 34.039062 105.839844 34.199219 106.570312 34.515625 C 106.929688 34.183594 107.328125 33.894531 107.757812 33.648438 C 108.214844 33.386719 108.707031 33.175781 109.230469 33.015625 C 108.519531 32.558594 107.667969 32.238281 106.679688 32.058594 Z M 104.03125 31.011719 C 103.492188 31.242188 102.453125 31.355469 100.90625 31.355469 L 94.582031 31.355469 L 94.582031 27.714844 L 100.90625 27.714844 C 102.460938 27.714844 103.507812 27.832031 104.035156 28.070312 C 104.566406 28.308594 104.828125 28.816406 104.828125 29.589844 C 104.828125 30.308594 104.5625 30.78125 104.027344 31.011719 Z M 104.03125 31.011719 " fill-opacity="1" fill-rule="nonzero"/><path fill="#27444e" d="M 135.003906 27.714844 L 135.003906 25.027344 L 116.300781 25.027344 L 116.300781 33.871094 C 116.542969 34.027344 116.773438 34.199219 117 34.390625 C 118.433594 35.597656 119.195312 37.238281 119.195312 39.128906 C 119.195312 40.503906 118.820312 41.75 118.085938 42.832031 C 117.988281 42.976562 117.878906 43.121094 117.765625 43.265625 L 119.511719 43.265625 L 119.511719 35.363281 L 131.714844 35.363281 L 131.714844 32.691406 L 119.511719 32.691406 L 119.511719 27.714844 L 135.007812 27.714844 Z M 135.003906 27.714844 " fill-opacity="1" fill-rule="nonzero"/><path fill="#27444e" d="M 122.582031 52.277344 L 122.214844 53.035156 C 121.972656 53.5625 121.648438 54.203125 121.25 54.949219 C 121.257812 54.953125 121.257812 54.957031 121.265625 54.964844 L 135.007812 54.964844 L 135.007812 52.277344 Z M 122.582031 52.277344 " fill-opacity="1" fill-rule="nonzero"/><path fill="#27444e" d="M 119.507812 62.347656 C 118.875 61.875 118.28125 61.378906 117.628906 60.71875 C 117.515625 60.855469 117.414062 60.980469 117.316406 61.089844 C 116.996094 61.449219 116.65625 61.777344 116.300781 62.082031 L 116.300781 70.511719 L 119.507812 70.511719 Z M 119.507812 62.347656 " fill-opacity="1" fill-rule="nonzero"/><path fill="#27444e" d="M 126.445312 59.941406 C 126.097656 61.023438 125.320312 61.917969 124.65625 62.609375 L 131.714844 62.609375 L 131.714844 59.941406 Z M 126.445312 59.941406 " fill-opacity="1" fill-rule="nonzero"/><path fill="#27444e" d="M 109.761719 64.328125 C 109.636719 64.699219 109.449219 65.046875 109.195312 65.375 C 108.707031 66.015625 108.0625 66.53125 107.273438 66.921875 C 106.484375 67.3125 105.609375 67.609375 104.652344 67.8125 C 103.691406 68.011719 102.703125 68.113281 101.675781 68.113281 C 100.894531 68.113281 100.128906 68.046875 99.382812 67.917969 C 98.636719 67.789062 97.886719 67.558594 97.136719 67.234375 C 96.386719 66.902344 95.730469 66.492188 95.167969 66 C 94.605469 65.503906 94.148438 64.859375 93.796875 64.070312 C 93.445312 63.28125 93.277344 62.386719 93.285156 61.398438 C 93.285156 60.660156 93.375 59.984375 93.554688 59.371094 C 93.734375 58.753906 93.976562 58.21875 94.273438 57.765625 C 94.578125 57.3125 94.941406 56.902344 95.367188 56.546875 C 95.796875 56.183594 96.25 55.890625 96.730469 55.660156 C 97.210938 55.429688 97.738281 55.242188 98.304688 55.09375 C 98.867188 54.941406 99.425781 54.835938 99.976562 54.777344 C 100.324219 54.734375 100.683594 54.707031 101.050781 54.695312 C 101.128906 53.765625 101.335938 52.871094 101.660156 52.011719 C 100.332031 52.011719 99.089844 52.132812 97.917969 52.386719 C 96.746094 52.640625 95.675781 53.019531 94.714844 53.527344 C 93.753906 54.03125 92.925781 54.65625 92.234375 55.390625 C 91.539062 56.128906 91.007812 57.007812 90.628906 58.023438 C 90.25 59.039062 90.066406 60.152344 90.074219 61.367188 C 90.085938 62.878906 90.394531 64.238281 91.007812 65.449219 C 91.617188 66.65625 92.453125 67.644531 93.515625 68.414062 C 94.578125 69.183594 95.800781 69.769531 97.191406 70.175781 C 98.578125 70.578125 100.074219 70.78125 101.671875 70.78125 C 103.273438 70.78125 104.789062 70.625 106.171875 70.304688 C 107.550781 69.984375 108.769531 69.519531 109.816406 68.902344 C 110.871094 68.289062 111.703125 67.492188 112.320312 66.523438 C 112.835938 65.707031 112.996094 65.363281 113.265625 64.335938 C 113.265625 64.335938 111.160156 64.332031 110.042969 64.332031 C 109.945312 64.332031 109.851562 64.332031 109.753906 64.328125 Z M 109.761719 64.328125 " fill-opacity="1" fill-rule="nonzero"/><path fill="#27444e" d="M 112.335938 56.300781 C 111.722656 55.320312 110.890625 54.519531 109.839844 53.90625 C 109.183594 53.523438 108.460938 53.195312 107.675781 52.921875 C 107.625 53.289062 107.601562 53.671875 107.601562 54.070312 C 107.601562 54.800781 107.699219 55.519531 107.898438 56.210938 C 108.414062 56.546875 108.851562 56.949219 109.203125 57.417969 C 109.597656 57.941406 109.835938 58.527344 109.914062 59.171875 C 109.914062 59.171875 113.289062 59.171875 113.289062 59.171875 C 113.195312 58.117188 112.878906 57.15625 112.339844 56.296875 Z M 112.335938 56.300781 " fill-opacity="1" fill-rule="nonzero"/><path fill="#27444e" d="M 3.265625 104.386719 L 9.4375 104.386719 C 10.996094 104.386719 12.21875 104.765625 13.113281 105.519531 C 14.007812 106.277344 14.457031 107.234375 14.457031 108.398438 C 14.457031 110.101562 13.46875 111.242188 11.488281 111.824219 C 12.492188 111.96875 13.296875 112.402344 13.898438 113.121094 C 14.503906 113.839844 14.804688 114.675781 14.804688 115.617188 C 14.804688 116.808594 14.351562 117.773438 13.453125 118.507812 C 12.550781 119.242188 11.328125 119.609375 9.789062 119.609375 L 3.265625 119.609375 L 3.265625 104.382812 Z M 6.34375 106.742188 L 6.34375 110.691406 L 9.113281 110.691406 C 9.796875 110.691406 10.339844 110.519531 10.738281 110.175781 C 11.140625 109.835938 11.339844 109.351562 11.339844 108.726562 C 11.339844 108.101562 11.140625 107.617188 10.738281 107.265625 C 10.339844 106.917969 9.796875 106.742188 9.113281 106.742188 Z M 6.34375 117.253906 L 9.441406 117.253906 C 10.125 117.253906 10.675781 117.070312 11.085938 116.695312 C 11.503906 116.324219 11.707031 115.816406 11.707031 115.160156 C 11.707031 114.503906 11.496094 113.988281 11.078125 113.613281 C 10.652344 113.234375 10.101562 113.042969 9.417969 113.042969 L 6.34375 113.042969 Z M 6.34375 117.253906 " fill-opacity="1" fill-rule="nonzero"/><path fill="#27444e" d="M 20.519531 107.527344 L 20.519531 109.664062 C 21.335938 108.125 22.511719 107.355469 24.054688 107.355469 L 24.054688 110.496094 L 23.289062 110.496094 C 22.375 110.496094 21.683594 110.726562 21.21875 111.183594 C 20.753906 111.640625 20.519531 112.429688 20.519531 113.546875 L 20.519531 119.613281 L 17.445312 119.613281 L 17.445312 107.527344 Z M 20.519531 107.527344 " fill-opacity="1" fill-rule="nonzero"/><path fill="#27444e" d="M 27.007812 118.03125 C 25.925781 116.859375 25.382812 115.367188 25.382812 113.546875 C 25.382812 111.730469 25.921875 110.242188 27 109.089844 C 28.074219 107.933594 29.441406 107.355469 31.101562 107.355469 C 32.757812 107.355469 34.023438 108.039062 34.894531 109.40625 L 34.894531 107.53125 L 37.949219 107.53125 L 37.949219 119.613281 L 34.894531 119.613281 L 34.894531 117.585938 C 33.980469 119.054688 32.703125 119.789062 31.078125 119.789062 C 29.449219 119.789062 28.09375 119.203125 27.007812 118.03125 Z M 33.933594 116.175781 C 34.574219 115.542969 34.894531 114.675781 34.894531 113.566406 C 34.894531 112.460938 34.574219 111.59375 33.933594 110.960938 C 33.296875 110.328125 32.546875 110.011719 31.6875 110.011719 C 30.828125 110.011719 30.082031 110.324219 29.453125 110.949219 C 28.820312 111.574219 28.503906 112.441406 28.503906 113.546875 C 28.503906 114.648438 28.824219 115.523438 29.460938 116.164062 C 30.101562 116.804688 30.847656 117.121094 31.699219 117.121094 C 32.550781 117.121094 33.296875 116.804688 33.933594 116.171875 Z M 33.933594 116.175781 " fill-opacity="1" fill-rule="nonzero"/><path fill="#27444e" d="M 42.027344 118.085938 C 40.917969 116.949219 40.367188 115.445312 40.367188 113.570312 C 40.367188 111.695312 40.917969 110.1875 42.027344 109.058594 C 43.128906 107.921875 44.5625 107.355469 46.324219 107.355469 C 47.789062 107.355469 49.019531 107.710938 50.007812 108.421875 C 50.996094 109.132812 51.660156 110.144531 51.996094 111.453125 L 48.679688 111.453125 C 48.289062 110.449219 47.5 109.949219 46.324219 109.949219 C 45.4375 109.949219 44.746094 110.273438 44.242188 110.917969 C 43.742188 111.566406 43.488281 112.449219 43.488281 113.566406 C 43.488281 114.6875 43.738281 115.574219 44.242188 116.21875 C 44.742188 116.863281 45.4375 117.1875 46.324219 117.1875 C 47.488281 117.1875 48.273438 116.679688 48.679688 115.660156 L 51.996094 115.660156 C 51.648438 116.925781 50.972656 117.925781 49.976562 118.671875 C 48.980469 119.414062 47.765625 119.78125 46.324219 119.78125 C 44.566406 119.78125 43.132812 119.214844 42.027344 118.078125 Z M 42.027344 118.085938 " fill-opacity="1" fill-rule="nonzero"/><path fill="#27444e" d="M 55.078125 118.03125 C 53.996094 116.859375 53.453125 115.367188 53.453125 113.546875 C 53.453125 111.730469 53.992188 110.242188 55.070312 109.089844 C 56.144531 107.933594 57.511719 107.355469 59.171875 107.355469 C 60.828125 107.355469 62.09375 108.039062 62.964844 109.40625 L 62.964844 107.53125 L 66.019531 107.53125 L 66.019531 119.613281 L 62.964844 119.613281 L 62.964844 117.585938 C 62.050781 119.054688 60.773438 119.789062 59.148438 119.789062 C 57.519531 119.789062 56.164062 119.203125 55.078125 118.03125 Z M 62.003906 116.175781 C 62.644531 115.542969 62.964844 114.675781 62.964844 113.566406 C 62.964844 112.460938 62.644531 111.59375 62.003906 110.960938 C 61.367188 110.328125 60.617188 110.011719 59.757812 110.011719 C 58.898438 110.011719 58.15625 110.324219 57.523438 110.949219 C 56.890625 111.574219 56.574219 112.441406 56.574219 113.546875 C 56.574219 114.648438 56.894531 115.523438 57.53125 116.164062 C 58.171875 116.804688 58.917969 117.121094 59.769531 117.121094 C 60.621094 117.121094 61.367188 116.804688 62.003906 116.171875 Z M 62.003906 116.175781 " fill-opacity="1" fill-rule="nonzero"/><path fill="#27444e" d="M 72.367188 107.527344 L 72.367188 109.339844 C 73.136719 108.015625 74.386719 107.351562 76.117188 107.351562 C 77.03125 107.351562 77.851562 107.5625 78.570312 107.984375 C 79.289062 108.40625 79.847656 109.007812 80.238281 109.792969 C 80.660156 109.039062 81.238281 108.441406 81.972656 108.007812 C 82.707031 107.570312 83.53125 107.351562 84.449219 107.351562 C 85.886719 107.351562 87.046875 107.804688 87.925781 108.703125 C 88.808594 109.605469 89.246094 110.871094 89.246094 112.496094 L 89.246094 119.609375 L 86.195312 119.609375 L 86.195312 112.933594 C 86.195312 111.988281 85.953125 111.265625 85.472656 110.765625 C 84.996094 110.261719 84.339844 110.011719 83.511719 110.011719 C 82.683594 110.011719 82.027344 110.261719 81.539062 110.765625 C 81.050781 111.265625 80.808594 111.988281 80.808594 112.933594 L 80.808594 119.609375 L 77.753906 119.609375 L 77.753906 112.933594 C 77.753906 111.988281 77.515625 111.265625 77.035156 110.765625 C 76.554688 110.261719 75.898438 110.011719 75.070312 110.011719 C 74.242188 110.011719 73.585938 110.261719 73.097656 110.765625 C 72.613281 111.265625 72.367188 111.988281 72.367188 112.933594 L 72.367188 119.609375 L 69.292969 119.609375 L 69.292969 107.523438 L 72.367188 107.523438 Z M 72.367188 107.527344 " fill-opacity="1" fill-rule="nonzero"/><path fill="#27444e" d="M 93.347656 118.0625 C 92.171875 116.914062 91.582031 115.40625 91.582031 113.546875 C 91.582031 111.6875 92.179688 110.1875 93.371094 109.054688 C 94.5625 107.917969 96.042969 107.351562 97.808594 107.351562 C 99.574219 107.351562 101.054688 107.917969 102.246094 109.054688 C 103.4375 110.1875 104.035156 111.683594 104.035156 113.546875 C 104.035156 115.410156 103.433594 116.914062 102.234375 118.0625 C 101.035156 119.210938 99.546875 119.785156 97.773438 119.785156 C 96.003906 119.785156 94.523438 119.210938 93.347656 118.0625 Z M 97.773438 117.191406 C 98.632812 117.191406 99.371094 116.871094 99.988281 116.242188 C 100.605469 115.609375 100.914062 114.714844 100.914062 113.558594 C 100.914062 112.402344 100.609375 111.511719 100 110.886719 C 99.386719 110.261719 98.648438 109.945312 97.785156 109.945312 C 96.921875 109.945312 96.1875 110.257812 95.59375 110.886719 C 94.996094 111.511719 94.699219 112.40625 94.699219 113.566406 C 94.699219 114.730469 94.996094 115.625 95.59375 116.25 C 96.1875 116.875 96.917969 117.191406 97.773438 117.191406 Z M 97.773438 117.191406 " fill-opacity="1" fill-rule="nonzero"/><path fill="#27444e" d="M 109.554688 107.527344 L 109.554688 109.339844 C 110.324219 108.015625 111.578125 107.351562 113.304688 107.351562 C 114.6875 107.351562 115.8125 107.804688 116.6875 108.714844 C 117.558594 109.625 117.996094 110.886719 117.996094 112.5 L 117.996094 119.613281 L 114.941406 119.613281 L 114.941406 112.9375 C 114.941406 111.992188 114.699219 111.265625 114.21875 110.765625 C 113.742188 110.265625 113.085938 110.015625 112.257812 110.015625 C 111.429688 110.015625 110.773438 110.265625 110.285156 110.765625 C 109.796875 111.265625 109.554688 111.992188 109.554688 112.9375 L 109.554688 119.613281 L 106.480469 119.613281 L 106.480469 107.527344 Z M 109.554688 107.527344 " fill-opacity="1" fill-rule="nonzero"/><path fill="#27444e" d="M 125.84375 117.039062 L 127.308594 117.039062 L 127.308594 119.613281 L 125.367188 119.613281 C 124.128906 119.613281 123.175781 119.328125 122.507812 118.761719 C 121.839844 118.191406 121.503906 117.257812 121.503906 115.945312 L 121.503906 110.035156 L 120.21875 110.035156 L 120.21875 107.527344 L 121.503906 107.527344 L 121.503906 104.539062 L 124.578125 104.539062 L 124.578125 107.527344 L 127.285156 107.527344 L 127.285156 110.035156 L 124.578125 110.035156 L 124.578125 115.945312 C 124.578125 116.339844 124.675781 116.621094 124.863281 116.789062 C 125.050781 116.953125 125.378906 117.039062 125.84375 117.039062 Z M 125.84375 117.039062 " fill-opacity="1" fill-rule="nonzero"/><path fill="#27444e" d="M 134.8125 119.785156 C 133.050781 119.785156 131.617188 119.214844 130.515625 118.070312 C 129.410156 116.933594 128.855469 115.421875 128.855469 113.546875 C 128.855469 111.667969 129.414062 110.167969 130.523438 109.042969 C 131.636719 107.914062 133.074219 107.351562 134.84375 107.351562 C 136.609375 107.351562 138.058594 107.902344 139.195312 108.996094 C 140.328125 110.097656 140.894531 111.5625 140.894531 113.394531 C 140.894531 113.816406 140.867188 114.207031 140.808594 114.570312 L 131.996094 114.570312 C 132.070312 115.355469 132.359375 115.992188 132.867188 116.46875 C 133.378906 116.949219 134.023438 117.191406 134.8125 117.191406 C 135.871094 117.191406 136.65625 116.753906 137.167969 115.882812 L 140.480469 115.882812 C 140.132812 117.03125 139.457031 117.96875 138.453125 118.695312 C 137.449219 119.421875 136.234375 119.785156 134.8125 119.785156 Z M 136.828125 110.667969 C 136.285156 110.1875 135.625 109.949219 134.855469 109.949219 C 134.085938 109.949219 133.441406 110.1875 132.925781 110.667969 C 132.410156 111.148438 132.101562 111.789062 132 112.589844 L 137.714844 112.589844 C 137.671875 111.789062 137.378906 111.148438 136.832031 110.667969 Z M 136.828125 110.667969 " fill-opacity="1" fill-rule="nonzero"/><path fill="#27444e" d="M 149.863281 119.613281 L 149.863281 104.386719 L 159.285156 104.386719 L 159.285156 106.742188 L 152.9375 106.742188 L 152.9375 110.734375 L 157.777344 110.734375 L 157.777344 113.089844 L 152.9375 113.089844 L 152.9375 119.609375 L 149.863281 119.609375 Z M 149.863281 119.613281 " fill-opacity="1" fill-rule="nonzero"/><path fill="#27444e" d="M 166.808594 119.785156 C 165.046875 119.785156 163.613281 119.214844 162.511719 118.070312 C 161.40625 116.933594 160.851562 115.421875 160.851562 113.546875 C 160.851562 111.667969 161.410156 110.167969 162.519531 109.042969 C 163.632812 107.914062 165.070312 107.351562 166.839844 107.351562 C 168.605469 107.351562 170.054688 107.902344 171.191406 108.996094 C 172.324219 110.097656 172.890625 111.5625 172.890625 113.394531 C 172.890625 113.816406 172.863281 114.207031 172.804688 114.570312 L 163.992188 114.570312 C 164.066406 115.355469 164.355469 115.992188 164.867188 116.46875 C 165.375 116.949219 166.019531 117.191406 166.808594 117.191406 C 167.867188 117.191406 168.652344 116.753906 169.164062 115.882812 L 172.476562 115.882812 C 172.128906 117.03125 171.453125 117.96875 170.449219 118.695312 C 169.445312 119.421875 168.230469 119.785156 166.808594 119.785156 Z M 168.824219 110.667969 C 168.28125 110.1875 167.621094 109.949219 166.851562 109.949219 C 166.082031 109.949219 165.4375 110.1875 164.921875 110.667969 C 164.40625 111.148438 164.097656 111.789062 163.996094 112.589844 L 169.710938 112.589844 C 169.667969 111.789062 169.375 111.148438 168.828125 110.667969 Z M 168.824219 110.667969 " fill-opacity="1" fill-rule="nonzero"/><path fill="#27444e" d="M 175.3125 103.46875 L 178.386719 103.46875 L 178.386719 119.613281 L 175.3125 119.613281 Z M 175.3125 103.46875 " fill-opacity="1" fill-rule="nonzero"/><path fill="#27444e" d="M 181.660156 103.46875 L 184.734375 103.46875 L 184.734375 119.613281 L 181.660156 119.613281 Z M 181.660156 103.46875 " fill-opacity="1" fill-rule="nonzero"/><path fill="#27444e" d="M 191.082031 107.527344 L 191.082031 109.339844 C 191.855469 108.015625 193.101562 107.351562 194.835938 107.351562 C 196.214844 107.351562 197.339844 107.804688 198.214844 108.714844 C 199.085938 109.625 199.523438 110.886719 199.523438 112.5 L 199.523438 119.613281 L 196.46875 119.613281 L 196.46875 112.9375 C 196.46875 111.992188 196.230469 111.265625 195.75 110.765625 C 195.269531 110.265625 194.613281 110.015625 193.785156 110.015625 C 192.960938 110.015625 192.296875 110.265625 191.8125 110.765625 C 191.328125 111.265625 191.082031 111.992188 191.082031 112.9375 L 191.082031 119.613281 L 188.007812 119.613281 L 188.007812 107.527344 Z M 191.082031 107.527344 " fill-opacity="1" fill-rule="nonzero"/><path fill="#27444e" d="M 207.789062 119.785156 C 206.03125 119.785156 204.597656 119.214844 203.492188 118.070312 C 202.390625 116.933594 201.835938 115.421875 201.835938 113.546875 C 201.835938 111.667969 202.390625 110.167969 203.503906 109.042969 C 204.613281 107.914062 206.054688 107.351562 207.820312 107.351562 C 209.585938 107.351562 211.039062 107.902344 212.171875 108.996094 C 213.308594 110.097656 213.875 111.5625 213.875 113.394531 C 213.875 113.816406 213.847656 114.207031 213.785156 114.570312 L 204.976562 114.570312 C 205.046875 115.355469 205.339844 115.992188 205.847656 116.46875 C 206.355469 116.949219 207.003906 117.191406 207.789062 117.191406 C 208.851562 117.191406 209.636719 116.753906 210.144531 115.882812 L 213.460938 115.882812 C 213.109375 117.03125 212.433594 117.96875 211.433594 118.695312 C 210.429688 119.421875 209.214844 119.785156 207.789062 119.785156 Z M 209.808594 110.667969 C 209.265625 110.1875 208.605469 109.949219 207.835938 109.949219 C 207.066406 109.949219 206.421875 110.1875 205.90625 110.667969 C 205.390625 111.148438 205.082031 111.789062 204.980469 112.589844 L 210.695312 112.589844 C 210.652344 111.789062 210.359375 111.148438 209.816406 110.667969 Z M 209.808594 110.667969 " fill-opacity="1" fill-rule="nonzero"/><path fill="#27444e" d="M 219.375 107.527344 L 219.375 109.664062 C 220.1875 108.125 221.363281 107.355469 222.90625 107.355469 L 222.90625 110.496094 L 222.144531 110.496094 C 221.226562 110.496094 220.535156 110.726562 220.074219 111.183594 C 219.609375 111.640625 219.375 112.429688 219.375 113.546875 L 219.375 119.613281 L 216.300781 119.613281 L 216.300781 107.527344 Z M 219.375 107.527344 " fill-opacity="1" fill-rule="nonzero"/><path fill="#9f7367" d="M 34.835938 136.40625 L 39.222656 142.488281 C 39.832031 141.34375 40.261719 140.46875 40.507812 139.859375 C 40.75 139.246094 40.875 138.730469 40.875 138.304688 C 40.875 137.457031 40.265625 136.945312 39.050781 136.773438 L 39.050781 136.5 L 44.152344 136.5 L 44.152344 136.761719 C 43.75 136.796875 43.421875 136.863281 43.167969 136.964844 C 42.914062 137.066406 42.675781 137.21875 42.445312 137.429688 C 42 137.851562 41.449219 138.738281 40.796875 140.105469 L 40.386719 140.941406 C 40.167969 141.414062 39.851562 142.03125 39.429688 142.792969 C 39.765625 143.226562 40.152344 143.695312 40.605469 144.199219 C 41.054688 144.703125 41.453125 145.117188 41.804688 145.4375 C 42.300781 145.890625 42.738281 146.222656 43.109375 146.429688 C 43.480469 146.636719 43.84375 146.734375 44.191406 146.734375 C 44.566406 146.734375 44.882812 146.628906 45.132812 146.421875 C 45.386719 146.210938 45.609375 145.871094 45.800781 145.398438 L 46.066406 145.519531 C 45.628906 147.003906 44.6875 147.746094 43.246094 147.746094 C 42.765625 147.746094 42.261719 147.652344 41.738281 147.46875 C 41.214844 147.289062 40.738281 147.035156 40.308594 146.710938 C 39.652344 146.21875 38.976562 145.5625 38.277344 144.730469 C 37.890625 145.292969 37.578125 145.707031 37.332031 145.988281 C 36.824219 146.558594 36.230469 146.992188 35.554688 147.296875 C 34.878906 147.597656 34.152344 147.746094 33.382812 147.746094 C 32.671875 147.746094 31.988281 147.613281 31.328125 147.355469 C 30.667969 147.089844 30.128906 146.734375 29.710938 146.277344 C 28.929688 145.449219 28.542969 144.402344 28.542969 143.132812 C 28.542969 141.863281 28.917969 140.746094 29.667969 139.726562 C 29.964844 139.324219 30.320312 138.945312 30.738281 138.589844 C 31.152344 138.238281 31.722656 137.824219 32.445312 137.351562 L 32.65625 137.207031 C 32.113281 136.4375 31.730469 135.832031 31.503906 135.386719 C 30.96875 134.355469 30.703125 133.433594 30.703125 132.621094 C 30.703125 132.117188 30.824219 131.613281 31.070312 131.117188 C 31.378906 130.460938 31.828125 129.960938 32.421875 129.621094 C 33.019531 129.28125 33.730469 129.109375 34.5625 129.109375 C 35.648438 129.109375 36.542969 129.40625 37.242188 129.996094 C 37.941406 130.585938 38.292969 131.34375 38.292969 132.269531 C 38.292969 132.953125 38.109375 133.558594 37.753906 134.085938 C 37.394531 134.617188 36.8125 135.132812 36.003906 135.640625 C 35.433594 136.003906 35.042969 136.261719 34.832031 136.414062 Z M 32.945312 137.570312 C 32.222656 138.015625 31.664062 138.636719 31.261719 139.433594 C 30.863281 140.226562 30.660156 141.117188 30.660156 142.09375 C 30.660156 142.769531 30.765625 143.417969 30.976562 144.046875 C 31.183594 144.675781 31.46875 145.210938 31.828125 145.648438 C 32.160156 146.039062 32.558594 146.347656 33.027344 146.566406 C 33.492188 146.785156 33.984375 146.894531 34.5 146.894531 C 35.3125 146.894531 36.035156 146.640625 36.675781 146.132812 C 36.910156 145.9375 37.121094 145.722656 37.316406 145.488281 C 37.507812 145.253906 37.75 144.910156 38.035156 144.457031 L 32.9375 137.574219 Z M 34.585938 136.117188 C 34.996094 135.792969 35.300781 135.511719 35.507812 135.265625 C 35.710938 135.019531 35.894531 134.730469 36.050781 134.386719 C 36.355469 133.742188 36.507812 133.046875 36.507812 132.304688 C 36.507812 131.429688 36.300781 130.734375 35.882812 130.21875 C 35.464844 129.703125 34.902344 129.445312 34.195312 129.445312 C 33.585938 129.445312 33.09375 129.640625 32.71875 130.039062 C 32.34375 130.429688 32.15625 130.941406 32.15625 131.570312 C 32.15625 131.949219 32.230469 132.324219 32.382812 132.699219 C 32.539062 133.074219 32.824219 133.589844 33.253906 134.246094 C 33.664062 134.875 34.109375 135.5 34.585938 136.121094 Z M 34.585938 136.117188 " fill-opacity="1" fill-rule="nonzero"/><path fill="#27444e" d="M 52.800781 144.679688 C 51.300781 143.210938 50.554688 141.351562 50.554688 139.09375 C 50.554688 136.839844 51.304688 134.980469 52.808594 133.511719 C 54.3125 132.042969 56.15625 131.308594 58.339844 131.308594 C 60 131.308594 61.46875 131.730469 62.757812 132.574219 C 64.042969 133.417969 64.960938 134.601562 65.515625 136.128906 L 61.828125 136.128906 C 61.144531 134.789062 59.984375 134.121094 58.339844 134.121094 C 56.957031 134.121094 55.835938 134.578125 54.972656 135.488281 C 54.109375 136.394531 53.675781 137.601562 53.675781 139.109375 C 53.675781 140.613281 54.109375 141.820312 54.972656 142.730469 C 55.835938 143.636719 56.960938 144.09375 58.339844 144.09375 C 59.96875 144.09375 61.132812 143.425781 61.828125 142.085938 L 65.515625 142.085938 C 64.964844 143.613281 64.042969 144.796875 62.757812 145.632812 C 61.46875 146.46875 59.996094 146.886719 58.339844 146.886719 C 56.144531 146.886719 54.296875 146.148438 52.800781 144.683594 Z M 52.800781 144.679688 " fill-opacity="1" fill-rule="nonzero"/><path fill="#27444e" d="M 68.953125 145.167969 C 67.867188 144 67.328125 142.503906 67.328125 140.6875 C 67.328125 138.867188 67.863281 137.382812 68.941406 136.226562 C 70.015625 135.070312 71.382812 134.496094 73.042969 134.496094 C 74.699219 134.496094 75.964844 135.175781 76.835938 136.542969 L 76.835938 134.667969 L 79.890625 134.667969 L 79.890625 146.753906 L 76.835938 146.753906 L 76.835938 144.726562 C 75.921875 146.195312 74.644531 146.929688 73.019531 146.929688 C 71.390625 146.929688 70.035156 146.34375 68.953125 145.171875 Z M 75.875 143.316406 C 76.515625 142.683594 76.835938 141.8125 76.835938 140.707031 C 76.835938 139.601562 76.515625 138.734375 75.875 138.101562 C 75.238281 137.46875 74.488281 137.152344 73.628906 137.152344 C 72.769531 137.152344 72.027344 137.464844 71.394531 138.089844 C 70.761719 138.714844 70.445312 139.582031 70.445312 140.683594 C 70.445312 141.789062 70.765625 142.664062 71.402344 143.300781 C 72.042969 143.941406 72.789062 144.261719 73.640625 144.261719 C 74.492188 144.261719 75.238281 143.945312 75.875 143.3125 Z M 75.875 143.316406 " fill-opacity="1" fill-rule="nonzero"/><path fill="#27444e" d="M 86.234375 136.542969 C 87.09375 135.175781 88.351562 134.496094 90.007812 134.496094 C 91.667969 134.496094 93.035156 135.070312 94.109375 136.226562 C 95.183594 137.382812 95.722656 138.875 95.722656 140.699219 C 95.722656 142.519531 95.183594 144.015625 94.109375 145.179688 C 93.035156 146.34375 91.675781 146.925781 90.042969 146.925781 C 88.40625 146.925781 87.136719 146.191406 86.234375 144.722656 L 86.234375 146.75 L 83.160156 146.75 L 83.160156 130.609375 L 86.234375 130.609375 Z M 91.65625 143.304688 C 92.289062 142.664062 92.605469 141.792969 92.605469 140.6875 C 92.605469 139.582031 92.289062 138.714844 91.65625 138.09375 C 91.023438 137.46875 90.28125 137.152344 89.421875 137.152344 C 88.5625 137.152344 87.816406 137.46875 87.183594 138.101562 C 86.550781 138.734375 86.234375 139.605469 86.234375 140.710938 C 86.234375 141.816406 86.550781 142.683594 87.183594 143.316406 C 87.816406 143.949219 88.5625 144.265625 89.421875 144.265625 C 90.28125 144.265625 91.023438 143.949219 91.65625 143.308594 Z M 91.65625 143.304688 " fill-opacity="1" fill-rule="nonzero"/><path fill="#27444e" d="M 98.921875 145.167969 C 97.835938 144 97.296875 142.503906 97.296875 140.6875 C 97.296875 138.867188 97.832031 137.382812 98.910156 136.226562 C 99.984375 135.070312 101.351562 134.496094 103.011719 134.496094 C 104.667969 134.496094 105.933594 135.175781 106.804688 136.542969 L 106.804688 134.667969 L 109.859375 134.667969 L 109.859375 146.753906 L 106.804688 146.753906 L 106.804688 144.726562 C 105.890625 146.195312 104.617188 146.929688 102.988281 146.929688 C 101.359375 146.929688 100.003906 146.34375 98.921875 145.171875 Z M 105.84375 143.316406 C 106.484375 142.683594 106.800781 141.8125 106.800781 140.707031 C 106.800781 139.601562 106.484375 138.734375 105.84375 138.101562 C 105.203125 137.46875 104.457031 137.152344 103.597656 137.152344 C 102.738281 137.152344 101.992188 137.464844 101.359375 138.089844 C 100.726562 138.714844 100.410156 139.582031 100.410156 140.683594 C 100.410156 141.789062 100.730469 142.664062 101.371094 143.300781 C 102.011719 143.941406 102.753906 144.261719 103.605469 144.261719 C 104.457031 144.261719 105.203125 143.945312 105.84375 143.3125 Z M 105.84375 143.316406 " fill-opacity="1" fill-rule="nonzero"/><path fill="#27444e" d="M 116.203125 134.667969 L 116.203125 136.480469 C 116.976562 135.15625 118.226562 134.496094 119.953125 134.496094 C 121.335938 134.496094 122.460938 134.949219 123.335938 135.859375 C 124.207031 136.765625 124.644531 138.027344 124.644531 139.640625 L 124.644531 146.753906 L 121.589844 146.753906 L 121.589844 140.078125 C 121.589844 139.132812 121.351562 138.410156 120.871094 137.910156 C 120.390625 137.40625 119.734375 137.15625 118.90625 137.15625 C 118.078125 137.15625 117.417969 137.40625 116.933594 137.910156 C 116.445312 138.410156 116.203125 139.132812 116.203125 140.078125 L 116.203125 146.753906 L 113.128906 146.753906 L 113.128906 134.667969 Z M 116.203125 134.667969 " fill-opacity="1" fill-rule="nonzero"/><path fill="#27444e" d="M 128.582031 145.167969 C 127.5 144 126.957031 142.503906 126.957031 140.6875 C 126.957031 138.867188 127.492188 137.382812 128.570312 136.226562 C 129.648438 135.070312 131.015625 134.496094 132.671875 134.496094 C 134.332031 134.496094 135.59375 135.175781 136.46875 136.542969 L 136.46875 134.667969 L 139.519531 134.667969 L 139.519531 146.753906 L 136.46875 146.753906 L 136.46875 144.726562 C 135.550781 146.195312 134.277344 146.929688 132.648438 146.929688 C 131.023438 146.929688 129.664062 146.34375 128.582031 145.171875 Z M 135.507812 143.316406 C 136.148438 142.683594 136.46875 141.8125 136.46875 140.707031 C 136.46875 139.601562 136.148438 138.734375 135.507812 138.101562 C 134.867188 137.46875 134.121094 137.152344 133.261719 137.152344 C 132.402344 137.152344 131.65625 137.464844 131.023438 138.089844 C 130.394531 138.714844 130.074219 139.582031 130.074219 140.683594 C 130.074219 141.789062 130.394531 142.664062 131.035156 143.300781 C 131.675781 143.941406 132.421875 144.261719 133.269531 144.261719 C 134.121094 144.261719 134.867188 143.945312 135.507812 143.3125 Z M 135.507812 143.316406 " fill-opacity="1" fill-rule="nonzero"/><path fill="#27444e" d="M 149.335938 146.75 L 149.335938 131.527344 L 158.757812 131.527344 L 158.757812 133.878906 L 152.410156 133.878906 L 152.410156 137.875 L 157.25 137.875 L 157.25 140.226562 L 152.410156 140.226562 L 152.410156 146.75 Z M 149.335938 146.75 " fill-opacity="1" fill-rule="nonzero"/><path fill="#27444e" d="M 169.511719 134.667969 L 172.585938 134.667969 L 172.585938 146.753906 L 169.511719 146.753906 L 169.511719 144.921875 C 168.738281 146.246094 167.484375 146.910156 165.738281 146.910156 C 164.371094 146.910156 163.25 146.453125 162.378906 145.542969 C 161.507812 144.636719 161.070312 143.375 161.070312 141.761719 L 161.070312 134.671875 L 164.125 134.671875 L 164.125 141.324219 C 164.125 142.269531 164.363281 142.996094 164.84375 143.507812 C 165.324219 144.015625 165.980469 144.269531 166.808594 144.269531 C 167.636719 144.269531 168.292969 144.015625 168.78125 143.507812 C 169.269531 143 169.511719 142.269531 169.511719 141.324219 Z M 169.511719 134.667969 " fill-opacity="1" fill-rule="nonzero"/><path fill="#27444e" d="M 175.183594 138.199219 C 175.183594 137.152344 175.625 136.273438 176.511719 135.5625 C 177.402344 134.851562 178.578125 134.496094 180.046875 134.496094 C 181.515625 134.496094 182.695312 134.847656 183.582031 135.550781 C 184.46875 136.253906 184.941406 137.210938 185 138.417969 L 181.859375 138.417969 C 181.769531 137.402344 181.144531 136.894531 179.984375 136.894531 C 179.398438 136.894531 178.949219 137.007812 178.632812 137.242188 C 178.3125 137.472656 178.152344 137.792969 178.152344 138.199219 C 178.152344 138.609375 178.390625 138.929688 178.871094 139.160156 C 179.351562 139.390625 179.933594 139.574219 180.617188 139.703125 C 181.300781 139.835938 181.980469 140 182.65625 140.195312 C 183.332031 140.390625 183.910156 140.738281 184.390625 141.242188 C 184.871094 141.746094 185.109375 142.40625 185.109375 143.238281 C 185.109375 144.328125 184.648438 145.214844 183.726562 145.898438 C 182.800781 146.582031 181.621094 146.921875 180.191406 146.921875 C 178.761719 146.921875 177.582031 146.585938 176.667969 145.910156 C 175.753906 145.234375 175.25 144.265625 175.164062 143 L 178.304688 143 C 178.421875 144.015625 179.070312 144.523438 180.25 144.523438 C 180.816406 144.523438 181.273438 144.398438 181.621094 144.144531 C 181.972656 143.886719 182.148438 143.554688 182.148438 143.140625 C 182.148438 142.726562 181.90625 142.398438 181.425781 142.15625 C 180.945312 141.917969 180.363281 141.730469 179.679688 141.601562 C 178.996094 141.46875 178.316406 141.308594 177.640625 141.121094 C 176.964844 140.933594 176.386719 140.59375 175.90625 140.105469 C 175.425781 139.621094 175.1875 138.984375 175.1875 138.199219 Z M 175.183594 138.199219 " fill-opacity="1" fill-rule="nonzero"/><path fill="#27444e" d="M 195.769531 134.667969 L 195.769531 137.175781 L 190.6875 144.222656 L 195.769531 144.222656 L 195.769531 146.75 L 187.113281 146.75 L 187.113281 144.222656 L 192.214844 137.175781 L 187.113281 137.175781 L 187.113281 134.667969 Z M 195.769531 134.667969 " fill-opacity="1" fill-rule="nonzero"/><path fill="#9f7367" d="M 41.886719 167.429688 L 41.886719 159.675781 L 49.839844 159.675781 L 49.839844 160.535156 L 42.96875 160.535156 L 42.96875 163.058594 L 48.382812 163.058594 L 48.382812 163.929688 L 42.96875 163.929688 L 42.96875 166.554688 L 49.828125 166.554688 L 49.828125 167.425781 L 41.886719 167.425781 Z M 41.886719 167.429688 " fill-opacity="1" fill-rule="nonzero"/><path fill="#9f7367" d="M 56.21875 167.542969 C 55.71875 167.542969 55.253906 167.511719 54.828125 167.449219 C 54.402344 167.382812 54.039062 167.296875 53.734375 167.1875 C 53.433594 167.082031 53.160156 166.949219 52.921875 166.800781 C 52.679688 166.648438 52.488281 166.492188 52.335938 166.324219 C 52.183594 166.15625 52.058594 165.976562 51.957031 165.785156 C 51.859375 165.59375 51.792969 165.414062 51.753906 165.238281 C 51.714844 165.0625 51.695312 164.882812 51.695312 164.703125 L 52.785156 164.703125 C 52.785156 164.988281 52.847656 165.25 52.96875 165.480469 C 53.09375 165.710938 53.289062 165.917969 53.550781 166.097656 C 53.8125 166.28125 54.167969 166.421875 54.625 166.519531 C 55.078125 166.621094 55.609375 166.671875 56.226562 166.671875 C 58.375 166.683594 59.453125 166.238281 59.464844 165.332031 C 59.472656 164.902344 59.203125 164.582031 58.65625 164.378906 C 58.109375 164.175781 57.21875 164.058594 55.992188 164.03125 C 55.6875 164.023438 55.421875 164.015625 55.1875 164 C 54.949219 163.988281 54.675781 163.960938 54.363281 163.921875 C 54.046875 163.878906 53.773438 163.832031 53.539062 163.769531 C 53.304688 163.707031 53.066406 163.621094 52.820312 163.515625 C 52.574219 163.40625 52.375 163.277344 52.21875 163.136719 C 52.0625 162.996094 51.933594 162.816406 51.832031 162.601562 C 51.730469 162.390625 51.679688 162.152344 51.679688 161.890625 C 51.679688 161.148438 52.058594 160.574219 52.816406 160.167969 C 53.574219 159.761719 54.640625 159.558594 56.015625 159.558594 C 56.523438 159.558594 56.984375 159.589844 57.410156 159.65625 C 57.835938 159.71875 58.199219 159.808594 58.503906 159.921875 C 58.8125 160.035156 59.085938 160.167969 59.328125 160.324219 C 59.570312 160.484375 59.765625 160.648438 59.917969 160.820312 C 60.070312 160.988281 60.195312 161.175781 60.296875 161.367188 C 60.394531 161.5625 60.464844 161.753906 60.503906 161.933594 C 60.542969 162.113281 60.5625 162.296875 60.5625 162.480469 L 59.46875 162.480469 C 59.46875 162.1875 59.40625 161.917969 59.277344 161.675781 C 59.152344 161.4375 58.960938 161.222656 58.695312 161.027344 C 58.433594 160.835938 58.074219 160.683594 57.621094 160.574219 C 57.167969 160.46875 56.628906 160.414062 56.011719 160.410156 C 54.980469 160.402344 54.183594 160.527344 53.617188 160.785156 C 53.050781 161.039062 52.765625 161.40625 52.761719 161.882812 C 52.761719 162.300781 53.023438 162.609375 53.539062 162.808594 C 54.058594 163.011719 54.882812 163.128906 56.011719 163.164062 C 56.355469 163.175781 56.652344 163.1875 56.910156 163.203125 C 57.164062 163.214844 57.460938 163.242188 57.796875 163.285156 C 58.132812 163.324219 58.417969 163.378906 58.660156 163.4375 C 58.898438 163.5 59.148438 163.582031 59.402344 163.691406 C 59.65625 163.800781 59.863281 163.925781 60.023438 164.070312 C 60.179688 164.214844 60.3125 164.394531 60.410156 164.609375 C 60.511719 164.820312 60.5625 165.058594 60.5625 165.320312 C 60.5625 166.050781 60.191406 166.605469 59.4375 166.980469 C 58.6875 167.355469 57.617188 167.542969 56.214844 167.542969 Z M 56.21875 167.542969 " fill-opacity="1" fill-rule="nonzero"/><path fill="#9f7367" d="M 63.894531 167.429688 L 63.894531 160.539062 L 61.992188 160.539062 L 61.992188 159.679688 L 66.90625 159.679688 L 66.90625 160.539062 L 64.988281 160.539062 L 64.988281 167.429688 Z M 63.894531 167.429688 " fill-opacity="1" fill-rule="nonzero"/><path fill="#9f7367" d="M 73.339844 167.542969 C 72.4375 167.542969 71.652344 167.402344 70.980469 167.125 C 70.304688 166.847656 69.785156 166.4375 69.414062 165.890625 C 69.046875 165.351562 68.859375 164.703125 68.859375 163.953125 L 68.859375 159.675781 L 69.945312 159.675781 L 69.945312 163.953125 C 69.945312 164.335938 70.003906 164.683594 70.125 164.992188 C 70.246094 165.300781 70.410156 165.558594 70.613281 165.765625 C 70.820312 165.972656 71.070312 166.144531 71.359375 166.285156 C 71.652344 166.421875 71.960938 166.523438 72.292969 166.585938 C 72.621094 166.648438 72.976562 166.679688 73.347656 166.679688 C 73.703125 166.679688 74.039062 166.648438 74.347656 166.589844 C 74.65625 166.53125 74.949219 166.433594 75.226562 166.292969 C 75.503906 166.15625 75.738281 165.984375 75.9375 165.777344 C 76.132812 165.570312 76.292969 165.3125 76.40625 165.003906 C 76.519531 164.695312 76.578125 164.34375 76.578125 163.953125 L 76.578125 159.675781 L 77.65625 159.675781 L 77.65625 163.953125 C 77.65625 165.082031 77.277344 165.964844 76.519531 166.597656 C 75.761719 167.226562 74.699219 167.546875 73.339844 167.546875 Z M 73.339844 167.542969 " fill-opacity="1" fill-rule="nonzero"/><path fill="#9f7367" d="M 79.613281 167.429688 L 79.613281 159.664062 L 84.539062 159.675781 C 85.261719 159.679688 85.921875 159.761719 86.523438 159.914062 C 87.121094 160.074219 87.644531 160.304688 88.09375 160.613281 C 88.546875 160.925781 88.898438 161.328125 89.148438 161.824219 C 89.398438 162.324219 89.519531 162.890625 89.515625 163.539062 C 89.511719 164.183594 89.378906 164.753906 89.117188 165.257812 C 88.851562 165.761719 88.496094 166.167969 88.039062 166.480469 C 87.582031 166.792969 87.054688 167.027344 86.464844 167.1875 C 85.871094 167.347656 85.230469 167.429688 84.539062 167.429688 Z M 80.675781 166.558594 L 84.542969 166.558594 C 84.902344 166.558594 85.253906 166.53125 85.589844 166.476562 C 85.929688 166.421875 86.273438 166.324219 86.625 166.1875 C 86.976562 166.042969 87.28125 165.867188 87.542969 165.648438 C 87.804688 165.433594 88.015625 165.144531 88.183594 164.78125 C 88.347656 164.421875 88.429688 164.011719 88.425781 163.550781 C 88.425781 163.210938 88.382812 162.898438 88.296875 162.617188 C 88.214844 162.332031 88.101562 162.085938 87.960938 161.882812 C 87.820312 161.675781 87.644531 161.496094 87.445312 161.335938 C 87.242188 161.175781 87.03125 161.046875 86.808594 160.949219 C 86.585938 160.851562 86.34375 160.769531 86.082031 160.707031 C 85.816406 160.644531 85.5625 160.597656 85.3125 160.574219 C 85.066406 160.554688 84.8125 160.539062 84.542969 160.539062 L 80.675781 160.539062 Z M 80.675781 166.558594 " fill-opacity="1" fill-rule="nonzero"/><path fill="#9f7367" d="M 91.464844 159.675781 L 92.546875 159.675781 L 92.546875 167.429688 L 91.464844 167.429688 Z M 91.464844 159.675781 " fill-opacity="1" fill-rule="nonzero"/><path fill="#9f7367" d="M 99.605469 167.542969 C 98.589844 167.542969 97.6875 167.378906 96.902344 167.046875 C 96.117188 166.71875 95.507812 166.246094 95.070312 165.640625 C 94.636719 165.03125 94.417969 164.332031 94.410156 163.539062 C 94.40625 163.066406 94.488281 162.621094 94.648438 162.207031 C 94.8125 161.789062 95.046875 161.425781 95.351562 161.105469 C 95.65625 160.785156 96.019531 160.511719 96.445312 160.28125 C 96.871094 160.046875 97.351562 159.871094 97.886719 159.75 C 98.425781 159.628906 98.996094 159.570312 99.605469 159.570312 C 100.214844 159.570312 100.800781 159.628906 101.34375 159.75 C 101.890625 159.871094 102.371094 160.046875 102.800781 160.28125 C 103.226562 160.511719 103.59375 160.785156 103.902344 161.105469 C 104.207031 161.425781 104.441406 161.789062 104.605469 162.207031 C 104.765625 162.621094 104.847656 163.066406 104.84375 163.539062 C 104.839844 164.335938 104.617188 165.035156 104.179688 165.640625 C 103.742188 166.246094 103.128906 166.71875 102.335938 167.046875 C 101.542969 167.378906 100.632812 167.542969 99.605469 167.542969 Z M 95.496094 163.550781 C 95.496094 163.910156 95.550781 164.238281 95.65625 164.542969 C 95.765625 164.847656 95.921875 165.113281 96.117188 165.335938 C 96.3125 165.566406 96.542969 165.761719 96.804688 165.9375 C 97.066406 166.109375 97.351562 166.25 97.660156 166.355469 C 97.972656 166.464844 98.289062 166.542969 98.613281 166.597656 C 98.9375 166.648438 99.269531 166.675781 99.605469 166.675781 C 100.019531 166.675781 100.421875 166.640625 100.8125 166.566406 C 101.207031 166.492188 101.582031 166.371094 101.941406 166.203125 C 102.300781 166.039062 102.613281 165.835938 102.882812 165.597656 C 103.148438 165.359375 103.363281 165.066406 103.523438 164.714844 C 103.679688 164.363281 103.757812 163.976562 103.753906 163.550781 C 103.75 163.121094 103.667969 162.726562 103.507812 162.375 C 103.347656 162.019531 103.136719 161.722656 102.871094 161.488281 C 102.605469 161.25 102.292969 161.050781 101.933594 160.886719 C 101.570312 160.726562 101.199219 160.605469 100.8125 160.535156 C 100.421875 160.460938 100.023438 160.425781 99.605469 160.425781 C 99.1875 160.425781 98.804688 160.460938 98.417969 160.535156 C 98.035156 160.605469 97.667969 160.726562 97.3125 160.886719 C 96.953125 161.050781 96.644531 161.25 96.378906 161.488281 C 96.109375 161.722656 95.898438 162.019531 95.738281 162.375 C 95.578125 162.726562 95.496094 163.121094 95.496094 163.550781 Z M 95.496094 163.550781 " fill-opacity="1" fill-rule="nonzero"/><path fill="#9f7367" d="M 113.855469 167.542969 C 112.445312 167.542969 111.3125 167.269531 110.460938 166.722656 L 110.972656 165.890625 C 111.34375 166.152344 111.792969 166.347656 112.316406 166.480469 C 112.84375 166.613281 113.355469 166.679688 113.855469 166.679688 C 114.164062 166.679688 114.472656 166.648438 114.785156 166.585938 C 115.097656 166.523438 115.421875 166.417969 115.753906 166.261719 C 116.089844 166.109375 116.382812 165.921875 116.636719 165.691406 C 116.890625 165.460938 117.097656 165.164062 117.261719 164.792969 C 117.425781 164.425781 117.507812 164.007812 117.507812 163.550781 L 117.507812 159.675781 L 118.605469 159.675781 L 118.605469 163.542969 C 118.605469 164.058594 118.519531 164.535156 118.351562 164.972656 C 118.183594 165.414062 117.953125 165.785156 117.65625 166.097656 C 117.359375 166.410156 117.011719 166.675781 116.609375 166.894531 C 116.207031 167.113281 115.773438 167.28125 115.308594 167.386719 C 114.84375 167.492188 114.359375 167.546875 113.855469 167.546875 Z M 113.855469 167.542969 " fill-opacity="1" fill-rule="nonzero"/><path fill="#9f7367" d="M 125.039062 167.542969 C 124.136719 167.542969 123.351562 167.402344 122.679688 167.125 C 122.003906 166.847656 121.484375 166.4375 121.113281 165.890625 C 120.746094 165.351562 120.5625 164.703125 120.5625 163.953125 L 120.5625 159.675781 L 121.644531 159.675781 L 121.644531 163.953125 C 121.644531 164.335938 121.703125 164.683594 121.824219 164.992188 C 121.945312 165.300781 122.109375 165.558594 122.316406 165.765625 C 122.519531 165.972656 122.769531 166.144531 123.058594 166.285156 C 123.351562 166.421875 123.660156 166.523438 123.992188 166.585938 C 124.320312 166.648438 124.675781 166.679688 125.046875 166.679688 C 125.40625 166.679688 125.738281 166.648438 126.046875 166.589844 C 126.355469 166.53125 126.648438 166.433594 126.925781 166.292969 C 127.203125 166.15625 127.441406 165.984375 127.636719 165.777344 C 127.835938 165.570312 127.992188 165.3125 128.105469 165.003906 C 128.21875 164.695312 128.277344 164.34375 128.277344 163.953125 L 128.277344 159.675781 L 129.355469 159.675781 L 129.355469 163.953125 C 129.355469 165.082031 128.976562 165.964844 128.21875 166.597656 C 127.460938 167.226562 126.398438 167.546875 125.039062 167.546875 Z M 125.039062 167.542969 " fill-opacity="1" fill-rule="nonzero"/><path fill="#9f7367" d="M 131.3125 167.429688 L 131.3125 159.675781 L 136.601562 159.675781 C 137.066406 159.675781 137.492188 159.726562 137.871094 159.828125 C 138.253906 159.929688 138.566406 160.0625 138.816406 160.230469 C 139.066406 160.398438 139.277344 160.589844 139.449219 160.820312 C 139.617188 161.042969 139.742188 161.277344 139.816406 161.519531 C 139.890625 161.761719 139.925781 162.015625 139.925781 162.273438 C 139.925781 162.730469 139.800781 163.171875 139.546875 163.585938 C 139.292969 164.003906 138.921875 164.328125 138.421875 164.5625 C 139.238281 165.003906 139.746094 165.960938 139.945312 167.429688 L 138.851562 167.429688 C 138.800781 167.101562 138.746094 166.820312 138.6875 166.589844 C 138.628906 166.363281 138.542969 166.136719 138.433594 165.917969 C 138.328125 165.699219 138.191406 165.523438 138.039062 165.394531 C 137.882812 165.265625 137.683594 165.160156 137.441406 165.082031 C 137.203125 165.003906 136.921875 164.964844 136.597656 164.964844 L 132.394531 164.964844 L 132.394531 167.429688 Z M 132.398438 164.101562 L 136.601562 164.101562 C 136.992188 164.101562 137.332031 164.050781 137.628906 163.945312 C 137.925781 163.84375 138.160156 163.703125 138.328125 163.527344 C 138.5 163.347656 138.625 163.15625 138.707031 162.945312 C 138.792969 162.734375 138.832031 162.511719 138.832031 162.273438 C 138.832031 162.035156 138.792969 161.828125 138.707031 161.628906 C 138.625 161.425781 138.503906 161.242188 138.332031 161.074219 C 138.160156 160.902344 137.933594 160.773438 137.636719 160.679688 C 137.339844 160.582031 136.992188 160.535156 136.601562 160.535156 L 132.398438 160.535156 Z M 132.398438 164.101562 " fill-opacity="1" fill-rule="nonzero"/><path fill="#9f7367" d="M 141.894531 167.429688 L 141.894531 159.675781 L 142.976562 159.675781 L 142.976562 167.429688 Z M 142.015625 159.347656 L 143 156.90625 L 144.105469 156.90625 L 143.132812 159.347656 L 142.011719 159.347656 Z M 142.015625 159.347656 " fill-opacity="1" fill-rule="nonzero"/><path fill="#9f7367" d="M 146.066406 167.429688 L 146.066406 159.664062 L 150.992188 159.675781 C 151.714844 159.679688 152.375 159.761719 152.972656 159.914062 C 153.570312 160.074219 154.09375 160.304688 154.546875 160.613281 C 154.996094 160.925781 155.347656 161.328125 155.597656 161.824219 C 155.847656 162.324219 155.972656 162.890625 155.964844 163.539062 C 155.964844 164.183594 155.828125 164.753906 155.570312 165.257812 C 155.304688 165.761719 154.949219 166.167969 154.492188 166.480469 C 154.035156 166.792969 153.507812 167.027344 152.917969 167.1875 C 152.324219 167.347656 151.683594 167.429688 150.992188 167.429688 Z M 147.125 166.558594 L 150.992188 166.558594 C 151.351562 166.558594 151.699219 166.53125 152.039062 166.476562 C 152.375 166.421875 152.722656 166.324219 153.074219 166.1875 C 153.421875 166.042969 153.730469 165.867188 153.992188 165.648438 C 154.25 165.433594 154.464844 165.144531 154.628906 164.78125 C 154.796875 164.421875 154.878906 164.011719 154.875 163.550781 C 154.875 163.210938 154.835938 162.898438 154.75 162.617188 C 154.664062 162.332031 154.554688 162.085938 154.410156 161.882812 C 154.269531 161.675781 154.097656 161.496094 153.894531 161.335938 C 153.691406 161.175781 153.480469 161.046875 153.257812 160.949219 C 153.035156 160.851562 152.792969 160.769531 152.53125 160.707031 C 152.269531 160.644531 152.011719 160.597656 151.765625 160.574219 C 151.515625 160.554688 151.261719 160.539062 150.992188 160.539062 L 147.128906 160.539062 L 147.128906 166.558594 Z M 147.125 166.558594 " fill-opacity="1" fill-rule="nonzero"/><path fill="#9f7367" d="M 157.910156 159.675781 L 158.996094 159.675781 L 158.996094 167.429688 L 157.910156 167.429688 Z M 157.910156 159.675781 " fill-opacity="1" fill-rule="nonzero"/><path fill="#9f7367" d="M 165.832031 167.542969 C 165.144531 167.542969 164.5 167.457031 163.90625 167.285156 C 163.308594 167.113281 162.785156 166.863281 162.332031 166.535156 C 161.878906 166.210938 161.523438 165.789062 161.257812 165.277344 C 160.996094 164.761719 160.863281 164.183594 160.859375 163.539062 C 160.855469 163.023438 160.933594 162.550781 161.097656 162.117188 C 161.257812 161.6875 161.488281 161.3125 161.78125 161 C 162.078125 160.6875 162.429688 160.421875 162.84375 160.203125 C 163.253906 159.988281 163.714844 159.828125 164.214844 159.71875 C 164.714844 159.613281 165.257812 159.558594 165.828125 159.558594 C 166.761719 159.558594 167.589844 159.671875 168.320312 159.890625 C 169.046875 160.113281 169.632812 160.457031 170.085938 160.921875 C 170.539062 161.386719 170.78125 161.945312 170.820312 162.597656 L 169.695312 162.597656 C 169.6875 162.308594 169.605469 162.039062 169.445312 161.792969 C 169.285156 161.546875 169.078125 161.339844 168.824219 161.175781 C 168.570312 161.007812 168.273438 160.867188 167.9375 160.75 C 167.601562 160.628906 167.257812 160.546875 166.902344 160.492188 C 166.546875 160.4375 166.191406 160.414062 165.828125 160.414062 C 165.46875 160.414062 165.09375 160.445312 164.75 160.5 C 164.402344 160.5625 164.054688 160.664062 163.707031 160.8125 C 163.359375 160.964844 163.058594 161.152344 162.804688 161.378906 C 162.550781 161.609375 162.34375 161.910156 162.183594 162.28125 C 162.027344 162.652344 161.945312 163.074219 161.941406 163.546875 C 161.9375 164.007812 162.019531 164.417969 162.183594 164.789062 C 162.351562 165.15625 162.566406 165.457031 162.832031 165.6875 C 163.09375 165.914062 163.398438 166.105469 163.75 166.257812 C 164.101562 166.410156 164.449219 166.519531 164.789062 166.582031 C 165.132812 166.640625 165.476562 166.671875 165.828125 166.671875 C 166.28125 166.671875 166.726562 166.628906 167.167969 166.542969 C 167.605469 166.453125 168.015625 166.324219 168.394531 166.15625 C 168.773438 165.988281 169.078125 165.761719 169.320312 165.480469 C 169.558594 165.199219 169.683594 164.882812 169.695312 164.523438 L 170.820312 164.523438 C 170.78125 165.175781 170.539062 165.730469 170.085938 166.191406 C 169.632812 166.652344 169.046875 166.992188 168.320312 167.210938 C 167.589844 167.433594 166.765625 167.542969 165.828125 167.542969 Z M 165.832031 167.542969 " fill-opacity="1" fill-rule="nonzero"/><path fill="#9f7367" d="M 177.972656 167.542969 C 176.957031 167.542969 176.054688 167.378906 175.269531 167.046875 C 174.484375 166.71875 173.875 166.246094 173.4375 165.640625 C 173.003906 165.03125 172.785156 164.332031 172.777344 163.539062 C 172.777344 163.066406 172.851562 162.621094 173.015625 162.207031 C 173.179688 161.789062 173.414062 161.425781 173.71875 161.105469 C 174.023438 160.785156 174.386719 160.511719 174.8125 160.28125 C 175.238281 160.046875 175.71875 159.871094 176.253906 159.75 C 176.792969 159.628906 177.363281 159.570312 177.972656 159.570312 C 178.582031 159.570312 179.167969 159.628906 179.710938 159.75 C 180.253906 159.871094 180.738281 160.046875 181.167969 160.28125 C 181.59375 160.511719 181.960938 160.785156 182.269531 161.105469 C 182.574219 161.425781 182.808594 161.789062 182.972656 162.207031 C 183.136719 162.621094 183.21875 163.066406 183.210938 163.539062 C 183.207031 164.335938 182.988281 165.035156 182.550781 165.640625 C 182.109375 166.246094 181.496094 166.71875 180.703125 167.046875 C 179.914062 167.378906 179.003906 167.542969 177.976562 167.542969 Z M 173.859375 163.550781 C 173.859375 163.910156 173.914062 164.238281 174.023438 164.542969 C 174.128906 164.847656 174.285156 165.113281 174.480469 165.335938 C 174.675781 165.566406 174.90625 165.761719 175.167969 165.9375 C 175.429688 166.109375 175.714844 166.25 176.027344 166.355469 C 176.335938 166.464844 176.652344 166.542969 176.976562 166.597656 C 177.300781 166.648438 177.632812 166.675781 177.96875 166.675781 C 178.382812 166.675781 178.785156 166.640625 179.179688 166.566406 C 179.570312 166.492188 179.945312 166.371094 180.304688 166.203125 C 180.664062 166.039062 180.976562 165.835938 181.246094 165.597656 C 181.515625 165.359375 181.726562 165.066406 181.886719 164.714844 C 182.042969 164.363281 182.125 163.976562 182.117188 163.550781 C 182.117188 163.121094 182.03125 162.726562 181.875 162.375 C 181.714844 162.019531 181.5 161.722656 181.234375 161.488281 C 180.96875 161.25 180.660156 161.050781 180.300781 160.886719 C 179.941406 160.726562 179.566406 160.605469 179.179688 160.535156 C 178.789062 160.460938 178.386719 160.425781 177.972656 160.425781 C 177.554688 160.425781 177.171875 160.460938 176.785156 160.535156 C 176.402344 160.605469 176.035156 160.726562 175.675781 160.886719 C 175.320312 161.050781 175.007812 161.25 174.742188 161.488281 C 174.476562 161.722656 174.265625 162.019531 174.105469 162.375 C 173.945312 162.730469 173.863281 163.121094 173.859375 163.550781 Z M 173.859375 163.550781 " fill-opacity="1" fill-rule="nonzero"/></svg>