<svg xmlns="http://www.w3.org/2000/svg" xmlns:xlink="http://www.w3.org/1999/xlink" width="300" zoomAndPan="magnify" viewBox="0 0 224.87999 74.999997" height="100" preserveAspectRatio="xMidYMid meet" version="1.0"><defs><clipPath id="79a4d111c7"><path d="M 186.4375 5.550781 L 220.730469 5.550781 L 220.730469 69.53125 L 186.4375 69.53125 Z M 186.4375 5.550781 " clip-rule="nonzero"/></clipPath><clipPath id="ad8a4bacbf"><path d="M 187.648438 69.390625 C 187.699219 69.5 187.859375 69.453125 187.839844 69.335938 C 187.375 66.574219 186.476562 57.214844 195.660156 57.011719 C 206.414062 56.769531 210.902344 50.144531 211.746094 48.71875 C 211.796875 48.632812 211.707031 48.535156 211.617188 48.574219 C 210.617188 49.035156 207.164062 50.578125 205.78125 50.804688 C 205.664062 50.820312 205.617188 50.660156 205.726562 50.613281 C 207.683594 49.777344 215.570312 45.6875 220.660156 32.410156 C 220.699219 32.300781 220.550781 32.21875 220.484375 32.316406 C 219.496094 33.707031 217.105469 36.863281 215.085938 37.804688 C 214.992188 37.847656 214.902344 37.734375 214.964844 37.652344 C 216.488281 35.664062 224.160156 23.78125 206.597656 5.601562 C 206.523438 5.523438 206.394531 5.601562 206.433594 5.703125 C 207.082031 7.472656 208.988281 14.238281 205.566406 25.757812 C 205.5625 25.777344 205.5625 25.800781 205.570312 25.824219 C 205.738281 26.210938 207.292969 30.089844 204.996094 33.921875 C 204.941406 34.019531 204.792969 33.960938 204.816406 33.851562 C 205.027344 32.789062 205.253906 30.421875 203.84375 27.972656 C 203.796875 27.890625 203.675781 27.914062 203.65625 28.003906 C 203.40625 29.414062 201.707031 36.109375 191.261719 45.339844 C 191.261719 45.339844 187.0625 49.421875 187.378906 56.175781 C 187.382812 56.253906 187.476562 56.296875 187.539062 56.25 C 189.6875 54.605469 214.035156 35.625 211.828125 22.722656 C 211.808594 22.609375 211.96875 22.558594 212.019531 22.664062 C 213.21875 25.265625 216.089844 36.457031 190.140625 55.839844 C 189.027344 56.671875 188.128906 57.769531 187.558594 59.035156 C 186.59375 61.183594 185.613281 64.875 187.648438 69.394531 " clip-rule="nonzero"/></clipPath><clipPath id="8feb9eb61a"><path d="M 0.4375 0.550781 L 34.730469 0.550781 L 34.730469 64.53125 L 0.4375 64.53125 Z M 0.4375 0.550781 " clip-rule="nonzero"/></clipPath><clipPath id="58b2936b2e"><path d="M 1.648438 64.390625 C 1.699219 64.5 1.859375 64.453125 1.839844 64.335938 C 1.375 61.574219 0.476562 52.214844 9.660156 52.011719 C 20.414062 51.769531 24.902344 45.144531 25.746094 43.71875 C 25.796875 43.632812 25.707031 43.535156 25.617188 43.574219 C 24.617188 44.035156 21.164062 45.578125 19.78125 45.804688 C 19.664062 45.820312 19.617188 45.660156 19.726562 45.613281 C 21.683594 44.777344 29.570312 40.6875 34.660156 27.410156 C 34.699219 27.300781 34.550781 27.21875 34.484375 27.316406 C 33.496094 28.707031 31.105469 31.863281 29.085938 32.804688 C 28.992188 32.847656 28.902344 32.734375 28.964844 32.652344 C 30.488281 30.664062 38.160156 18.78125 20.597656 0.601562 C 20.523438 0.523438 20.394531 0.601562 20.433594 0.703125 C 21.082031 2.472656 22.988281 9.238281 19.566406 20.757812 C 19.5625 20.777344 19.5625 20.800781 19.570312 20.824219 C 19.738281 21.210938 21.292969 25.089844 18.996094 28.921875 C 18.941406 29.019531 18.792969 28.960938 18.816406 28.851562 C 19.027344 27.789062 19.253906 25.421875 17.84375 22.972656 C 17.796875 22.890625 17.675781 22.914062 17.65625 23.003906 C 17.40625 24.414062 15.707031 31.109375 5.261719 40.339844 C 5.261719 40.339844 1.0625 44.421875 1.378906 51.175781 C 1.382812 51.253906 1.476562 51.296875 1.539062 51.25 C 3.6875 49.605469 28.035156 30.625 25.828125 17.722656 C 25.808594 17.609375 25.96875 17.558594 26.019531 17.664062 C 27.21875 20.265625 30.089844 31.457031 4.140625 50.839844 C 3.027344 51.671875 2.128906 52.769531 1.558594 54.035156 C 0.59375 56.183594 -0.386719 59.875 1.648438 64.394531 " clip-rule="nonzero"/></clipPath><clipPath id="b1f9e49407"><rect x="0" width="35" y="0" height="65"/></clipPath><clipPath id="af8defd5d4"><path d="M 186.117188 5.226562 L 220.972656 5.226562 L 220.972656 69.773438 L 186.117188 69.773438 Z M 186.117188 5.226562 " clip-rule="nonzero"/></clipPath><clipPath id="91c0dc41d4"><path d="M 187.90625 69.277344 C 187.859375 69.167969 187.738281 69.152344 187.667969 69.183594 C 187.601562 69.214844 187.546875 69.292969 187.5625 69.382812 C 187.136719 66.871094 186.238281 58.183594 193.941406 56.886719 C 194.472656 56.796875 195.042969 56.742188 195.65625 56.726562 C 206.273438 56.492188 210.683594 49.957031 211.503906 48.574219 C 211.445312 48.675781 211.496094 48.78125 211.566406 48.824219 C 211.617188 48.851562 211.679688 48.859375 211.734375 48.832031 C 210.75 49.28125 207.257812 50.847656 205.828125 51.082031 C 205.582031 51.125 205.414062 50.941406 205.386719 50.765625 C 205.363281 50.613281 205.433594 50.433594 205.613281 50.351562 L 205.726562 50.613281 L 205.613281 50.351562 C 207.515625 49.539062 215.335938 45.503906 220.394531 32.308594 L 220.660156 32.40625 L 220.394531 32.308594 C 220.351562 32.421875 220.429688 32.515625 220.5 32.542969 C 220.566406 32.566406 220.660156 32.550781 220.714844 32.476562 L 220.484375 32.3125 L 220.714844 32.476562 C 219.742188 33.851562 217.304688 37.078125 215.207031 38.058594 L 215.085938 37.800781 L 215.207031 38.058594 C 214.988281 38.160156 214.773438 38.035156 214.695312 37.871094 C 214.640625 37.753906 214.644531 37.601562 214.738281 37.476562 C 216.191406 35.582031 223.847656 23.863281 206.394531 5.792969 C 206.476562 5.878906 206.59375 5.855469 206.652344 5.800781 C 206.699219 5.753906 206.726562 5.675781 206.699219 5.601562 C 207.367188 7.425781 209.277344 14.253906 205.839844 25.835938 L 205.566406 25.753906 L 205.839844 25.832031 C 205.847656 25.796875 205.847656 25.75 205.832031 25.710938 L 205.570312 25.820312 L 205.832031 25.710938 C 206.003906 26.117188 207.609375 30.109375 205.242188 34.066406 L 204.996094 33.921875 L 205.242188 34.066406 C 205.113281 34.277344 204.867188 34.285156 204.714844 34.195312 C 204.589844 34.121094 204.503906 33.972656 204.539062 33.792969 L 204.816406 33.847656 L 204.539062 33.792969 C 204.742188 32.765625 204.960938 30.476562 203.597656 28.109375 L 203.84375 27.96875 L 203.597656 28.109375 C 203.65625 28.210938 203.773438 28.21875 203.847656 28.179688 C 203.890625 28.152344 203.925781 28.105469 203.9375 28.050781 L 203.65625 28 L 203.9375 28.050781 C 203.671875 29.527344 201.9375 36.277344 191.449219 45.546875 L 191.261719 45.335938 L 191.457031 45.539062 C 191.476562 45.519531 187.644531 49.242188 187.644531 55.445312 C 187.644531 55.679688 187.648438 55.917969 187.660156 56.15625 L 187.378906 56.167969 L 187.660156 56.15625 C 187.65625 56.042969 187.5625 55.976562 187.46875 55.980469 C 187.433594 55.984375 187.398438 55.996094 187.367188 56.019531 L 187.539062 56.242188 L 187.367188 56.019531 C 189.597656 54.316406 213.71875 35.460938 211.550781 22.769531 L 211.828125 22.722656 L 211.550781 22.769531 C 211.507812 22.523438 211.691406 22.359375 211.863281 22.328125 C 212.015625 22.304688 212.191406 22.367188 212.273438 22.546875 C 213.558594 25.328125 216.296875 36.652344 190.308594 56.066406 C 189.230469 56.871094 188.367188 57.929688 187.816406 59.152344 C 186.871094 61.25 185.910156 64.851562 187.90625 69.277344 M 187.390625 69.507812 L 187.648438 69.390625 L 187.390625 69.507812 C 185.308594 64.894531 186.3125 61.113281 187.300781 58.917969 L 187.558594 59.035156 L 187.300781 58.917969 C 187.890625 57.605469 188.820312 56.472656 189.972656 55.613281 L 190.140625 55.839844 L 189.972656 55.613281 C 215.878906 36.261719 212.875 25.199219 211.761719 22.78125 L 212.019531 22.664062 L 211.761719 22.78125 C 211.800781 22.867188 211.890625 22.898438 211.960938 22.886719 C 212.03125 22.875 212.128906 22.796875 212.109375 22.675781 C 214.351562 35.789062 189.773438 54.890625 187.710938 56.472656 C 187.648438 56.523438 187.570312 56.546875 187.496094 56.550781 C 187.304688 56.558594 187.105469 56.414062 187.097656 56.1875 C 187.085938 55.9375 187.078125 55.691406 187.078125 55.449219 C 187.078125 49.015625 191.046875 45.152344 191.0625 45.136719 C 191.066406 45.132812 191.070312 45.128906 191.074219 45.128906 C 201.476562 35.933594 203.140625 29.292969 203.378906 27.957031 C 203.402344 27.839844 203.472656 27.746094 203.566406 27.691406 C 203.726562 27.597656 203.96875 27.628906 204.089844 27.832031 C 205.546875 30.363281 205.3125 32.808594 205.09375 33.90625 C 205.109375 33.824219 205.0625 33.75 205.007812 33.714844 C 204.941406 33.675781 204.820312 33.671875 204.753906 33.777344 C 206.972656 30.070312 205.46875 26.308594 205.3125 25.933594 C 205.277344 25.851562 205.273438 25.757812 205.296875 25.675781 C 208.699219 14.21875 206.796875 7.515625 206.167969 5.800781 L 206.433594 5.703125 L 206.167969 5.800781 C 206.109375 5.644531 206.160156 5.488281 206.257812 5.394531 C 206.386719 5.269531 206.632812 5.226562 206.800781 5.402344 L 206.597656 5.597656 L 206.800781 5.402344 C 224.476562 23.703125 216.785156 35.738281 215.1875 37.824219 L 214.964844 37.652344 L 215.1875 37.824219 C 215.230469 37.765625 215.234375 37.691406 215.210938 37.632812 C 215.175781 37.558594 215.074219 37.496094 214.96875 37.546875 C 216.90625 36.644531 219.253906 33.558594 220.253906 32.152344 C 220.367188 31.988281 220.558594 31.960938 220.699219 32.015625 C 220.863281 32.078125 221.011719 32.277344 220.921875 32.511719 C 215.804688 45.871094 207.855469 50.011719 205.835938 50.875 C 205.921875 50.835938 205.957031 50.746094 205.945312 50.675781 C 205.933594 50.597656 205.855469 50.503906 205.738281 50.523438 L 205.78125 50.804688 L 205.738281 50.523438 C 207.074219 50.304688 210.480469 48.785156 211.503906 48.320312 L 211.621094 48.574219 L 211.503906 48.320312 C 211.625 48.261719 211.753906 48.277344 211.855469 48.335938 C 212.015625 48.429688 212.113281 48.65625 211.992188 48.863281 L 211.746094 48.71875 L 211.992188 48.863281 C 211.121094 50.332031 206.558594 57.050781 195.667969 57.292969 L 195.664062 57.011719 L 195.667969 57.292969 C 195.082031 57.304688 194.539062 57.355469 194.035156 57.441406 C 186.945312 58.636719 187.671875 66.640625 188.117188 69.289062 L 187.839844 69.335938 L 188.117188 69.289062 C 188.152344 69.480469 188.039062 69.636719 187.898438 69.699219 C 187.738281 69.773438 187.496094 69.734375 187.390625 69.507812 Z M 187.390625 69.507812 " clip-rule="nonzero"/></clipPath><clipPath id="7b2367b6d2"><path d="M 0.117188 0.226562 L 34.972656 0.226562 L 34.972656 64.773438 L 0.117188 64.773438 Z M 0.117188 0.226562 " clip-rule="nonzero"/></clipPath><clipPath id="5523a5877a"><path d="M 1.90625 64.277344 C 1.859375 64.167969 1.738281 64.152344 1.667969 64.183594 C 1.601562 64.214844 1.546875 64.292969 1.5625 64.382812 C 1.136719 61.871094 0.238281 53.183594 7.941406 51.886719 C 8.472656 51.796875 9.042969 51.742188 9.65625 51.726562 C 20.273438 51.492188 24.683594 44.957031 25.503906 43.574219 C 25.445312 43.675781 25.496094 43.78125 25.566406 43.824219 C 25.617188 43.851562 25.679688 43.859375 25.734375 43.832031 C 24.75 44.28125 21.257812 45.847656 19.828125 46.082031 C 19.582031 46.125 19.414062 45.941406 19.386719 45.765625 C 19.363281 45.613281 19.433594 45.433594 19.613281 45.351562 L 19.726562 45.613281 L 19.613281 45.351562 C 21.515625 44.539062 29.335938 40.503906 34.394531 27.308594 L 34.660156 27.40625 L 34.394531 27.308594 C 34.351562 27.421875 34.429688 27.515625 34.5 27.542969 C 34.566406 27.566406 34.660156 27.550781 34.714844 27.476562 L 34.484375 27.3125 L 34.714844 27.476562 C 33.742188 28.851562 31.304688 32.078125 29.207031 33.058594 L 29.085938 32.800781 L 29.207031 33.058594 C 28.988281 33.160156 28.773438 33.035156 28.695312 32.871094 C 28.640625 32.753906 28.644531 32.601562 28.738281 32.476562 C 30.191406 30.582031 37.847656 18.863281 20.394531 0.792969 C 20.476562 0.878906 20.59375 0.855469 20.652344 0.800781 C 20.699219 0.753906 20.726562 0.675781 20.699219 0.601562 C 21.367188 2.425781 23.277344 9.253906 19.839844 20.835938 L 19.566406 20.753906 L 19.839844 20.832031 C 19.847656 20.796875 19.847656 20.75 19.832031 20.710938 L 19.570312 20.820312 L 19.832031 20.710938 C 20.003906 21.117188 21.609375 25.109375 19.242188 29.066406 L 18.996094 28.921875 L 19.242188 29.066406 C 19.113281 29.277344 18.867188 29.285156 18.714844 29.195312 C 18.589844 29.121094 18.503906 28.972656 18.539062 28.792969 L 18.816406 28.847656 L 18.539062 28.792969 C 18.742188 27.765625 18.960938 25.476562 17.597656 23.109375 L 17.84375 22.96875 L 17.597656 23.109375 C 17.65625 23.210938 17.773438 23.21875 17.847656 23.179688 C 17.890625 23.152344 17.925781 23.105469 17.9375 23.050781 L 17.65625 23 L 17.9375 23.050781 C 17.671875 24.527344 15.9375 31.277344 5.449219 40.546875 L 5.261719 40.335938 L 5.457031 40.539062 C 5.476562 40.519531 1.644531 44.242188 1.644531 50.445312 C 1.644531 50.679688 1.648438 50.917969 1.660156 51.15625 L 1.378906 51.167969 L 1.660156 51.15625 C 1.65625 51.042969 1.5625 50.976562 1.46875 50.980469 C 1.433594 50.984375 1.398438 50.996094 1.367188 51.019531 L 1.539062 51.242188 L 1.367188 51.019531 C 3.597656 49.316406 27.71875 30.460938 25.550781 17.769531 L 25.828125 17.722656 L 25.550781 17.769531 C 25.507812 17.523438 25.691406 17.359375 25.863281 17.328125 C 26.015625 17.304688 26.191406 17.367188 26.273438 17.546875 C 27.558594 20.328125 30.296875 31.652344 4.308594 51.066406 C 3.230469 51.871094 2.367188 52.929688 1.816406 54.152344 C 0.871094 56.25 -0.0898438 59.851562 1.90625 64.277344 M 1.390625 64.507812 L 1.648438 64.390625 L 1.390625 64.507812 C -0.691406 59.894531 0.3125 56.113281 1.300781 53.917969 L 1.558594 54.035156 L 1.300781 53.917969 C 1.890625 52.605469 2.820312 51.472656 3.972656 50.613281 L 4.140625 50.839844 L 3.972656 50.613281 C 29.878906 31.261719 26.875 20.199219 25.761719 17.78125 L 26.019531 17.664062 L 25.761719 17.78125 C 25.800781 17.867188 25.890625 17.898438 25.960938 17.886719 C 26.03125 17.875 26.128906 17.796875 26.109375 17.675781 C 28.351562 30.789062 3.773438 49.890625 1.710938 51.472656 C 1.648438 51.523438 1.570312 51.546875 1.496094 51.550781 C 1.304688 51.558594 1.105469 51.414062 1.097656 51.1875 C 1.085938 50.9375 1.078125 50.691406 1.078125 50.449219 C 1.078125 44.015625 5.046875 40.152344 5.0625 40.136719 C 5.066406 40.132812 5.070312 40.128906 5.074219 40.128906 C 15.476562 30.933594 17.140625 24.292969 17.378906 22.957031 C 17.402344 22.839844 17.472656 22.746094 17.566406 22.691406 C 17.726562 22.597656 17.96875 22.628906 18.089844 22.832031 C 19.546875 25.363281 19.3125 27.808594 19.09375 28.90625 C 19.109375 28.824219 19.0625 28.75 19.007812 28.714844 C 18.941406 28.675781 18.820312 28.671875 18.753906 28.777344 C 20.972656 25.070312 19.46875 21.308594 19.3125 20.933594 C 19.277344 20.851562 19.273438 20.757812 19.296875 20.675781 C 22.699219 9.21875 20.796875 2.515625 20.167969 0.800781 L 20.433594 0.703125 L 20.167969 0.800781 C 20.109375 0.644531 20.160156 0.488281 20.257812 0.394531 C 20.386719 0.269531 20.632812 0.226562 20.800781 0.402344 L 20.597656 0.597656 L 20.800781 0.402344 C 38.476562 18.703125 30.785156 30.738281 29.1875 32.824219 L 28.964844 32.652344 L 29.1875 32.824219 C 29.230469 32.765625 29.234375 32.691406 29.210938 32.632812 C 29.175781 32.558594 29.074219 32.496094 28.96875 32.546875 C 30.90625 31.644531 33.253906 28.558594 34.253906 27.152344 C 34.367188 26.988281 34.558594 26.960938 34.699219 27.015625 C 34.863281 27.078125 35.011719 27.277344 34.921875 27.511719 C 29.804688 40.871094 21.855469 45.011719 19.835938 45.875 C 19.921875 45.835938 19.957031 45.746094 19.945312 45.675781 C 19.933594 45.597656 19.855469 45.503906 19.738281 45.523438 L 19.78125 45.804688 L 19.738281 45.523438 C 21.074219 45.304688 24.480469 43.785156 25.503906 43.320312 L 25.621094 43.574219 L 25.503906 43.320312 C 25.625 43.261719 25.753906 43.277344 25.855469 43.335938 C 26.015625 43.429688 26.113281 43.65625 25.992188 43.863281 L 25.746094 43.71875 L 25.992188 43.863281 C 25.121094 45.332031 20.558594 52.050781 9.667969 52.292969 L 9.664062 52.011719 L 9.667969 52.292969 C 9.082031 52.304688 8.539062 52.355469 8.035156 52.441406 C 0.945312 53.636719 1.671875 61.640625 2.117188 64.289062 L 1.839844 64.335938 L 2.117188 64.289062 C 2.152344 64.480469 2.039062 64.636719 1.898438 64.699219 C 1.738281 64.773438 1.496094 64.734375 1.390625 64.507812 Z M 1.390625 64.507812 " clip-rule="nonzero"/></clipPath><clipPath id="e89d1c4874"><rect x="0" width="35" y="0" height="65"/></clipPath><clipPath id="6da3b4d4b2"><path d="M 0.601562 1.625 L 42.171875 1.625 L 42.171875 41.273438 L 0.601562 41.273438 Z M 0.601562 1.625 " clip-rule="nonzero"/></clipPath><clipPath id="8749815940"><path d="M 13.464844 25.984375 L 26.449219 25.984375 L 20.203125 10.09375 L 20.015625 10.09375 Z M 0.878906 40.792969 C 0.695312 40.527344 0.601562 40.207031 0.601562 39.835938 C 0.644531 39.21875 0.765625 38.847656 0.972656 38.722656 C 1.179688 38.597656 1.425781 38.539062 1.714844 38.539062 L 2.269531 38.539062 C 3.507812 38.539062 4.414062 38.21875 4.992188 37.578125 C 5.570312 36.941406 6.03125 36.21875 6.382812 35.414062 C 6.734375 34.609375 6.96875 34.066406 7.09375 33.777344 L 17.914062 8.179688 C 18.164062 7.558594 18.285156 7.066406 18.285156 6.695312 C 18.285156 5.953125 17.996094 5.417969 17.417969 5.085938 C 16.84375 4.757812 16.039062 4.492188 15.007812 4.285156 C 14.308594 4.160156 13.875 4.035156 13.710938 3.914062 C 13.542969 3.789062 13.464844 3.441406 13.464844 2.863281 C 13.464844 2.367188 13.597656 2.039062 13.863281 1.871094 C 14.132812 1.707031 14.554688 1.625 15.132812 1.625 C 17.195312 1.625 18.832031 1.777344 20.046875 2.085938 C 21.265625 2.398438 22.324219 3.015625 23.234375 3.941406 C 24.140625 4.871094 24.984375 6.28125 25.769531 8.175781 L 36.15625 33.777344 C 36.773438 35.34375 37.371094 36.519531 37.949219 37.300781 C 38.527344 38.085938 39.390625 38.5 40.546875 38.539062 L 40.914062 38.539062 C 41.328125 38.539062 41.617188 38.609375 41.78125 38.753906 C 41.945312 38.898438 42.046875 39.261719 42.089844 39.835938 C 42.089844 40.207031 42 40.527344 41.8125 40.792969 C 41.628906 41.0625 41.347656 41.195312 40.980469 41.195312 C 38.339844 41.074219 36.070312 41.011719 34.175781 41.011719 C 31.703125 41.011719 29.148438 41.074219 26.511719 41.195312 C 26.140625 41.195312 25.863281 41.0625 25.675781 40.792969 C 25.492188 40.527344 25.398438 40.207031 25.398438 39.835938 C 25.4375 39.261719 25.542969 38.898438 25.707031 38.753906 C 25.871094 38.609375 26.160156 38.539062 26.574219 38.539062 C 27.972656 38.539062 28.964844 38.402344 29.542969 38.136719 C 30.121094 37.867188 30.40625 37.382812 30.40625 36.683594 C 30.40625 36.148438 30.160156 35.179688 29.664062 33.777344 L 27.5625 28.644531 L 12.289062 28.644531 C 11.257812 31.203125 10.671875 32.6875 10.527344 33.097656 C 10.382812 33.507812 10.308594 33.734375 10.308594 33.777344 C 9.8125 35.34375 9.566406 36.351562 9.566406 36.808594 C 9.566406 37.507812 9.875 37.972656 10.496094 38.199219 C 11.113281 38.425781 12.289062 38.539062 14.019531 38.539062 L 14.390625 38.539062 C 14.800781 38.539062 15.089844 38.609375 15.253906 38.753906 C 15.421875 38.898438 15.523438 39.261719 15.566406 39.839844 C 15.566406 40.207031 15.472656 40.527344 15.285156 40.796875 C 15.101562 41.0625 14.824219 41.199219 14.453125 41.199219 C 11.8125 41.074219 9.566406 41.011719 7.710938 41.011719 C 6.390625 41.011719 4.390625 41.074219 1.714844 41.199219 C 1.34375 41.199219 1.066406 41.0625 0.878906 40.796875 " clip-rule="nonzero"/></clipPath><clipPath id="f8eeb4cdc0"><path d="M 0.601562 0.625 L 42.171875 0.625 L 42.171875 40.273438 L 0.601562 40.273438 Z M 0.601562 0.625 " clip-rule="nonzero"/></clipPath><clipPath id="83604be66c"><path d="M 13.464844 24.984375 L 26.449219 24.984375 L 20.203125 9.09375 L 20.015625 9.09375 Z M 0.878906 39.792969 C 0.695312 39.527344 0.601562 39.207031 0.601562 38.835938 C 0.644531 38.21875 0.765625 37.847656 0.972656 37.722656 C 1.179688 37.597656 1.425781 37.539062 1.714844 37.539062 L 2.269531 37.539062 C 3.507812 37.539062 4.414062 37.21875 4.992188 36.578125 C 5.570312 35.941406 6.03125 35.21875 6.382812 34.414062 C 6.734375 33.609375 6.96875 33.066406 7.09375 32.777344 L 17.914062 7.179688 C 18.164062 6.558594 18.285156 6.066406 18.285156 5.695312 C 18.285156 4.953125 17.996094 4.417969 17.417969 4.085938 C 16.84375 3.757812 16.039062 3.492188 15.007812 3.285156 C 14.308594 3.160156 13.875 3.035156 13.710938 2.914062 C 13.542969 2.789062 13.464844 2.441406 13.464844 1.863281 C 13.464844 1.367188 13.597656 1.039062 13.863281 0.871094 C 14.132812 0.707031 14.554688 0.625 15.132812 0.625 C 17.195312 0.625 18.832031 0.777344 20.046875 1.085938 C 21.265625 1.398438 22.324219 2.015625 23.234375 2.941406 C 24.140625 3.871094 24.984375 5.28125 25.769531 7.175781 L 36.15625 32.777344 C 36.773438 34.34375 37.371094 35.519531 37.949219 36.300781 C 38.527344 37.085938 39.390625 37.5 40.546875 37.539062 L 40.914062 37.539062 C 41.328125 37.539062 41.617188 37.609375 41.78125 37.753906 C 41.945312 37.898438 42.046875 38.261719 42.089844 38.835938 C 42.089844 39.207031 42 39.527344 41.8125 39.792969 C 41.628906 40.0625 41.347656 40.195312 40.980469 40.195312 C 38.339844 40.074219 36.070312 40.011719 34.175781 40.011719 C 31.703125 40.011719 29.148438 40.074219 26.511719 40.195312 C 26.140625 40.195312 25.863281 40.0625 25.675781 39.792969 C 25.492188 39.527344 25.398438 39.207031 25.398438 38.835938 C 25.4375 38.261719 25.542969 37.898438 25.707031 37.753906 C 25.871094 37.609375 26.160156 37.539062 26.574219 37.539062 C 27.972656 37.539062 28.964844 37.402344 29.542969 37.136719 C 30.121094 36.867188 30.40625 36.382812 30.40625 35.683594 C 30.40625 35.148438 30.160156 34.179688 29.664062 32.777344 L 27.5625 27.644531 L 12.289062 27.644531 C 11.257812 30.203125 10.671875 31.6875 10.527344 32.097656 C 10.382812 32.507812 10.308594 32.734375 10.308594 32.777344 C 9.8125 34.34375 9.566406 35.351562 9.566406 35.808594 C 9.566406 36.507812 9.875 36.972656 10.496094 37.199219 C 11.113281 37.425781 12.289062 37.539062 14.019531 37.539062 L 14.390625 37.539062 C 14.800781 37.539062 15.089844 37.609375 15.253906 37.753906 C 15.421875 37.898438 15.523438 38.261719 15.566406 38.839844 C 15.566406 39.207031 15.472656 39.527344 15.285156 39.796875 C 15.101562 40.0625 14.824219 40.199219 14.453125 40.199219 C 11.8125 40.074219 9.566406 40.011719 7.710938 40.011719 C 6.390625 40.011719 4.390625 40.074219 1.714844 40.199219 C 1.34375 40.199219 1.066406 40.0625 0.878906 39.796875 " clip-rule="nonzero"/></clipPath><clipPath id="1878403093"><rect x="0" width="43" y="0" height="41"/></clipPath><clipPath id="93b9edd6ec"><path d="M 43.136719 11.835938 L 66.566406 11.835938 L 66.566406 41.273438 L 43.136719 41.273438 Z M 43.136719 11.835938 " clip-rule="nonzero"/></clipPath><clipPath id="5f243a071c"><path d="M 43.484375 40.828125 C 43.296875 40.578125 43.207031 40.289062 43.207031 39.960938 C 43.246094 39.425781 43.371094 39.105469 43.578125 39.003906 C 43.785156 38.898438 44.152344 38.847656 44.6875 38.847656 C 45.761719 38.847656 46.523438 38.664062 46.976562 38.292969 C 47.433594 37.921875 47.6875 37.488281 47.75 36.992188 C 47.8125 36.5 47.84375 35.714844 47.84375 34.644531 L 47.84375 20.484375 C 47.84375 19.410156 47.8125 18.628906 47.75 18.132812 C 47.6875 17.636719 47.429688 17.207031 46.976562 16.832031 C 46.523438 16.460938 45.761719 16.277344 44.6875 16.277344 C 44.195312 16.277344 43.824219 16.207031 43.578125 16.0625 C 43.328125 15.914062 43.207031 15.578125 43.207031 15.042969 C 43.207031 14.792969 43.289062 14.558594 43.453125 14.332031 C 43.617188 14.101562 43.863281 13.96875 44.195312 13.929688 C 46.875 13.515625 49.078125 12.980469 50.808594 12.320312 C 51.511719 12.113281 51.984375 11.992188 52.230469 11.949219 L 52.417969 11.949219 C 53.074219 11.949219 53.40625 12.34375 53.40625 13.125 L 53.40625 16.960938 L 53.589844 16.960938 C 55.035156 15.515625 56.496094 14.375 57.980469 13.527344 C 59.464844 12.679688 60.804688 12.257812 62 12.257812 C 63.363281 12.257812 64.445312 12.765625 65.246094 13.773438 C 66.050781 14.78125 66.453125 15.949219 66.453125 17.265625 C 66.453125 18.421875 66.105469 19.453125 65.402344 20.359375 C 64.703125 21.265625 63.734375 21.71875 62.496094 21.71875 C 61.917969 21.71875 61.414062 21.59375 60.984375 21.347656 C 60.550781 21.101562 60.3125 20.894531 60.269531 20.730469 C 60.3125 20.648438 60.519531 20.390625 60.890625 19.957031 C 61.261719 19.523438 61.445312 19.019531 61.445312 18.441406 C 61.445312 17.699219 61.25 17.101562 60.859375 16.648438 C 60.46875 16.191406 59.941406 15.96875 59.28125 15.96875 C 58.578125 15.96875 57.695312 16.308594 56.621094 16.988281 C 55.550781 17.667969 54.5 18.523438 53.46875 19.554688 L 53.46875 34.640625 C 53.46875 35.714844 53.507812 36.496094 53.59375 36.992188 C 53.675781 37.488281 53.941406 37.921875 54.398438 38.292969 C 54.847656 38.660156 55.613281 38.847656 56.683594 38.847656 L 57.054688 38.847656 C 57.382812 38.847656 57.632812 38.910156 57.796875 39.03125 C 57.960938 39.15625 58.0625 39.464844 58.105469 39.960938 C 58.105469 40.289062 58.023438 40.578125 57.859375 40.828125 C 57.691406 41.074219 57.445312 41.195312 57.117188 41.195312 C 54.726562 41.074219 52.5625 41.011719 50.625 41.011719 C 48.769531 41.011719 46.625 41.074219 44.195312 41.195312 C 43.90625 41.195312 43.667969 41.074219 43.480469 40.828125 " clip-rule="nonzero"/></clipPath><clipPath id="6499326d0c"><path d="M 0.175781 0.84375 L 23.566406 0.84375 L 23.566406 30.273438 L 0.175781 30.273438 Z M 0.175781 0.84375 " clip-rule="nonzero"/></clipPath><clipPath id="102d11654c"><path d="M 0.484375 29.828125 C 0.296875 29.578125 0.207031 29.289062 0.207031 28.960938 C 0.246094 28.425781 0.371094 28.105469 0.578125 28.003906 C 0.785156 27.898438 1.152344 27.847656 1.6875 27.847656 C 2.761719 27.847656 3.523438 27.664062 3.976562 27.292969 C 4.433594 26.921875 4.6875 26.488281 4.75 25.992188 C 4.8125 25.5 4.84375 24.714844 4.84375 23.644531 L 4.84375 9.484375 C 4.84375 8.410156 4.8125 7.628906 4.75 7.132812 C 4.6875 6.636719 4.429688 6.207031 3.976562 5.832031 C 3.523438 5.460938 2.761719 5.277344 1.6875 5.277344 C 1.195312 5.277344 0.824219 5.207031 0.578125 5.0625 C 0.328125 4.914062 0.207031 4.578125 0.207031 4.042969 C 0.207031 3.792969 0.289062 3.558594 0.453125 3.332031 C 0.617188 3.101562 0.863281 2.96875 1.195312 2.929688 C 3.875 2.515625 6.078125 1.980469 7.808594 1.320312 C 8.511719 1.113281 8.984375 0.992188 9.230469 0.949219 L 9.417969 0.949219 C 10.074219 0.949219 10.40625 1.34375 10.40625 2.125 L 10.40625 5.960938 L 10.589844 5.960938 C 12.035156 4.515625 13.496094 3.375 14.980469 2.527344 C 16.464844 1.679688 17.804688 1.257812 19 1.257812 C 20.363281 1.257812 21.445312 1.765625 22.246094 2.773438 C 23.050781 3.78125 23.453125 4.949219 23.453125 6.265625 C 23.453125 7.421875 23.105469 8.453125 22.402344 9.359375 C 21.703125 10.265625 20.734375 10.71875 19.496094 10.71875 C 18.917969 10.71875 18.414062 10.59375 17.984375 10.347656 C 17.550781 10.101562 17.3125 9.894531 17.269531 9.730469 C 17.3125 9.648438 17.519531 9.390625 17.890625 8.957031 C 18.261719 8.523438 18.445312 8.019531 18.445312 7.441406 C 18.445312 6.699219 18.25 6.101562 17.859375 5.648438 C 17.46875 5.191406 16.941406 4.96875 16.28125 4.96875 C 15.578125 4.96875 14.695312 5.308594 13.621094 5.988281 C 12.550781 6.667969 11.5 7.523438 10.46875 8.554688 L 10.46875 23.640625 C 10.46875 24.714844 10.507812 25.496094 10.59375 25.992188 C 10.675781 26.488281 10.941406 26.921875 11.398438 27.292969 C 11.847656 27.660156 12.613281 27.847656 13.683594 27.847656 L 14.054688 27.847656 C 14.382812 27.847656 14.632812 27.910156 14.796875 28.03125 C 14.960938 28.15625 15.0625 28.464844 15.105469 28.960938 C 15.105469 29.289062 15.023438 29.578125 14.859375 29.828125 C 14.691406 30.074219 14.445312 30.195312 14.117188 30.195312 C 11.726562 30.074219 9.5625 30.011719 7.625 30.011719 C 5.769531 30.011719 3.625 30.074219 1.195312 30.195312 C 0.90625 30.195312 0.667969 30.074219 0.480469 29.828125 " clip-rule="nonzero"/></clipPath><clipPath id="9854283259"><rect x="0" width="24" y="0" height="31"/></clipPath><clipPath id="a30492e89d"><path d="M 65.601562 12.195312 L 95.640625 12.195312 L 95.640625 41.753906 L 65.601562 41.753906 Z M 65.601562 12.195312 " clip-rule="nonzero"/></clipPath><clipPath id="e0492f751b"><path d="M 79.796875 37.363281 C 80.992188 36.664062 81.941406 35.703125 82.644531 34.488281 C 83.34375 33.269531 83.695312 31.921875 83.695312 30.4375 L 83.695312 26.914062 C 79.367188 27.242188 76.316406 27.945312 74.542969 29.015625 C 72.769531 30.085938 71.882812 31.820312 71.882812 34.210938 C 71.882812 37.015625 73.222656 38.414062 75.902344 38.414062 C 77.304688 38.414062 78.601562 38.066406 79.796875 37.363281 M 67.925781 39.652344 C 66.402344 38.25 65.640625 36.496094 65.640625 34.394531 C 65.640625 31.800781 66.503906 29.851562 68.234375 28.550781 C 69.964844 27.253906 72.027344 26.410156 74.417969 26.015625 C 76.808594 25.625 79.898438 25.328125 83.691406 25.121094 L 83.691406 20.234375 C 83.691406 18.214844 83.1875 16.679688 82.179688 15.628906 C 81.167969 14.578125 79.550781 14.050781 77.324219 14.050781 C 76.046875 14.050781 74.933594 14.445312 73.984375 15.226562 C 73.039062 16.007812 72.5625 17.0625 72.5625 18.378906 C 72.5625 19.039062 72.71875 19.585938 73.027344 20.019531 C 73.335938 20.453125 73.667969 20.8125 74.015625 21.101562 C 74.367188 21.390625 74.542969 21.554688 74.542969 21.597656 C 74.542969 21.84375 74.285156 22.164062 73.769531 22.554688 C 73.253906 22.945312 72.625 23.140625 71.882812 23.140625 C 70.648438 23.140625 69.667969 22.6875 68.945312 21.78125 C 68.222656 20.875 67.863281 19.800781 67.863281 18.566406 C 67.863281 16.421875 68.820312 14.835938 70.738281 13.804688 C 72.65625 12.773438 74.976562 12.257812 77.695312 12.257812 C 81.074219 12.257812 83.828125 12.898438 85.949219 14.175781 C 88.074219 15.453125 89.132812 17.824219 89.132812 21.285156 L 89.132812 35.691406 C 89.175781 36.558594 89.441406 37.382812 89.9375 38.167969 C 90.433594 38.949219 91.238281 39.34375 92.347656 39.34375 C 92.679688 39.34375 92.914062 39.402344 93.0625 39.527344 C 93.207031 39.652344 93.277344 39.917969 93.277344 40.332031 C 93.277344 40.828125 97.183594 40.792969 94.902344 41.121094 C 94.113281 41.230469 90.4375 41.445312 89.695312 41.445312 C 88.128906 41.445312 86.925781 41.300781 85.730469 40.394531 C 84.535156 39.488281 83.855469 38.269531 83.691406 36.746094 C 82.828125 38.351562 81.496094 39.589844 79.703125 40.457031 C 77.910156 41.320312 75.984375 41.753906 73.921875 41.753906 C 71.449219 41.753906 69.449219 41.050781 67.925781 39.652344 " clip-rule="nonzero"/></clipPath><clipPath id="dd38cb8c51"><path d="M 0.601562 0.195312 L 30.640625 0.195312 L 30.640625 29.753906 L 0.601562 29.753906 Z M 0.601562 0.195312 " clip-rule="nonzero"/></clipPath><clipPath id="5a00dc321c"><path d="M 14.796875 25.363281 C 15.992188 24.664062 16.941406 23.703125 17.644531 22.488281 C 18.34375 21.269531 18.695312 19.921875 18.695312 18.4375 L 18.695312 14.914062 C 14.367188 15.242188 11.316406 15.945312 9.542969 17.015625 C 7.769531 18.085938 6.882812 19.820312 6.882812 22.210938 C 6.882812 25.015625 8.222656 26.414062 10.902344 26.414062 C 12.304688 26.414062 13.601562 26.066406 14.796875 25.363281 M 2.925781 27.652344 C 1.402344 26.25 0.640625 24.496094 0.640625 22.394531 C 0.640625 19.800781 1.503906 17.851562 3.234375 16.550781 C 4.964844 15.253906 7.027344 14.410156 9.417969 14.015625 C 11.808594 13.625 14.898438 13.328125 18.691406 13.121094 L 18.691406 8.234375 C 18.691406 6.214844 18.1875 4.679688 17.179688 3.628906 C 16.167969 2.578125 14.550781 2.050781 12.324219 2.050781 C 11.046875 2.050781 9.933594 2.445312 8.984375 3.226562 C 8.039062 4.007812 7.5625 5.0625 7.5625 6.378906 C 7.5625 7.039062 7.71875 7.585938 8.027344 8.019531 C 8.335938 8.453125 8.667969 8.8125 9.015625 9.101562 C 9.367188 9.390625 9.542969 9.554688 9.542969 9.597656 C 9.542969 9.84375 9.285156 10.164062 8.769531 10.554688 C 8.253906 10.945312 7.625 11.140625 6.882812 11.140625 C 5.648438 11.140625 4.667969 10.6875 3.945312 9.78125 C 3.222656 8.875 2.863281 7.800781 2.863281 6.566406 C 2.863281 4.421875 3.820312 2.835938 5.738281 1.804688 C 7.65625 0.773438 9.976562 0.257812 12.695312 0.257812 C 16.074219 0.257812 18.828125 0.898438 20.949219 2.175781 C 23.074219 3.453125 24.132812 5.824219 24.132812 9.285156 L 24.132812 23.691406 C 24.175781 24.558594 24.441406 25.382812 24.9375 26.167969 C 25.433594 26.949219 26.238281 27.34375 27.347656 27.34375 C 27.679688 27.34375 27.914062 27.402344 28.0625 27.527344 C 28.207031 27.652344 28.277344 27.917969 28.277344 28.332031 C 28.277344 28.828125 32.183594 28.792969 29.902344 29.121094 C 29.113281 29.230469 25.4375 29.445312 24.695312 29.445312 C 23.128906 29.445312 21.925781 29.300781 20.730469 28.394531 C 19.535156 27.488281 18.855469 26.269531 18.691406 24.746094 C 17.828125 26.351562 16.496094 27.589844 14.703125 28.457031 C 12.910156 29.320312 10.984375 29.753906 8.921875 29.753906 C 6.449219 29.753906 4.449219 29.050781 2.925781 27.652344 " clip-rule="nonzero"/></clipPath><clipPath id="deda970300"><rect x="0" width="31" y="0" height="30"/></clipPath><clipPath id="ed62d3a33d"><path d="M 89.273438 11.835938 L 144.542969 11.835938 L 144.542969 41.273438 L 89.273438 41.273438 Z M 89.273438 11.835938 " clip-rule="nonzero"/></clipPath><clipPath id="f4f8805a88"><path d="M 92.355469 40.828125 C 92.167969 40.578125 89.371094 40.472656 89.371094 40.144531 C 89.414062 39.609375 89.316406 36.683594 89.371094 36.890625 C 90.023438 39.167969 92.964844 38.847656 93.5 38.847656 C 94.570312 38.847656 95.332031 38.664062 95.789062 38.292969 C 96.242188 37.921875 96.507812 37.488281 96.589844 36.992188 C 96.675781 36.5 96.714844 35.714844 96.714844 34.644531 L 96.714844 20.484375 C 96.714844 19.410156 96.683594 18.628906 96.621094 18.132812 C 96.5625 17.636719 96.300781 17.207031 95.851562 16.832031 C 95.398438 16.460938 94.632812 16.277344 93.5625 16.277344 C 93.066406 16.277344 92.695312 16.207031 92.449219 16.0625 C 92.203125 15.914062 92.078125 15.578125 92.078125 15.042969 C 92.078125 14.792969 92.160156 14.558594 92.324219 14.332031 C 92.488281 14.101562 92.738281 13.96875 93.066406 13.929688 C 95.746094 13.515625 97.953125 12.980469 99.683594 12.320312 C 100.382812 12.113281 100.855469 11.992188 101.105469 11.949219 L 101.289062 11.949219 C 101.949219 11.949219 102.28125 12.34375 102.28125 13.125 L 102.28125 17.019531 L 102.464844 17.019531 C 102.714844 16.773438 103.332031 16.164062 104.320312 15.195312 C 105.308594 14.226562 106.433594 13.496094 107.691406 13.003906 C 108.949219 12.507812 110.378906 12.261719 111.988281 12.261719 C 113.964844 12.261719 115.675781 12.683594 117.117188 13.527344 C 118.5625 14.371094 119.632812 15.539062 120.335938 17.023438 L 120.457031 17.023438 C 122.066406 15.496094 123.601562 14.324219 125.066406 13.496094 C 126.527344 12.671875 128.414062 12.261719 130.722656 12.261719 C 133.523438 12.261719 135.75 13.105469 137.398438 14.796875 C 139.050781 16.484375 139.875 18.714844 139.875 21.472656 L 139.875 34.640625 C 139.875 35.714844 139.914062 36.496094 139.996094 36.992188 C 140.082031 37.488281 140.347656 37.921875 140.800781 38.292969 C 141.253906 38.660156 142.019531 38.847656 143.089844 38.847656 L 143.460938 38.847656 C 143.789062 38.847656 144.039062 38.910156 144.203125 39.03125 C 144.367188 39.15625 144.46875 39.464844 144.511719 39.960938 C 144.511719 40.289062 144.417969 40.578125 144.234375 40.828125 C 144.046875 41.074219 143.808594 41.195312 143.523438 41.195312 C 141.132812 41.074219 138.96875 41.011719 137.03125 41.011719 C 135.175781 41.011719 133.03125 41.074219 130.601562 41.195312 C 130.269531 41.195312 130.023438 41.074219 129.855469 40.828125 C 129.691406 40.578125 129.609375 40.289062 129.609375 39.960938 C 129.652344 39.425781 129.765625 39.105469 129.953125 39.003906 C 130.136719 38.898438 130.496094 38.847656 131.035156 38.847656 C 132.105469 38.847656 132.867188 38.664062 133.320312 38.292969 C 133.773438 37.921875 134.042969 37.488281 134.125 36.992188 C 134.207031 36.5 134.25 35.714844 134.25 34.644531 L 134.25 21.535156 C 134.25 19.640625 133.648438 18.1875 132.453125 17.175781 C 131.257812 16.164062 129.878906 15.660156 128.3125 15.660156 C 126.414062 15.660156 124.871094 16.117188 123.675781 17.023438 C 122.480469 17.929688 121.636719 18.898438 121.140625 19.925781 L 121.140625 34.640625 C 121.140625 34.890625 121.128906 35.445312 121.109375 36.3125 C 121.089844 37.175781 121.316406 37.816406 121.789062 38.226562 C 122.265625 38.640625 123.035156 38.847656 124.109375 38.847656 L 124.480469 38.847656 C 124.851562 38.847656 125.105469 38.910156 125.25 39.03125 C 125.394531 39.15625 125.488281 39.464844 125.53125 39.960938 C 125.53125 40.289062 125.445312 40.578125 125.28125 40.828125 C 125.121094 41.074219 124.871094 41.195312 124.542969 41.195312 C 122.109375 41.074219 120.007812 41.011719 118.234375 41.011719 C 116.542969 41.011719 114.484375 41.074219 112.050781 41.195312 C 111.722656 41.195312 111.476562 41.074219 111.308594 40.828125 C 111.144531 40.578125 111.0625 40.289062 111.0625 39.960938 C 111.105469 39.425781 111.21875 39.105469 111.402344 39.003906 C 111.585938 38.898438 111.949219 38.847656 112.484375 38.847656 C 113.84375 38.847656 114.691406 38.570312 115.019531 38.015625 C 115.347656 37.457031 115.503906 36.820312 115.484375 36.097656 C 115.460938 35.375 115.453125 34.890625 115.453125 34.644531 L 115.453125 21.535156 C 115.453125 19.640625 114.863281 18.1875 113.691406 17.175781 C 112.515625 16.164062 111.144531 15.660156 109.578125 15.660156 C 107.679688 15.660156 106.132812 16.117188 104.941406 17.023438 C 103.746094 17.929688 102.878906 18.898438 102.34375 19.925781 L 102.34375 34.640625 C 102.34375 35.714844 102.386719 36.496094 102.46875 36.992188 C 102.550781 37.488281 102.816406 37.921875 103.273438 38.292969 C 103.726562 38.660156 104.488281 38.847656 105.558594 38.847656 L 105.929688 38.847656 C 106.261719 38.847656 106.507812 38.910156 106.671875 39.03125 C 106.835938 39.15625 106.9375 39.464844 106.980469 39.960938 C 106.980469 40.289062 106.898438 40.578125 106.734375 40.828125 C 106.570312 41.074219 106.320312 41.195312 105.992188 41.195312 C 103.601562 41.074219 101.4375 41.011719 99.5 41.011719 C 97.644531 41.011719 95.5 41.074219 93.070312 41.195312 C 92.78125 41.195312 92.542969 41.074219 92.359375 40.828125 " clip-rule="nonzero"/></clipPath><clipPath id="819642fe86"><path d="M 0.273438 0.84375 L 55.542969 0.84375 L 55.542969 30.273438 L 0.273438 30.273438 Z M 0.273438 0.84375 " clip-rule="nonzero"/></clipPath><clipPath id="8dc6794b26"><path d="M 3.355469 29.828125 C 3.167969 29.578125 0.371094 29.472656 0.371094 29.144531 C 0.414062 28.609375 0.316406 25.683594 0.371094 25.890625 C 1.023438 28.167969 3.964844 27.847656 4.5 27.847656 C 5.570312 27.847656 6.332031 27.664062 6.789062 27.292969 C 7.242188 26.921875 7.507812 26.488281 7.589844 25.992188 C 7.675781 25.5 7.714844 24.714844 7.714844 23.644531 L 7.714844 9.484375 C 7.714844 8.410156 7.683594 7.628906 7.621094 7.132812 C 7.5625 6.636719 7.300781 6.207031 6.851562 5.832031 C 6.398438 5.460938 5.632812 5.277344 4.5625 5.277344 C 4.066406 5.277344 3.695312 5.207031 3.449219 5.0625 C 3.203125 4.914062 3.078125 4.578125 3.078125 4.042969 C 3.078125 3.792969 3.160156 3.558594 3.324219 3.332031 C 3.488281 3.101562 3.738281 2.96875 4.066406 2.929688 C 6.746094 2.515625 8.953125 1.980469 10.683594 1.320312 C 11.382812 1.113281 11.855469 0.992188 12.105469 0.949219 L 12.289062 0.949219 C 12.949219 0.949219 13.28125 1.34375 13.28125 2.125 L 13.28125 6.019531 L 13.464844 6.019531 C 13.714844 5.773438 14.332031 5.164062 15.320312 4.195312 C 16.308594 3.226562 17.433594 2.496094 18.691406 2.003906 C 19.949219 1.507812 21.378906 1.261719 22.988281 1.261719 C 24.964844 1.261719 26.675781 1.683594 28.117188 2.527344 C 29.5625 3.371094 30.632812 4.539062 31.335938 6.023438 L 31.457031 6.023438 C 33.066406 4.496094 34.601562 3.324219 36.066406 2.496094 C 37.527344 1.671875 39.414062 1.261719 41.722656 1.261719 C 44.523438 1.261719 46.75 2.105469 48.398438 3.796875 C 50.050781 5.484375 50.875 7.714844 50.875 10.472656 L 50.875 23.640625 C 50.875 24.714844 50.914062 25.496094 50.996094 25.992188 C 51.082031 26.488281 51.347656 26.921875 51.800781 27.292969 C 52.253906 27.660156 53.019531 27.847656 54.089844 27.847656 L 54.460938 27.847656 C 54.789062 27.847656 55.039062 27.910156 55.203125 28.03125 C 55.367188 28.15625 55.46875 28.464844 55.511719 28.960938 C 55.511719 29.289062 55.417969 29.578125 55.234375 29.828125 C 55.046875 30.074219 54.808594 30.195312 54.523438 30.195312 C 52.132812 30.074219 49.96875 30.011719 48.03125 30.011719 C 46.175781 30.011719 44.03125 30.074219 41.601562 30.195312 C 41.269531 30.195312 41.023438 30.074219 40.855469 29.828125 C 40.691406 29.578125 40.609375 29.289062 40.609375 28.960938 C 40.652344 28.425781 40.765625 28.105469 40.953125 28.003906 C 41.136719 27.898438 41.496094 27.847656 42.035156 27.847656 C 43.105469 27.847656 43.867188 27.664062 44.320312 27.292969 C 44.773438 26.921875 45.042969 26.488281 45.125 25.992188 C 45.207031 25.5 45.25 24.714844 45.25 23.644531 L 45.25 10.535156 C 45.25 8.640625 44.648438 7.1875 43.453125 6.175781 C 42.257812 5.164062 40.878906 4.660156 39.3125 4.660156 C 37.414062 4.660156 35.871094 5.117188 34.675781 6.023438 C 33.480469 6.929688 32.636719 7.898438 32.140625 8.925781 L 32.140625 23.640625 C 32.140625 23.890625 32.128906 24.445312 32.109375 25.3125 C 32.089844 26.175781 32.316406 26.816406 32.789062 27.226562 C 33.265625 27.640625 34.035156 27.847656 35.109375 27.847656 L 35.480469 27.847656 C 35.851562 27.847656 36.105469 27.910156 36.25 28.03125 C 36.394531 28.15625 36.488281 28.464844 36.53125 28.960938 C 36.53125 29.289062 36.445312 29.578125 36.28125 29.828125 C 36.121094 30.074219 35.871094 30.195312 35.542969 30.195312 C 33.109375 30.074219 31.007812 30.011719 29.234375 30.011719 C 27.542969 30.011719 25.484375 30.074219 23.050781 30.195312 C 22.722656 30.195312 22.476562 30.074219 22.308594 29.828125 C 22.144531 29.578125 22.0625 29.289062 22.0625 28.960938 C 22.105469 28.425781 22.21875 28.105469 22.402344 28.003906 C 22.585938 27.898438 22.949219 27.847656 23.484375 27.847656 C 24.84375 27.847656 25.691406 27.570312 26.019531 27.015625 C 26.347656 26.457031 26.503906 25.820312 26.484375 25.097656 C 26.460938 24.375 26.453125 23.890625 26.453125 23.644531 L 26.453125 10.535156 C 26.453125 8.640625 25.863281 7.1875 24.691406 6.175781 C 23.515625 5.164062 22.144531 4.660156 20.578125 4.660156 C 18.679688 4.660156 17.132812 5.117188 15.941406 6.023438 C 14.746094 6.929688 13.878906 7.898438 13.34375 8.925781 L 13.34375 23.640625 C 13.34375 24.714844 13.386719 25.496094 13.46875 25.992188 C 13.550781 26.488281 13.816406 26.921875 14.273438 27.292969 C 14.726562 27.660156 15.488281 27.847656 16.558594 27.847656 L 16.929688 27.847656 C 17.261719 27.847656 17.507812 27.910156 17.671875 28.03125 C 17.835938 28.15625 17.9375 28.464844 17.980469 28.960938 C 17.980469 29.289062 17.898438 29.578125 17.734375 29.828125 C 17.570312 30.074219 17.320312 30.195312 16.992188 30.195312 C 14.601562 30.074219 12.4375 30.011719 10.5 30.011719 C 8.644531 30.011719 6.5 30.074219 4.070312 30.195312 C 3.78125 30.195312 3.542969 30.074219 3.359375 29.828125 " clip-rule="nonzero"/></clipPath><clipPath id="f50973b5f7"><rect x="0" width="56" y="0" height="31"/></clipPath><clipPath id="45326748d8"><path d="M 92.15625 40.792969 L 99.605469 40.792969 L 99.605469 41.273438 L 92.15625 41.273438 Z M 92.15625 40.792969 " clip-rule="nonzero"/></clipPath><clipPath id="7d80cff8a3"><path d="M 92.214844 41.242188 C 92.214844 41.242188 96.308594 40.878906 99.558594 40.878906 " clip-rule="nonzero"/></clipPath><clipPath id="8b2e41640c"><path d="M 0.15625 0.871094 L 7.605469 0.871094 L 7.605469 1.273438 L 0.15625 1.273438 Z M 0.15625 0.871094 " clip-rule="nonzero"/></clipPath><clipPath id="951ca457ca"><path d="M 0.214844 1.242188 C 0.214844 1.242188 4.308594 0.878906 7.558594 0.878906 " clip-rule="nonzero"/></clipPath><clipPath id="507bc9630e"><rect x="0" width="8" y="0" height="2"/></clipPath><clipPath id="b7c4de123a"><path d="M 92.15625 40.671875 L 99.605469 40.671875 L 99.605469 41.394531 L 92.15625 41.394531 Z M 92.15625 40.671875 " clip-rule="nonzero"/></clipPath><clipPath id="d41bce0783"><path d="M 92.210938 41.164062 C 94.65625 40.949219 97.101562 40.785156 99.558594 40.761719 L 99.558594 41 C 98.339844 40.996094 97.113281 41.035156 95.890625 41.089844 C 94.667969 41.148438 93.445312 41.222656 92.222656 41.320312 Z M 92.210938 41.164062 " clip-rule="nonzero"/></clipPath><clipPath id="05fc0a6250"><path d="M 0.15625 0.671875 L 7.605469 0.671875 L 7.605469 1.347656 L 0.15625 1.347656 Z M 0.15625 0.671875 " clip-rule="nonzero"/></clipPath><clipPath id="d3061efdef"><path d="M 0.210938 1.164062 C 2.65625 0.949219 5.101562 0.785156 7.558594 0.761719 L 7.558594 1 C 6.339844 0.996094 5.113281 1.035156 3.890625 1.089844 C 2.667969 1.148438 1.445312 1.222656 0.222656 1.320312 Z M 0.210938 1.164062 " clip-rule="nonzero"/></clipPath><clipPath id="cb98722a53"><rect x="0" width="8" y="0" height="2"/></clipPath><clipPath id="714ec0a17f"><path d="M 146.113281 1.246094 L 161.125 1.246094 L 161.125 41.238281 L 146.113281 41.238281 Z M 146.113281 1.246094 " clip-rule="nonzero"/></clipPath><clipPath id="e5eec9a5a5"><path d="M 150.320312 7.585938 C 149.535156 6.863281 149.144531 5.96875 149.144531 4.894531 C 149.144531 3.949219 149.617188 3.101562 150.566406 2.359375 C 151.515625 1.617188 152.585938 1.246094 153.78125 1.246094 C 154.8125 1.246094 155.65625 1.609375 156.316406 2.328125 C 156.976562 3.050781 157.304688 3.96875 157.304688 5.082031 C 157.304688 6.070312 156.914062 6.914062 156.132812 7.617188 C 155.347656 8.316406 154.378906 8.667969 153.226562 8.667969 C 152.074219 8.667969 151.101562 8.308594 150.320312 7.585938 M 146.394531 40.824219 C 146.207031 40.578125 146.113281 40.289062 146.113281 39.960938 C 146.15625 39.425781 146.277344 39.105469 146.484375 39 C 146.691406 38.898438 147.0625 38.847656 147.597656 38.847656 C 148.671875 38.847656 149.433594 38.664062 149.886719 38.292969 C 150.339844 37.921875 150.597656 37.488281 150.660156 36.992188 C 150.71875 36.496094 150.753906 35.714844 150.753906 34.644531 L 150.753906 20.484375 C 150.753906 19.410156 150.71875 18.628906 150.660156 18.132812 C 150.597656 17.636719 150.339844 17.207031 149.886719 16.835938 C 149.433594 16.464844 148.671875 16.277344 147.597656 16.277344 C 147.105469 16.277344 146.734375 16.207031 146.484375 16.0625 C 146.238281 15.914062 146.113281 15.578125 146.113281 15.042969 C 146.113281 14.792969 146.195312 14.558594 146.363281 14.332031 C 146.527344 14.101562 146.773438 13.96875 147.101562 13.929688 C 149.699219 13.558594 151.925781 13.023438 153.78125 12.320312 C 154.355469 12.117188 154.832031 11.992188 155.203125 11.949219 L 155.386719 11.949219 C 156.046875 11.949219 156.378906 12.34375 156.378906 13.125 L 156.378906 34.644531 C 156.378906 35.714844 156.417969 36.496094 156.5 36.992188 C 156.585938 37.488281 156.851562 37.917969 157.304688 38.292969 C 157.757812 38.664062 158.519531 38.847656 159.59375 38.847656 L 159.964844 38.847656 C 160.292969 38.847656 160.539062 38.910156 160.703125 39.03125 C 160.871094 39.15625 160.972656 39.464844 161.015625 39.960938 C 161.015625 40.289062 160.929688 40.578125 160.765625 40.824219 C 160.601562 41.070312 160.351562 41.195312 160.023438 41.195312 C 157.632812 41.070312 155.46875 41.011719 153.53125 41.011719 C 151.675781 41.011719 149.535156 41.070312 147.101562 41.195312 C 146.8125 41.195312 146.574219 41.070312 146.390625 40.824219 " clip-rule="nonzero"/></clipPath><clipPath id="9c9aeeff10"><path d="M 0.113281 0.246094 L 15.125 0.246094 L 15.125 40.238281 L 0.113281 40.238281 Z M 0.113281 0.246094 " clip-rule="nonzero"/></clipPath><clipPath id="63e23dcdc6"><path d="M 4.320312 6.585938 C 3.535156 5.863281 3.144531 4.96875 3.144531 3.894531 C 3.144531 2.949219 3.617188 2.101562 4.566406 1.359375 C 5.515625 0.617188 6.585938 0.246094 7.78125 0.246094 C 8.8125 0.246094 9.65625 0.609375 10.316406 1.328125 C 10.976562 2.050781 11.304688 2.96875 11.304688 4.082031 C 11.304688 5.070312 10.914062 5.914062 10.132812 6.617188 C 9.347656 7.316406 8.378906 7.667969 7.226562 7.667969 C 6.074219 7.667969 5.101562 7.308594 4.320312 6.585938 M 0.394531 39.824219 C 0.207031 39.578125 0.113281 39.289062 0.113281 38.960938 C 0.15625 38.425781 0.277344 38.105469 0.484375 38 C 0.691406 37.898438 1.0625 37.847656 1.597656 37.847656 C 2.671875 37.847656 3.433594 37.664062 3.886719 37.292969 C 4.339844 36.921875 4.597656 36.488281 4.660156 35.992188 C 4.71875 35.496094 4.753906 34.714844 4.753906 33.644531 L 4.753906 19.484375 C 4.753906 18.410156 4.71875 17.628906 4.660156 17.132812 C 4.597656 16.636719 4.339844 16.207031 3.886719 15.835938 C 3.433594 15.464844 2.671875 15.277344 1.597656 15.277344 C 1.105469 15.277344 0.734375 15.207031 0.484375 15.0625 C 0.238281 14.914062 0.113281 14.578125 0.113281 14.042969 C 0.113281 13.792969 0.195312 13.558594 0.363281 13.332031 C 0.527344 13.101562 0.773438 12.96875 1.101562 12.929688 C 3.699219 12.558594 5.925781 12.023438 7.78125 11.320312 C 8.355469 11.117188 8.832031 10.992188 9.203125 10.949219 L 9.386719 10.949219 C 10.046875 10.949219 10.378906 11.34375 10.378906 12.125 L 10.378906 33.644531 C 10.378906 34.714844 10.417969 35.496094 10.5 35.992188 C 10.585938 36.488281 10.851562 36.917969 11.304688 37.292969 C 11.757812 37.664062 12.519531 37.847656 13.59375 37.847656 L 13.964844 37.847656 C 14.292969 37.847656 14.539062 37.910156 14.703125 38.03125 C 14.871094 38.15625 14.972656 38.464844 15.015625 38.960938 C 15.015625 39.289062 14.929688 39.578125 14.765625 39.824219 C 14.601562 40.070312 14.351562 40.195312 14.023438 40.195312 C 11.632812 40.070312 9.46875 40.011719 7.53125 40.011719 C 5.675781 40.011719 3.535156 40.070312 1.101562 40.195312 C 0.8125 40.195312 0.574219 40.070312 0.390625 39.824219 " clip-rule="nonzero"/></clipPath><clipPath id="43fb013cef"><rect x="0" width="16" y="0" height="41"/></clipPath><clipPath id="27370fd9cf"><path d="M 161.726562 12.175781 L 184.304688 12.175781 L 184.304688 41.839844 L 161.726562 41.839844 Z M 161.726562 12.175781 " clip-rule="nonzero"/></clipPath><clipPath id="78cc9a5afc"><path d="M 164.890625 40.023438 C 162.828125 38.871094 161.796875 37.242188 161.796875 35.136719 C 161.796875 33.941406 162.15625 32.972656 162.878906 32.230469 C 163.601562 31.488281 164.539062 31.117188 165.691406 31.117188 C 166.351562 31.117188 166.9375 31.304688 167.457031 31.675781 C 167.972656 32.046875 168.226562 32.335938 168.226562 32.539062 C 168.226562 32.582031 167.992188 32.847656 167.515625 33.34375 C 167.042969 33.839844 166.804688 34.539062 166.804688 35.445312 C 166.804688 36.683594 167.371094 37.660156 168.507812 38.382812 C 169.640625 39.105469 171.277344 39.464844 173.421875 39.464844 C 175.359375 39.464844 176.875 39.042969 177.964844 38.199219 C 179.058594 37.351562 179.605469 36.167969 179.605469 34.644531 C 179.605469 33.613281 179.296875 32.765625 178.675781 32.109375 C 178.058594 31.449219 177.285156 30.933594 176.359375 30.5625 C 175.429688 30.191406 174.140625 29.757812 172.496094 29.261719 C 170.472656 28.6875 168.824219 28.109375 167.546875 27.53125 C 166.269531 26.953125 165.175781 26.089844 164.273438 24.9375 C 163.367188 23.78125 162.910156 22.277344 162.910156 20.421875 C 162.910156 18.691406 163.445312 17.207031 164.519531 15.96875 C 165.589844 14.734375 166.980469 13.804688 168.691406 13.1875 C 170.402344 12.570312 172.207031 12.261719 174.101562 12.261719 C 176.53125 12.261719 178.648438 12.777344 180.4375 13.804688 C 182.234375 14.835938 183.128906 16.28125 183.128906 18.132812 C 183.128906 19.246094 182.789062 20.195312 182.109375 20.980469 C 181.425781 21.761719 180.53125 22.152344 179.417969 22.152344 C 178.757812 22.152344 178.171875 21.96875 177.65625 21.597656 C 177.140625 21.226562 176.882812 20.9375 176.882812 20.730469 C 176.882812 20.691406 177.046875 20.527344 177.378906 20.238281 C 177.707031 19.949219 178.007812 19.609375 178.273438 19.214844 C 178.542969 18.824219 178.675781 18.363281 178.675781 17.824219 C 178.59375 16.710938 178.039062 15.847656 177.007812 15.226562 C 175.976562 14.609375 174.761719 14.300781 173.359375 14.300781 C 171.792969 14.300781 170.421875 14.660156 169.246094 15.382812 C 168.070312 16.105469 167.484375 17.105469 167.484375 18.382812 C 167.484375 19.535156 167.730469 20.453125 168.226562 21.132812 C 168.71875 21.8125 169.460938 22.359375 170.453125 22.769531 C 171.441406 23.183594 173.007812 23.742188 175.152344 24.441406 C 177.335938 25.144531 179.046875 25.792969 180.28125 26.386719 C 181.519531 26.988281 182.496094 27.789062 183.21875 28.800781 C 183.941406 29.808594 184.300781 31.140625 184.300781 32.789062 C 184.300781 34.480469 183.808594 36.015625 182.816406 37.394531 C 181.828125 38.773438 180.46875 39.847656 178.738281 40.609375 C 177.007812 41.375 175.070312 41.753906 172.925781 41.753906 C 169.628906 41.753906 166.949219 41.175781 164.890625 40.023438 " clip-rule="nonzero"/></clipPath><clipPath id="6c1afc013c"><path d="M 0.726562 0.175781 L 23.304688 0.175781 L 23.304688 29.828125 L 0.726562 29.828125 Z M 0.726562 0.175781 " clip-rule="nonzero"/></clipPath><clipPath id="e550836e07"><path d="M 3.890625 28.023438 C 1.828125 26.871094 0.796875 25.242188 0.796875 23.136719 C 0.796875 21.941406 1.15625 20.972656 1.878906 20.230469 C 2.601562 19.488281 3.539062 19.117188 4.691406 19.117188 C 5.351562 19.117188 5.9375 19.304688 6.457031 19.675781 C 6.972656 20.046875 7.226562 20.335938 7.226562 20.539062 C 7.226562 20.582031 6.992188 20.847656 6.515625 21.34375 C 6.042969 21.839844 5.804688 22.539062 5.804688 23.445312 C 5.804688 24.683594 6.371094 25.660156 7.507812 26.382812 C 8.640625 27.105469 10.277344 27.464844 12.421875 27.464844 C 14.359375 27.464844 15.875 27.042969 16.964844 26.199219 C 18.058594 25.351562 18.605469 24.167969 18.605469 22.644531 C 18.605469 21.613281 18.296875 20.765625 17.675781 20.109375 C 17.058594 19.449219 16.285156 18.933594 15.359375 18.5625 C 14.429688 18.191406 13.140625 17.757812 11.496094 17.261719 C 9.472656 16.6875 7.824219 16.109375 6.546875 15.53125 C 5.269531 14.953125 4.175781 14.089844 3.273438 12.9375 C 2.367188 11.78125 1.910156 10.277344 1.910156 8.421875 C 1.910156 6.691406 2.445312 5.207031 3.519531 3.96875 C 4.589844 2.734375 5.980469 1.804688 7.691406 1.1875 C 9.402344 0.570312 11.207031 0.261719 13.101562 0.261719 C 15.53125 0.261719 17.648438 0.777344 19.4375 1.804688 C 21.234375 2.835938 22.128906 4.28125 22.128906 6.132812 C 22.128906 7.246094 21.789062 8.195312 21.109375 8.980469 C 20.425781 9.761719 19.53125 10.152344 18.417969 10.152344 C 17.757812 10.152344 17.171875 9.96875 16.65625 9.597656 C 16.140625 9.226562 15.882812 8.9375 15.882812 8.730469 C 15.882812 8.691406 16.046875 8.527344 16.378906 8.238281 C 16.707031 7.949219 17.007812 7.609375 17.273438 7.214844 C 17.542969 6.824219 17.675781 6.363281 17.675781 5.824219 C 17.59375 4.710938 17.039062 3.847656 16.007812 3.226562 C 14.976562 2.609375 13.761719 2.300781 12.359375 2.300781 C 10.792969 2.300781 9.421875 2.660156 8.246094 3.382812 C 7.070312 4.105469 6.484375 5.105469 6.484375 6.382812 C 6.484375 7.535156 6.730469 8.453125 7.226562 9.132812 C 7.71875 9.8125 8.460938 10.359375 9.453125 10.769531 C 10.441406 11.183594 12.007812 11.742188 14.152344 12.441406 C 16.335938 13.144531 18.046875 13.792969 19.28125 14.386719 C 20.519531 14.988281 21.496094 15.789062 22.21875 16.800781 C 22.941406 17.808594 23.300781 19.140625 23.300781 20.789062 C 23.300781 22.480469 22.808594 24.015625 21.816406 25.394531 C 20.828125 26.773438 19.46875 27.847656 17.738281 28.609375 C 16.007812 29.375 14.070312 29.753906 11.925781 29.753906 C 8.628906 29.753906 5.949219 29.175781 3.890625 28.023438 " clip-rule="nonzero"/></clipPath><clipPath id="bcafdbc347"><rect x="0" width="24" y="0" height="30"/></clipPath><clipPath id="dece1a0872"><rect x="0" width="185" y="0" height="43"/></clipPath></defs><g clip-path="url(#79a4d111c7)"><g clip-path="url(#ad8a4bacbf)"><g transform="matrix(1, 0, 0, 1, 186, 5)"><g clip-path="url(#b1f9e49407)"><g clip-path="url(#8feb9eb61a)"><g clip-path="url(#58b2936b2e)"><rect x="-235.473598" width="323.827186" fill="#e9ecf1" height="107.999996" y="-21.499999" fill-opacity="1"/></g></g></g></g></g></g><g clip-path="url(#af8defd5d4)"><g clip-path="url(#91c0dc41d4)"><g transform="matrix(1, 0, 0, 1, 186, 5)"><g clip-path="url(#e89d1c4874)"><g clip-path="url(#7b2367b6d2)"><g clip-path="url(#5523a5877a)"><rect x="-235.473598" width="323.827186" fill="#e9ecf1" height="107.999996" y="-21.499999" fill-opacity="1"/></g></g></g></g></g></g><g transform="matrix(1, 0, 0, 1, 0, 16)"><g clip-path="url(#dece1a0872)"><g clip-path="url(#6da3b4d4b2)"><g clip-path="url(#8749815940)"><g transform="matrix(1, 0, 0, 1, 0, 1)"><g clip-path="url(#1878403093)"><g clip-path="url(#f8eeb4cdc0)"><g clip-path="url(#83604be66c)"><path fill="#e9ecf1" d="M 0 0.0234375 L 145.144531 0.0234375 L 145.144531 41.355469 L 0 41.355469 Z M 0 0.0234375 " fill-opacity="1" fill-rule="nonzero"/></g></g></g></g></g></g><g clip-path="url(#93b9edd6ec)"><g clip-path="url(#5f243a071c)"><g transform="matrix(1, 0, 0, 1, 43, 11)"><g clip-path="url(#9854283259)"><g clip-path="url(#6499326d0c)"><g clip-path="url(#102d11654c)"><rect x="-124.856316" width="388.592623" fill="#e9ecf1" y="-54.299999" height="129.599995" fill-opacity="1"/></g></g></g></g></g></g><g clip-path="url(#a30492e89d)"><g clip-path="url(#e0492f751b)"><g transform="matrix(1, 0, 0, 1, 65, 12)"><g clip-path="url(#deda970300)"><g clip-path="url(#dd38cb8c51)"><g clip-path="url(#5a00dc321c)"><rect x="-146.856316" width="388.592623" fill="#e9ecf1" y="-55.299999" height="129.599995" fill-opacity="1"/></g></g></g></g></g></g><g clip-path="url(#ed62d3a33d)"><g clip-path="url(#f4f8805a88)"><g transform="matrix(1, 0, 0, 1, 89, 11)"><g clip-path="url(#f50973b5f7)"><g clip-path="url(#819642fe86)"><g clip-path="url(#8dc6794b26)"><rect x="-170.856316" width="388.592623" fill="#e9ecf1" y="-54.299999" height="129.599995" fill-opacity="1"/></g></g></g></g></g></g><g clip-path="url(#45326748d8)"><g clip-path="url(#7d80cff8a3)"><g transform="matrix(1, 0, 0, 1, 92, 40)"><g clip-path="url(#507bc9630e)"><g clip-path="url(#8b2e41640c)"><g clip-path="url(#951ca457ca)"><rect x="-173.856316" width="388.592623" fill="#e9ecf1" y="-83.299999" height="129.599995" fill-opacity="1"/></g></g></g></g></g></g><g clip-path="url(#b7c4de123a)"><g clip-path="url(#d41bce0783)"><g transform="matrix(1, 0, 0, 1, 92, 40)"><g clip-path="url(#cb98722a53)"><g clip-path="url(#05fc0a6250)"><g clip-path="url(#d3061efdef)"><rect x="-173.856316" width="388.592623" fill="#e9ecf1" y="-83.299999" height="129.599995" fill-opacity="1"/></g></g></g></g></g></g><g clip-path="url(#714ec0a17f)"><g clip-path="url(#e5eec9a5a5)"><g transform="matrix(1, 0, 0, 1, 146, 1)"><g clip-path="url(#43fb013cef)"><g clip-path="url(#9c9aeeff10)"><g clip-path="url(#63e23dcdc6)"><rect x="-227.856316" width="388.592623" fill="#e9ecf1" y="-44.299999" height="129.599995" fill-opacity="1"/></g></g></g></g></g></g><g clip-path="url(#27370fd9cf)"><g clip-path="url(#78cc9a5afc)"><g transform="matrix(1, 0, 0, 1, 161, 12)"><g clip-path="url(#bcafdbc347)"><g clip-path="url(#6c1afc013c)"><g clip-path="url(#e550836e07)"><path fill="#e9ecf1" d="M -15.488281 -11.355469 L 23.90625 -11.355469 L 23.90625 30.320312 L -15.488281 30.320312 Z M -15.488281 -11.355469 " fill-opacity="1" fill-rule="nonzero"/></g></g></g></g></g></g></g></g></svg>